<svg xmlns="http://www.w3.org/2000/svg" xmlns:xlink="http://www.w3.org/1999/xlink" width="50" zoomAndPan="magnify" viewBox="0 0 37.5 37.499999" height="50" preserveAspectRatio="xMidYMid meet" version="1.0"><defs><clipPath id="033ebb8bc8"><path d="M 0.695312 0 L 35 0 L 35 37 L 0.695312 37 Z M 0.695312 0 " clip-rule="nonzero"/></clipPath></defs><g clip-path="url(#033ebb8bc8)"><path fill="#000000" d="M 20.214844 32.019531 C 19.855469 32.046875 19.496094 32.0625 19.128906 32.0625 C 13.816406 32.0625 9.214844 28.988281 7.003906 24.515625 C 7 24.523438 11.492188 14.105469 21.789062 9.597656 C 16.484375 10.941406 12.917969 12.808594 10.519531 14.675781 L 10.519531 14.671875 L 10.503906 14.6875 C 9.910156 15.148438 9.386719 15.613281 8.929688 16.066406 C 7.90625 16.992188 6.59375 18.238281 5.632812 19.363281 C 5.613281 19.078125 5.605469 18.792969 5.605469 18.503906 C 5.605469 11.011719 11.660156 4.941406 19.132812 4.941406 C 22.769531 4.941406 26.070312 6.382812 28.503906 8.722656 C 24.003906 19.886719 11.191406 23.695312 11.191406 23.695312 C 23.464844 22.582031 28.980469 17.273438 31.457031 12.910156 C 33.328125 9.621094 33.464844 6.871094 33.464844 6.871094 C 30.085938 2.6875 24.917969 0.015625 19.132812 0.015625 C 8.949219 0.015625 0.695312 8.292969 0.695312 18.5 C 0.695312 28.710938 8.949219 36.988281 19.132812 36.988281 C 22.105469 36.988281 24.917969 36.28125 27.402344 35.027344 C 29.097656 34.171875 30.640625 33.0625 31.988281 31.75 C 36.214844 27.246094 34.605469 22.144531 34.605469 22.144531 C 29.761719 32.195312 20.214844 32.019531 20.214844 32.019531 " fill-opacity="1" fill-rule="evenodd"/></g></svg>