<svg xmlns="http://www.w3.org/2000/svg" xmlns:xlink="http://www.w3.org/1999/xlink" width="50" zoomAndPan="magnify" viewBox="0 0 37.5 37.499999" height="50" preserveAspectRatio="xMidYMid meet" version="1.0"><defs><clipPath id="dd9107d892"><path d="M 0 13 L 37.007812 13 L 37.007812 37 L 0 37 Z M 0 13 " clip-rule="nonzero"/></clipPath><clipPath id="bae9bedbb9"><path d="M 0 13 L 37.007812 13 L 37.007812 21 L 0 21 Z M 0 13 " clip-rule="nonzero"/></clipPath></defs><g clip-path="url(#dd9107d892)"><path fill="#d32f2f" d="M 3.550781 13.652344 L 33.453125 13.652344 C 33.925781 13.652344 34.378906 13.742188 34.8125 13.921875 C 35.25 14.101562 35.632812 14.359375 35.964844 14.691406 C 36.300781 15.023438 36.554688 15.40625 36.734375 15.839844 C 36.917969 16.273438 37.007812 16.726562 37.007812 17.195312 L 37.007812 33.4375 C 37.007812 33.910156 36.917969 34.359375 36.734375 34.796875 C 36.554688 35.230469 36.300781 35.613281 35.964844 35.945312 C 35.632812 36.277344 35.25 36.53125 34.8125 36.710938 C 34.378906 36.894531 33.925781 36.984375 33.453125 36.984375 L 3.550781 36.984375 C 3.082031 36.984375 2.628906 36.894531 2.191406 36.710938 C 1.757812 36.53125 1.375 36.277344 1.039062 35.945312 C 0.707031 35.613281 0.449219 35.230469 0.269531 34.796875 C 0.0898438 34.359375 0 33.910156 0 33.4375 L 0 17.195312 C 0 16.726562 0.0898438 16.273438 0.269531 15.839844 C 0.449219 15.40625 0.707031 15.023438 1.039062 14.691406 C 1.375 14.359375 1.757812 14.101562 2.191406 13.921875 C 2.628906 13.742188 3.082031 13.652344 3.550781 13.652344 Z M 3.550781 13.652344 " fill-opacity="1" fill-rule="nonzero"/></g><g clip-path="url(#bae9bedbb9)"><path fill="#37474f" d="M 37.007812 17.195312 L 37.007812 20.445312 L 0 20.445312 L 0 17.195312 C 0 16.726562 0.0898438 16.273438 0.269531 15.839844 C 0.449219 15.40625 0.707031 15.023438 1.039062 14.691406 C 1.375 14.359375 1.757812 14.101562 2.191406 13.921875 C 2.628906 13.742188 3.082031 13.652344 3.550781 13.652344 L 33.453125 13.652344 C 33.925781 13.652344 34.378906 13.742188 34.8125 13.921875 C 35.25 14.101562 35.632812 14.359375 35.964844 14.691406 C 36.300781 15.023438 36.554688 15.40625 36.734375 15.839844 C 36.917969 16.273438 37.007812 16.726562 37.007812 17.195312 Z M 37.007812 17.195312 " fill-opacity="1" fill-rule="nonzero"/></g><path fill="#eceff1" d="M 15.394531 28.566406 C 15.394531 28.945312 15.359375 29.320312 15.285156 29.691406 C 15.210938 30.058594 15.101562 30.421875 14.957031 30.769531 C 14.808594 31.121094 14.632812 31.449219 14.421875 31.765625 C 14.210938 32.078125 13.972656 32.371094 13.703125 32.636719 C 13.4375 32.90625 13.144531 33.144531 12.828125 33.355469 C 12.515625 33.5625 12.179688 33.742188 11.832031 33.886719 C 11.480469 34.03125 11.121094 34.140625 10.746094 34.214844 C 10.375 34.289062 10 34.324219 9.621094 34.324219 C 9.242188 34.324219 8.867188 34.289062 8.496094 34.214844 C 8.125 34.140625 7.761719 34.03125 7.414062 33.886719 C 7.0625 33.742188 6.730469 33.5625 6.414062 33.355469 C 6.097656 33.144531 5.808594 32.90625 5.539062 32.636719 C 5.273438 32.371094 5.03125 32.078125 4.820312 31.765625 C 4.609375 31.449219 4.433594 31.121094 4.289062 30.769531 C 4.144531 30.421875 4.035156 30.058594 3.960938 29.691406 C 3.886719 29.320312 3.847656 28.945312 3.847656 28.566406 C 3.847656 28.1875 3.886719 27.8125 3.960938 27.441406 C 4.035156 27.070312 4.144531 26.710938 4.289062 26.363281 C 4.433594 26.011719 4.609375 25.679688 4.820312 25.367188 C 5.03125 25.050781 5.273438 24.761719 5.539062 24.496094 C 5.808594 24.226562 6.097656 23.988281 6.414062 23.777344 C 6.730469 23.566406 7.0625 23.390625 7.414062 23.246094 C 7.761719 23.101562 8.125 22.992188 8.496094 22.917969 C 8.867188 22.84375 9.242188 22.808594 9.621094 22.808594 C 10 22.808594 10.375 22.84375 10.746094 22.917969 C 11.121094 22.992188 11.480469 23.101562 11.832031 23.246094 C 12.179688 23.390625 12.515625 23.566406 12.828125 23.777344 C 13.144531 23.988281 13.4375 24.226562 13.703125 24.496094 C 13.972656 24.761719 14.210938 25.050781 14.421875 25.367188 C 14.632812 25.679688 14.808594 26.011719 14.957031 26.363281 C 15.101562 26.710938 15.210938 27.070312 15.285156 27.441406 C 15.359375 27.8125 15.394531 28.1875 15.394531 28.566406 Z M 15.394531 28.566406 " fill-opacity="1" fill-rule="nonzero"/><path fill="#03a9f4" d="M 9.621094 34.324219 C 10.457031 34.324219 11.253906 34.152344 12.011719 33.808594 C 12.773438 33.464844 13.425781 32.976562 13.972656 32.347656 C 13.816406 31.898438 13.59375 31.484375 13.304688 31.101562 C 13.015625 30.722656 12.679688 30.394531 12.289062 30.117188 C 11.898438 29.84375 11.476562 29.632812 11.019531 29.488281 C 10.566406 29.34375 10.097656 29.269531 9.621094 29.269531 C 9.144531 29.269531 8.675781 29.34375 8.222656 29.488281 C 7.765625 29.632812 7.34375 29.84375 6.953125 30.117188 C 6.566406 30.394531 6.226562 30.722656 5.9375 31.101562 C 5.652344 31.484375 5.429688 31.898438 5.269531 32.347656 C 5.816406 32.976562 6.46875 33.464844 7.230469 33.808594 C 7.988281 34.152344 8.785156 34.324219 9.621094 34.324219 Z M 9.621094 34.324219 " fill-opacity="1" fill-rule="nonzero"/><path fill="#03a9f4" d="M 11.742188 27.15625 C 11.742188 27.4375 11.6875 27.707031 11.582031 27.964844 C 11.472656 28.222656 11.320312 28.453125 11.121094 28.652344 C 10.921875 28.851562 10.691406 29.003906 10.433594 29.109375 C 10.171875 29.21875 9.902344 29.269531 9.621094 29.269531 C 9.339844 29.269531 9.070312 29.21875 8.808594 29.109375 C 8.550781 29.003906 8.320312 28.851562 8.121094 28.652344 C 7.921875 28.453125 7.769531 28.222656 7.664062 27.964844 C 7.554688 27.707031 7.5 27.4375 7.5 27.15625 C 7.5 26.875 7.554688 26.605469 7.664062 26.347656 C 7.769531 26.085938 7.921875 25.859375 8.121094 25.660156 C 8.320312 25.460938 8.550781 25.308594 8.808594 25.203125 C 9.070312 25.09375 9.339844 25.039062 9.621094 25.039062 C 9.902344 25.039062 10.171875 25.09375 10.433594 25.203125 C 10.691406 25.308594 10.921875 25.460938 11.121094 25.660156 C 11.320312 25.859375 11.472656 26.085938 11.582031 26.347656 C 11.6875 26.605469 11.742188 26.875 11.742188 27.15625 Z M 11.742188 27.15625 " fill-opacity="1" fill-rule="nonzero"/><path fill="#ffffff" d="M 22.648438 25.316406 L 32.714844 25.316406 C 32.835938 25.316406 32.941406 25.359375 33.027344 25.449219 C 33.113281 25.535156 33.15625 25.636719 33.15625 25.761719 L 33.15625 26.941406 C 33.15625 27.0625 33.113281 27.167969 33.027344 27.253906 C 32.941406 27.339844 32.835938 27.386719 32.714844 27.386719 L 22.648438 27.386719 C 22.527344 27.386719 22.421875 27.339844 22.335938 27.253906 C 22.246094 27.167969 22.203125 27.0625 22.203125 26.941406 L 22.203125 25.761719 C 22.203125 25.636719 22.246094 25.535156 22.335938 25.449219 C 22.421875 25.359375 22.527344 25.316406 22.648438 25.316406 Z M 22.648438 25.316406 " fill-opacity="1" fill-rule="nonzero"/><path fill="#ffffff" d="M 22.648438 29.746094 L 32.714844 29.746094 C 32.835938 29.746094 32.941406 29.789062 33.027344 29.878906 C 33.113281 29.964844 33.15625 30.066406 33.15625 30.191406 L 33.15625 31.371094 C 33.15625 31.492188 33.113281 31.597656 33.027344 31.683594 C 32.941406 31.769531 32.835938 31.816406 32.714844 31.816406 L 22.648438 31.816406 C 22.527344 31.816406 22.421875 31.769531 22.335938 31.683594 C 22.246094 31.597656 22.203125 31.492188 22.203125 31.371094 L 22.203125 30.191406 C 22.203125 30.066406 22.246094 29.964844 22.335938 29.878906 C 22.421875 29.789062 22.527344 29.746094 22.648438 29.746094 Z M 22.648438 29.746094 " fill-opacity="1" fill-rule="nonzero"/><path fill="#ffc107" d="M 34.527344 0.421875 C 34.433594 0.324219 34.320312 0.25 34.191406 0.199219 C 34.066406 0.148438 33.933594 0.121094 33.796875 0.121094 C 33.660156 0.121094 33.527344 0.148438 33.398438 0.199219 C 33.273438 0.25 33.160156 0.324219 33.0625 0.421875 L 31.390625 2.09375 C 31.292969 2.1875 31.21875 2.300781 31.164062 2.425781 C 31.113281 2.554688 31.085938 2.6875 31.085938 2.824219 C 31.085938 2.960938 31.113281 3.09375 31.164062 3.21875 C 31.21875 3.34375 31.292969 3.457031 31.390625 3.554688 C 31.484375 3.652344 31.597656 3.726562 31.726562 3.777344 C 31.851562 3.832031 31.984375 3.855469 32.121094 3.855469 C 32.257812 3.855469 32.390625 3.832031 32.519531 3.777344 C 32.644531 3.726562 32.757812 3.652344 32.855469 3.554688 L 34.527344 1.882812 C 34.625 1.785156 34.699219 1.675781 34.753906 1.546875 C 34.804688 1.421875 34.832031 1.289062 34.832031 1.152344 C 34.832031 1.015625 34.804688 0.882812 34.753906 0.757812 C 34.699219 0.628906 34.625 0.519531 34.527344 0.421875 Z M 34.527344 0.421875 " fill-opacity="1" fill-rule="nonzero"/><path fill="#ffc107" d="M 34.527344 9.769531 L 32.855469 8.101562 C 32.757812 8.003906 32.644531 7.929688 32.519531 7.875 C 32.390625 7.824219 32.257812 7.796875 32.121094 7.796875 C 31.984375 7.796875 31.851562 7.824219 31.726562 7.875 C 31.597656 7.929688 31.484375 8.003906 31.390625 8.101562 C 31.292969 8.195312 31.21875 8.308594 31.164062 8.433594 C 31.113281 8.5625 31.085938 8.695312 31.085938 8.832031 C 31.085938 8.96875 31.113281 9.101562 31.164062 9.226562 C 31.21875 9.351562 31.292969 9.464844 31.390625 9.5625 L 33.0625 11.230469 C 33.160156 11.328125 33.273438 11.402344 33.398438 11.457031 C 33.527344 11.507812 33.660156 11.535156 33.796875 11.535156 C 33.933594 11.535156 34.066406 11.507812 34.191406 11.457031 C 34.320312 11.402344 34.429688 11.328125 34.527344 11.230469 C 34.625 11.132812 34.699219 11.023438 34.753906 10.894531 C 34.804688 10.769531 34.832031 10.636719 34.832031 10.5 C 34.832031 10.363281 34.804688 10.230469 34.753906 10.105469 C 34.699219 9.980469 34.625 9.867188 34.527344 9.769531 Z M 34.527344 9.769531 " fill-opacity="1" fill-rule="nonzero"/><path fill="#ffc107" d="M 2.476562 0.421875 C 2.574219 0.324219 2.6875 0.25 2.8125 0.199219 C 2.941406 0.148438 3.074219 0.121094 3.210938 0.121094 C 3.347656 0.121094 3.480469 0.148438 3.605469 0.199219 C 3.734375 0.25 3.84375 0.324219 3.941406 0.421875 L 5.617188 2.09375 C 5.714844 2.1875 5.789062 2.300781 5.84375 2.425781 C 5.894531 2.554688 5.921875 2.6875 5.921875 2.824219 C 5.921875 2.960938 5.894531 3.09375 5.84375 3.21875 C 5.789062 3.34375 5.714844 3.457031 5.617188 3.554688 C 5.519531 3.652344 5.410156 3.726562 5.28125 3.777344 C 5.15625 3.832031 5.023438 3.855469 4.886719 3.855469 C 4.746094 3.855469 4.617188 3.832031 4.488281 3.777344 C 4.363281 3.726562 4.25 3.652344 4.152344 3.554688 L 2.476562 1.882812 C 2.378906 1.785156 2.304688 1.675781 2.253906 1.546875 C 2.203125 1.421875 2.175781 1.289062 2.175781 1.152344 C 2.175781 1.015625 2.203125 0.882812 2.253906 0.757812 C 2.304688 0.628906 2.378906 0.519531 2.476562 0.421875 Z M 2.476562 0.421875 " fill-opacity="1" fill-rule="nonzero"/><path fill="#ffc107" d="M 2.476562 9.769531 L 4.152344 8.101562 C 4.25 8.003906 4.363281 7.929688 4.488281 7.875 C 4.617188 7.824219 4.746094 7.796875 4.886719 7.796875 C 5.023438 7.796875 5.15625 7.824219 5.28125 7.875 C 5.410156 7.925781 5.519531 8.003906 5.617188 8.097656 C 5.714844 8.195312 5.789062 8.308594 5.84375 8.433594 C 5.894531 8.5625 5.921875 8.695312 5.921875 8.832031 C 5.921875 8.96875 5.894531 9.101562 5.84375 9.226562 C 5.789062 9.351562 5.714844 9.464844 5.617188 9.5625 L 3.941406 11.230469 C 3.847656 11.328125 3.734375 11.402344 3.605469 11.457031 C 3.480469 11.507812 3.347656 11.535156 3.210938 11.535156 C 3.074219 11.535156 2.941406 11.507812 2.8125 11.457031 C 2.6875 11.402344 2.574219 11.328125 2.476562 11.230469 C 2.378906 11.136719 2.304688 11.023438 2.253906 10.898438 C 2.199219 10.769531 2.175781 10.636719 2.175781 10.5 C 2.175781 10.363281 2.199219 10.230469 2.253906 10.105469 C 2.304688 9.980469 2.378906 9.867188 2.476562 9.769531 Z M 2.476562 9.769531 " fill-opacity="1" fill-rule="nonzero"/><path fill="#ffc107" d="M 18.886719 17.59375 L 22.863281 18.441406 C 23.121094 18.496094 23.375 18.496094 23.628906 18.441406 C 23.882812 18.390625 24.117188 18.285156 24.324219 18.132812 C 24.535156 17.980469 24.707031 17.792969 24.835938 17.566406 C 24.96875 17.34375 25.046875 17.101562 25.070312 16.84375 L 25.492188 12.804688 C 25.519531 12.546875 25.601562 12.304688 25.730469 12.078125 L 27.769531 8.566406 C 27.898438 8.34375 27.976562 8.101562 28.003906 7.84375 C 28.03125 7.585938 28.003906 7.332031 27.925781 7.085938 C 27.84375 6.839844 27.71875 6.617188 27.542969 6.425781 C 27.367188 6.234375 27.164062 6.082031 26.925781 5.976562 L 23.207031 4.332031 C 22.96875 4.226562 22.761719 4.074219 22.585938 3.882812 L 19.867188 0.863281 C 19.695312 0.671875 19.488281 0.523438 19.25 0.414062 C 19.011719 0.308594 18.761719 0.257812 18.503906 0.257812 C 18.242188 0.257812 17.992188 0.308594 17.757812 0.414062 C 17.519531 0.523438 17.3125 0.671875 17.140625 0.863281 L 14.417969 3.882812 C 14.246094 4.074219 14.039062 4.226562 13.800781 4.332031 L 10.082031 5.976562 C 9.84375 6.082031 9.636719 6.234375 9.464844 6.425781 C 9.289062 6.617188 9.164062 6.839844 9.082031 7.085938 C 9 7.332031 8.976562 7.585938 9.003906 7.84375 C 9.03125 8.101562 9.109375 8.34375 9.238281 8.566406 L 11.277344 12.078125 C 11.40625 12.304688 11.484375 12.546875 11.511719 12.804688 L 11.933594 16.84375 C 11.960938 17.101562 12.039062 17.34375 12.167969 17.566406 C 12.300781 17.792969 12.46875 17.980469 12.679688 18.132812 C 12.890625 18.285156 13.125 18.390625 13.378906 18.441406 C 13.632812 18.496094 13.886719 18.496094 14.140625 18.441406 L 18.121094 17.59375 C 18.375 17.539062 18.632812 17.539062 18.886719 17.59375 Z M 18.886719 17.59375 " fill-opacity="1" fill-rule="nonzero"/><path fill="#ffa000" d="M 22.871094 4.136719 L 18.503906 10.140625 L 18.503906 0.257812 C 19.050781 0.257812 19.503906 0.457031 19.867188 0.867188 L 22.585938 3.882812 C 22.671875 3.976562 22.765625 4.0625 22.871094 4.136719 Z M 22.871094 4.136719 " fill-opacity="1" fill-rule="nonzero"/><path fill="#ffa000" d="M 11.433594 12.429688 L 18.503906 10.140625 L 12.683594 18.132812 C 12.238281 17.8125 11.988281 17.382812 11.933594 16.84375 L 11.515625 12.808594 C 11.5 12.679688 11.472656 12.550781 11.433594 12.429688 Z M 11.433594 12.429688 " fill-opacity="1" fill-rule="nonzero"/><path fill="#ffa000" d="M 18.503906 10.140625 L 9.082031 7.082031 C 9.25 6.566406 9.582031 6.199219 10.082031 5.980469 L 13.800781 4.332031 C 13.917969 4.277344 14.03125 4.214844 14.132812 4.136719 Z M 18.503906 10.140625 " fill-opacity="1" fill-rule="nonzero"/><path fill="#ffa000" d="M 24.324219 18.132812 C 23.886719 18.453125 23.398438 18.558594 22.867188 18.445312 L 18.886719 17.59375 C 18.757812 17.570312 18.632812 17.554688 18.503906 17.554688 L 18.503906 10.140625 Z M 24.324219 18.132812 " fill-opacity="1" fill-rule="nonzero"/><path fill="#ffa000" d="M 27.765625 8.566406 L 25.730469 12.078125 C 25.667969 12.191406 25.613281 12.308594 25.574219 12.429688 L 18.503906 10.140625 L 27.921875 7.085938 C 28.09375 7.601562 28.042969 8.097656 27.765625 8.566406 Z M 27.765625 8.566406 " fill-opacity="1" fill-rule="nonzero"/></svg>