<svg xmlns="http://www.w3.org/2000/svg" xmlns:xlink="http://www.w3.org/1999/xlink" width="50" zoomAndPan="magnify" viewBox="0 0 37.5 37.499999" height="50" preserveAspectRatio="xMidYMid meet" version="1.0"><defs><clipPath id="346e9b6fd1"><path d="M 3.699219 0 L 35.527344 0 L 35.527344 37 L 3.699219 37 Z M 3.699219 0 " clip-rule="nonzero"/></clipPath><clipPath id="b25a571ea2"><path d="M 0 1.6875 L 35 1.6875 L 35 34.996094 L 0 34.996094 Z M 0 1.6875 " clip-rule="nonzero"/></clipPath></defs><g clip-path="url(#346e9b6fd1)"><path fill="#ffffff" d="M 21.839844 36.484375 C 21.644531 36.371094 21.5625 36.289062 21.511719 36.152344 C 21.453125 35.996094 21.460938 35.703125 21.527344 35.511719 C 21.5625 35.40625 21.570312 35.355469 21.550781 35.351562 C 21.503906 35.335938 21.429688 35.242188 21.371094 35.128906 C 21.316406 35.019531 21.3125 35 21.296875 34.238281 C 21.28125 33.335938 21.324219 32.488281 21.421875 31.839844 C 21.597656 30.675781 21.621094 30.453125 21.621094 30.070312 C 21.621094 29.585938 21.566406 28.070312 21.539062 27.738281 C 21.535156 27.679688 21.523438 27.535156 21.515625 27.417969 C 21.503906 27.300781 21.496094 27.164062 21.488281 27.113281 C 21.480469 27.015625 21.4375 26.484375 21.417969 26.21875 C 21.414062 26.136719 21.398438 25.980469 21.382812 25.875 C 21.371094 25.773438 21.34375 25.53125 21.324219 25.34375 C 21.304688 25.152344 21.28125 24.960938 21.277344 24.917969 C 21.269531 24.871094 21.25 24.671875 21.230469 24.476562 C 21.210938 24.28125 21.1875 24.085938 21.183594 24.039062 C 21.171875 23.949219 21.121094 23.476562 21.054688 22.796875 C 21.023438 22.496094 20.925781 21.882812 20.863281 21.585938 C 20.777344 21.207031 20.667969 20.832031 20.625 20.785156 C 20.617188 20.773438 20.601562 21.0625 20.59375 21.425781 C 20.558594 22.8125 20.5 24.628906 20.441406 25.996094 C 20.40625 26.882812 20.394531 29.019531 20.421875 29.339844 C 20.4375 29.5 20.480469 29.984375 20.496094 30.214844 C 20.503906 30.320312 20.53125 30.503906 20.558594 30.628906 C 20.582031 30.753906 20.679688 31.207031 20.769531 31.636719 C 21.027344 32.878906 21.035156 32.996094 20.933594 34.375 C 20.886719 35.007812 20.882812 35.027344 20.824219 35.078125 L 20.769531 35.128906 L 20.828125 35.21875 C 20.910156 35.339844 20.917969 35.386719 20.90625 35.648438 C 20.886719 36.023438 20.785156 36.203125 20.566406 36.234375 C 20.410156 36.261719 20.386719 36.285156 20.355469 36.496094 C 20.320312 36.714844 20.304688 36.761719 20.246094 36.792969 C 20.222656 36.804688 20.050781 36.847656 19.863281 36.890625 C 19.542969 36.960938 19.492188 36.964844 18.929688 36.976562 L 18.339844 36.984375 L 18.238281 36.898438 C 18.125 36.800781 18.066406 36.640625 18.066406 36.417969 C 18.066406 36.296875 18.078125 36.257812 18.1875 36.066406 C 18.421875 35.664062 18.632812 35.21875 18.609375 35.191406 C 18.597656 35.175781 18.503906 35.15625 18.402344 35.152344 C 18.039062 35.128906 17.777344 34.988281 17.75 34.800781 C 17.742188 34.753906 17.71875 34.390625 17.699219 33.996094 C 17.679688 33.597656 17.628906 32.683594 17.59375 31.96875 C 17.554688 31.25 17.5 30.253906 17.472656 29.753906 C 17.421875 28.714844 17.410156 28.582031 17.28125 27.003906 C 17.230469 26.371094 17.175781 25.789062 17.164062 25.710938 C 17.113281 25.425781 16.84375 24.269531 16.738281 23.910156 C 16.625 23.503906 16.441406 22.621094 16.191406 21.253906 C 16.128906 20.910156 16.132812 20.917969 16.042969 20.898438 C 15.921875 20.875 15.84375 20.839844 15.828125 20.800781 C 15.8125 20.757812 15.84375 20.46875 15.898438 20.152344 C 15.914062 20.042969 15.953125 19.808594 15.980469 19.628906 C 16.007812 19.453125 16.035156 19.28125 16.039062 19.25 C 16.046875 19.207031 16.035156 19.171875 16.003906 19.144531 C 15.925781 19.074219 15.75 18.792969 15.5 18.339844 C 15.222656 17.835938 15.226562 17.851562 15.152344 16.832031 C 15.027344 15.21875 14.984375 14.671875 14.960938 14.554688 C 14.914062 14.320312 14.863281 13.4375 14.851562 12.613281 C 14.832031 11.699219 14.820312 11.832031 15.054688 10.269531 C 15.078125 10.09375 15.121094 9.796875 15.148438 9.617188 C 15.332031 8.367188 15.410156 8.019531 15.566406 7.707031 C 15.691406 7.460938 15.832031 7.363281 16.371094 7.164062 C 17.046875 6.910156 18.183594 6.433594 18.328125 6.34375 C 18.382812 6.308594 18.457031 6.222656 18.527344 6.105469 C 18.589844 6.003906 18.738281 5.8125 18.851562 5.683594 C 18.96875 5.554688 19.078125 5.417969 19.097656 5.375 C 19.113281 5.335938 19.132812 5.148438 19.140625 4.964844 L 19.15625 4.625 L 19.0625 4.480469 C 19.007812 4.398438 18.957031 4.296875 18.941406 4.25 C 18.925781 4.1875 18.890625 4.140625 18.816406 4.089844 C 18.691406 4 18.59375 3.878906 18.578125 3.785156 C 18.558594 3.6875 18.519531 3.367188 18.503906 3.179688 C 18.464844 2.738281 18.445312 2.617188 18.414062 2.527344 C 18.339844 2.34375 18.371094 1.480469 18.460938 1.191406 C 18.496094 1.078125 18.535156 1.027344 18.757812 0.804688 C 18.902344 0.664062 19.09375 0.496094 19.191406 0.429688 C 19.339844 0.332031 19.386719 0.3125 19.476562 0.3125 C 19.542969 0.3125 19.628906 0.292969 19.699219 0.253906 C 20.058594 0.0742188 20.339844 0.0078125 20.550781 0.0625 C 20.625 0.0820312 20.742188 0.101562 20.816406 0.109375 C 21.0625 0.140625 21.34375 0.199219 21.414062 0.234375 C 21.507812 0.28125 22.105469 0.867188 22.171875 0.972656 C 22.230469 1.066406 22.230469 1.058594 22.242188 2.128906 L 22.25 2.605469 L 22.320312 2.703125 L 22.386719 2.804688 L 22.359375 3.171875 C 22.316406 3.75 22.296875 3.808594 22.082031 4.09375 C 22.015625 4.183594 21.953125 4.292969 21.945312 4.332031 C 21.933594 4.371094 21.945312 4.496094 21.964844 4.613281 C 21.996094 4.789062 22.023438 4.863281 22.113281 5.015625 C 22.238281 5.226562 22.4375 5.453125 22.621094 5.59375 C 22.773438 5.707031 23.550781 6.050781 23.84375 6.132812 C 23.957031 6.164062 24.148438 6.21875 24.265625 6.25 C 25.554688 6.609375 25.585938 6.621094 25.722656 6.757812 C 25.824219 6.859375 25.839844 6.890625 25.886719 7.089844 C 26.011719 7.628906 26.09375 8.46875 26.21875 10.589844 C 26.3125 12.167969 26.320312 12.355469 26.308594 13.765625 C 26.296875 15.230469 26.292969 15.308594 26.171875 16.085938 C 26.007812 17.121094 25.839844 17.636719 25.511719 18.121094 C 25.449219 18.214844 25.335938 18.386719 25.261719 18.503906 L 25.125 18.71875 L 25.1875 19.332031 C 25.21875 19.671875 25.25 20.070312 25.25 20.21875 L 25.246094 20.484375 L 25.179688 20.484375 C 25.140625 20.484375 25.054688 20.496094 24.992188 20.507812 L 24.878906 20.535156 L 24.882812 20.988281 C 24.890625 21.828125 24.855469 22.589844 24.785156 23.03125 C 24.75 23.253906 24.714844 23.585938 24.699219 23.765625 C 24.671875 24.203125 24.644531 24.496094 24.5625 25.367188 C 24.464844 26.371094 24.445312 26.914062 24.425781 29.195312 C 24.402344 31.800781 24.402344 31.910156 24.429688 33.453125 C 24.445312 34.464844 24.441406 34.78125 24.421875 34.820312 C 24.386719 34.886719 24.253906 34.945312 23.960938 35.023438 C 23.601562 35.125 23.601562 35.164062 23.921875 35.613281 C 24.191406 35.988281 24.320312 36.234375 24.339844 36.410156 C 24.355469 36.558594 24.328125 36.605469 24.128906 36.757812 C 23.925781 36.910156 23.8125 36.953125 23.507812 36.996094 Z M 21.84375 9.070312 C 21.878906 8.914062 21.753906 9.117188 21.941406 8.574219 C 22.128906 8.03125 22.242188 6.519531 22.230469 6.507812 C 22.226562 6.503906 22.125 6.652344 22 6.835938 C 21.875 7.019531 21.75 7.1875 21.71875 7.210938 C 21.664062 7.253906 21.664062 7.253906 21.566406 7.195312 C 21.511719 7.160156 21.382812 7.054688 21.273438 6.957031 L 21.082031 6.785156 L 20.714844 7.191406 L 20.859375 7.402344 C 20.9375 7.515625 21.023438 7.660156 21.050781 7.722656 C 21.074219 7.789062 21.160156 7.976562 21.242188 8.148438 C 21.457031 8.597656 21.65625 9.074219 21.707031 9.246094 C 21.726562 9.328125 21.753906 9.386719 21.765625 9.375 C 21.773438 9.363281 21.808594 9.226562 21.84375 9.070312 Z M 19.890625 8.832031 C 19.890625 8.691406 19.992188 8.199219 20.097656 7.816406 C 20.144531 7.644531 20.195312 7.4375 20.210938 7.351562 C 20.242188 7.199219 20.242188 7.199219 20.171875 7.097656 C 20.132812 7.042969 20.089844 6.964844 20.078125 6.925781 C 20.0625 6.886719 20.042969 6.855469 20.035156 6.855469 C 20.027344 6.855469 19.898438 6.988281 19.75 7.152344 C 19.585938 7.335938 19.46875 7.445312 19.445312 7.441406 C 19.421875 7.4375 19.378906 7.378906 19.34375 7.308594 C 19.269531 7.15625 19.226562 7.109375 19.226562 7.175781 C 19.226562 7.285156 19.632812 8.492188 19.785156 8.839844 C 19.851562 8.988281 19.890625 8.984375 19.890625 8.832031 Z M 20.050781 6.699219 C 20.171875 6.558594 20.277344 6.414062 20.285156 6.382812 C 20.296875 6.335938 20.226562 6.257812 19.746094 5.777344 C 19.265625 5.296875 19.1875 5.226562 19.175781 5.234375 C 19.167969 5.238281 19.152344 5.285156 19.144531 5.339844 C 19.132812 5.40625 19.09375 5.476562 19.011719 5.570312 C 18.878906 5.726562 18.878906 5.671875 19.015625 6.191406 C 19.0625 6.378906 19.117188 6.597656 19.132812 6.675781 C 19.148438 6.753906 19.21875 6.945312 19.292969 7.101562 L 19.429688 7.382812 L 19.628906 7.171875 C 19.742188 7.054688 19.933594 6.84375 20.050781 6.699219 Z M 21.921875 6.855469 C 22.238281 6.402344 22.25 6.367188 22.296875 5.941406 C 22.347656 5.429688 22.351562 5.441406 22.226562 5.289062 C 22.167969 5.21875 22.109375 5.160156 22.09375 5.160156 C 22.082031 5.160156 21.828125 5.390625 21.53125 5.671875 C 21.234375 5.953125 20.949219 6.222656 20.898438 6.269531 C 20.808594 6.351562 20.804688 6.355469 20.839844 6.417969 C 20.878906 6.492188 21.359375 6.972656 21.527344 7.101562 C 21.585938 7.148438 21.648438 7.183594 21.667969 7.179688 C 21.683594 7.179688 21.800781 7.03125 21.921875 6.855469 Z M 32.929688 35.425781 C 32.671875 35.394531 32.171875 35.292969 32.125 35.261719 C 32.09375 35.242188 32.046875 35.175781 32.023438 35.117188 C 31.980469 35.015625 31.976562 34.996094 32.003906 34.875 C 32.03125 34.746094 32.050781 34.726562 32.488281 34.28125 C 32.9375 33.820312 33.160156 33.542969 33.273438 33.300781 C 33.324219 33.195312 33.332031 33.140625 33.332031 32.914062 C 33.332031 32.730469 33.320312 32.644531 33.300781 32.625 C 33.285156 32.613281 33.191406 32.601562 33.09375 32.597656 C 32.996094 32.597656 32.910156 32.585938 32.902344 32.578125 C 32.875 32.550781 32.785156 31.667969 32.753906 31.074219 C 32.734375 30.765625 32.714844 30.507812 32.707031 30.496094 C 32.695312 30.476562 32.652344 29.957031 32.5625 28.792969 C 32.542969 28.53125 32.484375 28.070312 32.433594 27.761719 C 32.382812 27.457031 32.328125 27.097656 32.3125 26.96875 C 32.261719 26.5 32.234375 26.386719 31.941406 25.484375 C 31.621094 24.496094 31.128906 23.042969 31.101562 23.011719 C 31.09375 23.003906 31.078125 23.207031 31.070312 23.464844 C 31.0625 23.722656 31.042969 24.035156 31.03125 24.160156 C 31.019531 24.28125 30.996094 24.507812 30.984375 24.65625 C 30.972656 24.804688 30.933594 25.21875 30.898438 25.570312 C 30.867188 25.921875 30.828125 26.488281 30.820312 26.824219 C 30.773438 28.265625 30.746094 29.132812 30.722656 30.027344 C 30.707031 30.550781 30.6875 31.019531 30.675781 31.070312 C 30.664062 31.121094 30.636719 31.171875 30.617188 31.1875 C 30.492188 31.261719 30.480469 31.28125 30.402344 31.660156 C 30.359375 31.871094 30.320312 32.074219 30.320312 32.113281 C 30.320312 32.203125 30.273438 32.246094 30.109375 32.3125 C 30.035156 32.339844 29.917969 32.390625 29.847656 32.425781 C 29.722656 32.488281 29.703125 32.492188 29.3125 32.492188 C 29.035156 32.492188 28.878906 32.480469 28.8125 32.457031 C 28.722656 32.425781 28.707031 32.429688 28.585938 32.484375 C 28.515625 32.515625 28.363281 32.613281 28.246094 32.703125 C 27.875 32.980469 27.832031 32.992188 27.0625 33.082031 C 26.515625 33.148438 26.386719 33.140625 26.082031 33.03125 C 25.949219 32.984375 25.867188 32.847656 25.859375 32.65625 C 25.851562 32.523438 25.855469 32.519531 25.949219 32.4375 C 26.039062 32.359375 26.738281 32.003906 27.222656 31.792969 C 27.347656 31.738281 27.480469 31.671875 27.511719 31.644531 C 27.542969 31.617188 27.644531 31.496094 27.730469 31.367188 C 27.816406 31.242188 27.925781 31.089844 27.972656 31.035156 C 28.019531 30.976562 28.054688 30.910156 28.050781 30.890625 C 28.046875 30.867188 28.066406 30.757812 28.09375 30.640625 C 28.324219 29.652344 28.402344 29.300781 28.433594 29.078125 C 28.480469 28.742188 28.628906 27.539062 28.648438 27.324219 C 28.667969 27.136719 28.609375 26.171875 28.558594 25.804688 C 28.539062 25.675781 28.476562 25.21875 28.414062 24.785156 C 28.355469 24.355469 28.261719 23.695312 28.210938 23.316406 C 28.070312 22.296875 27.851562 21.035156 27.691406 20.285156 L 27.550781 19.621094 L 27.5 18.835938 C 27.449219 18.042969 27.425781 17.0625 27.457031 16.949219 C 27.476562 16.890625 27.464844 16.875 27.316406 16.769531 C 27.0625 16.585938 26.789062 16.1875 26.679688 15.851562 L 26.617188 15.660156 L 26.59375 14.214844 C 26.5625 12.09375 26.609375 11.007812 26.789062 9.710938 C 26.980469 8.371094 27.019531 8.214844 27.199219 8.046875 C 27.332031 7.925781 27.488281 7.820312 28.054688 7.480469 C 28.574219 7.167969 28.742188 7.03125 29.027344 6.683594 C 29.210938 6.453125 29.253906 6.359375 29.253906 6.152344 C 29.253906 6.015625 29.214844 5.914062 29.09375 5.753906 C 28.988281 5.613281 28.867188 5.371094 28.835938 5.246094 C 28.828125 5.210938 28.8125 5.171875 28.804688 5.160156 C 28.75 5.09375 28.679688 4.742188 28.617188 4.238281 C 28.574219 3.921875 28.527344 3.5625 28.507812 3.429688 C 28.453125 3.085938 28.457031 2.78125 28.515625 2.585938 C 28.601562 2.324219 28.863281 2.015625 29.164062 1.835938 C 29.378906 1.707031 29.515625 1.683594 30.074219 1.671875 L 30.578125 1.660156 L 30.773438 1.746094 C 31.246094 1.953125 31.296875 1.980469 31.4375 2.132812 C 31.742188 2.460938 31.808594 2.613281 31.839844 3.105469 C 31.855469 3.359375 31.871094 3.457031 31.898438 3.484375 C 31.929688 3.511719 31.933594 3.570312 31.925781 3.796875 C 31.914062 4.128906 31.863281 4.328125 31.695312 4.667969 L 31.578125 4.914062 L 31.578125 5.40625 L 31.832031 5.675781 C 31.972656 5.824219 32.15625 6.03125 32.242188 6.132812 L 32.394531 6.320312 L 33.03125 6.515625 C 34.03125 6.820312 34.160156 6.867188 34.453125 7.007812 C 34.6875 7.125 34.742188 7.160156 34.820312 7.265625 C 34.871094 7.332031 34.933594 7.425781 34.953125 7.472656 C 35.007812 7.589844 35.242188 8.816406 35.296875 9.261719 C 35.4375 10.390625 35.542969 11.410156 35.550781 11.691406 C 35.554688 11.867188 35.570312 12.089844 35.585938 12.183594 C 35.613281 12.363281 35.617188 12.75 35.597656 12.824219 C 35.589844 12.84375 35.5625 13.035156 35.535156 13.242188 C 35.507812 13.445312 35.46875 13.648438 35.449219 13.691406 C 35.359375 13.859375 34.539062 15.078125 34.375 15.28125 L 34.296875 15.375 L 34.3125 15.613281 C 34.320312 15.746094 34.386719 16.261719 34.457031 16.761719 C 34.574219 17.558594 34.59375 17.75 34.613281 18.246094 C 34.625 18.558594 34.660156 19.015625 34.691406 19.261719 L 34.746094 19.710938 L 34.652344 19.746094 C 34.550781 19.785156 34.535156 19.824219 34.492188 20.175781 C 34.445312 20.59375 34.476562 20.984375 34.585938 21.316406 C 34.613281 21.386719 34.648438 21.542969 34.667969 21.660156 C 34.777344 22.335938 35.027344 23.78125 35.097656 24.160156 C 35.140625 24.398438 35.214844 24.828125 35.261719 25.105469 C 35.304688 25.386719 35.375 25.722656 35.414062 25.855469 C 35.585938 26.433594 35.582031 26.410156 35.582031 27.21875 C 35.582031 27.628906 35.570312 28.449219 35.558594 29.042969 C 35.546875 29.636719 35.535156 30.679688 35.535156 31.363281 L 35.53125 32.609375 L 35.605469 32.835938 C 35.660156 33.007812 35.683594 33.136719 35.707031 33.402344 C 35.71875 33.59375 35.726562 33.796875 35.714844 33.859375 C 35.695312 34 35.59375 34.136719 35.4375 34.242188 C 35.367188 34.289062 35.285156 34.34375 35.257812 34.363281 C 35.230469 34.386719 35.164062 34.40625 35.109375 34.40625 C 35.019531 34.414062 35.003906 34.425781 34.863281 34.605469 C 34.679688 34.835938 34.492188 35.023438 34.363281 35.097656 C 34.257812 35.160156 33.9375 35.269531 33.59375 35.359375 C 33.371094 35.417969 33.085938 35.445312 32.929688 35.425781 Z M 12.308594 34.40625 C 12.273438 34.402344 12.09375 34.375 11.902344 34.351562 C 11.597656 34.308594 11.539062 34.292969 11.359375 34.203125 C 11.25 34.148438 11.054688 34.027344 10.921875 33.929688 C 10.621094 33.707031 10.625 33.710938 10.265625 33.605469 C 9.902344 33.503906 9.734375 33.429688 9.640625 33.332031 C 9.574219 33.261719 9.570312 33.246094 9.5625 33.023438 C 9.550781 32.773438 9.589844 32.582031 9.679688 32.441406 C 9.703125 32.398438 9.722656 32.359375 9.722656 32.351562 C 9.722656 32.34375 9.679688 32.328125 9.625 32.320312 C 9.480469 32.296875 9.464844 32.273438 9.492188 32.09375 C 9.519531 31.90625 9.496094 31.660156 9.433594 31.449219 C 9.386719 31.292969 9.386719 31.253906 9.398438 30.476562 C 9.410156 29.894531 9.40625 29.433594 9.378906 28.828125 C 9.34375 28.011719 9.324219 24.847656 9.355469 24.800781 C 9.363281 24.789062 9.355469 24.328125 9.34375 23.777344 C 9.324219 23.003906 9.304688 22.652344 9.257812 22.25 C 9.226562 21.960938 9.195312 21.667969 9.1875 21.601562 C 9.183594 21.53125 9.128906 21.28125 9.070312 21.042969 C 9.011719 20.808594 8.964844 20.597656 8.964844 20.574219 C 8.964844 20.554688 8.953125 20.527344 8.941406 20.523438 C 8.929688 20.515625 8.925781 20.546875 8.933594 20.597656 C 8.941406 20.644531 8.921875 20.808594 8.894531 20.957031 C 8.792969 21.515625 8.773438 21.613281 8.75 21.765625 C 8.738281 21.847656 8.71875 21.976562 8.707031 22.050781 C 8.675781 22.226562 8.453125 23.085938 8.238281 23.863281 C 8.140625 24.214844 8.042969 24.5625 8.023438 24.632812 C 8.007812 24.703125 7.875 25.191406 7.734375 25.710938 C 7.382812 27.003906 7.351562 27.117188 7.328125 27.238281 C 7.199219 27.960938 7.132812 28.398438 7.101562 28.738281 C 7.082031 28.964844 7.050781 29.28125 7.035156 29.445312 C 7.015625 29.609375 7 30.027344 7 30.378906 C 7 30.734375 6.992188 31.320312 6.980469 31.683594 C 6.96875 32.292969 6.960938 32.351562 6.921875 32.378906 C 6.882812 32.40625 6.878906 32.445312 6.878906 32.730469 C 6.878906 32.925781 6.867188 33.070312 6.851562 33.101562 C 6.835938 33.128906 6.78125 33.195312 6.726562 33.25 C 6.671875 33.300781 6.550781 33.429688 6.457031 33.539062 L 6.285156 33.730469 L 6.15625 33.726562 C 6.035156 33.722656 6.027344 33.726562 5.882812 33.859375 C 5.652344 34.074219 5.421875 34.226562 5.285156 34.253906 C 5.144531 34.285156 4.84375 34.273438 4.472656 34.21875 C 4.34375 34.203125 4.175781 34.179688 4.101562 34.175781 C 3.882812 34.15625 3.8125 34.117188 3.75 33.96875 C 3.707031 33.871094 3.699219 33.816406 3.710938 33.71875 C 3.726562 33.570312 3.765625 33.492188 3.9375 33.273438 C 4.011719 33.183594 4.117188 33.050781 4.175781 32.976562 C 4.234375 32.902344 4.371094 32.734375 4.480469 32.605469 C 4.671875 32.378906 4.832031 32.121094 4.804688 32.078125 C 4.796875 32.066406 4.734375 32.042969 4.660156 32.027344 C 4.589844 32.007812 4.527344 31.992188 4.523438 31.984375 C 4.519531 31.976562 4.527344 31.835938 4.546875 31.671875 C 4.585938 31.292969 4.597656 29.429688 4.558594 28.816406 C 4.546875 28.570312 4.527344 27.980469 4.519531 27.511719 C 4.503906 26.617188 4.5 26.675781 4.628906 25.425781 C 4.730469 24.425781 4.757812 23.96875 4.78125 22.9375 C 4.792969 22.34375 4.828125 21.507812 4.851562 21.203125 L 4.863281 21.054688 L 4.785156 21.023438 C 4.742188 21.003906 4.621094 20.921875 4.511719 20.839844 C 4.277344 20.660156 4.191406 20.519531 4.152344 20.242188 C 4.121094 20.050781 4.117188 19.480469 4.140625 19.144531 L 4.15625 18.925781 L 4.0625 18.910156 C 4.007812 18.902344 3.925781 18.878906 3.878906 18.855469 L 3.796875 18.816406 L 3.796875 17.558594 C 3.796875 16.867188 3.789062 15.671875 3.78125 14.902344 C 3.765625 13.550781 3.789062 12.269531 3.84375 11.464844 C 3.855469 11.285156 3.875 11 3.878906 10.835938 C 3.90625 10.21875 3.945312 9.769531 4 9.332031 C 4.035156 9.085938 4.082031 8.710938 4.105469 8.503906 C 4.179688 7.914062 4.222656 7.640625 4.246094 7.589844 C 4.292969 7.503906 4.625 7.308594 5.574219 6.808594 C 6.300781 6.429688 6.507812 6.308594 6.949219 6.03125 C 7.570312 5.636719 7.628906 5.601562 7.667969 5.558594 C 7.6875 5.535156 7.714844 5.414062 7.734375 5.285156 C 7.757812 5.09375 7.757812 5.035156 7.734375 4.964844 C 7.6875 4.839844 7.617188 4.746094 7.570312 4.746094 C 7.546875 4.746094 7.476562 4.679688 7.410156 4.597656 C 7.316406 4.476562 7.285156 4.40625 7.230469 4.210938 C 7.140625 3.902344 7.113281 3.566406 7.175781 3.476562 C 7.222656 3.402344 7.226562 3.375 7.253906 2.71875 C 7.285156 2.078125 7.324219 1.941406 7.550781 1.660156 C 7.675781 1.507812 7.921875 1.316406 8.011719 1.296875 C 8.046875 1.289062 8.175781 1.242188 8.300781 1.199219 L 8.527344 1.113281 L 8.917969 1.128906 C 9.621094 1.152344 9.851562 1.238281 10.246094 1.640625 C 10.574219 1.96875 10.632812 2.085938 10.636719 2.386719 C 10.636719 2.503906 10.621094 2.746094 10.605469 2.921875 C 10.574219 3.238281 10.574219 3.242188 10.625 3.332031 C 10.675781 3.417969 10.675781 3.4375 10.660156 3.757812 C 10.636719 4.285156 10.550781 4.582031 10.421875 4.582031 C 10.359375 4.582031 10.335938 4.636719 10.292969 4.886719 C 10.25 5.179688 10.238281 5.445312 10.265625 5.535156 C 10.296875 5.628906 10.46875 5.796875 10.753906 6.015625 C 10.90625 6.128906 10.996094 6.167969 11.808594 6.472656 C 12.296875 6.65625 12.90625 6.898438 13.160156 7.015625 C 13.546875 7.191406 13.628906 7.238281 13.664062 7.300781 C 13.722656 7.398438 14.027344 8.464844 14.046875 8.632812 C 14.0625 8.761719 14.109375 9.105469 14.15625 9.425781 C 14.167969 9.519531 14.1875 9.636719 14.191406 9.6875 C 14.199219 9.742188 14.21875 9.894531 14.238281 10.03125 C 14.257812 10.167969 14.285156 10.355469 14.296875 10.445312 C 14.363281 10.898438 14.429688 12.300781 14.476562 14.015625 C 14.496094 14.777344 14.523438 15.773438 14.535156 16.230469 C 14.546875 16.6875 14.566406 17.457031 14.574219 17.941406 L 14.589844 18.824219 L 14.519531 18.851562 C 14.484375 18.867188 14.390625 18.871094 14.3125 18.867188 C 14.207031 18.859375 14.171875 18.867188 14.15625 18.894531 C 14.148438 18.914062 14.132812 19.054688 14.121094 19.199219 C 14.113281 19.378906 14.089844 19.507812 14.058594 19.589844 C 14.03125 19.660156 13.992188 19.820312 13.96875 19.953125 C 13.886719 20.386719 13.878906 20.402344 13.679688 20.648438 C 13.429688 20.957031 13.359375 21.023438 13.03125 21.230469 C 12.875 21.332031 12.738281 21.421875 12.726562 21.429688 C 12.714844 21.441406 12.722656 21.75 12.738281 22.117188 C 12.773438 22.9375 12.730469 25.148438 12.671875 25.601562 C 12.652344 25.753906 12.621094 26.003906 12.601562 26.160156 C 12.546875 26.597656 12.5 26.894531 12.449219 27.179688 C 12.421875 27.324219 12.386719 27.542969 12.367188 27.667969 C 12.347656 27.789062 12.3125 27.976562 12.292969 28.082031 C 12.277344 28.1875 12.25 28.367188 12.238281 28.484375 C 12.210938 28.71875 12.160156 29.160156 12.105469 29.585938 C 12.0625 29.90625 12.027344 30.578125 12.003906 31.445312 L 11.988281 32.058594 L 11.875 32.089844 C 11.75 32.128906 11.75 32.128906 11.789062 32.203125 C 11.910156 32.433594 12.375 32.839844 12.992188 33.261719 C 13.320312 33.488281 13.527344 33.652344 13.59375 33.738281 C 13.625 33.777344 13.644531 33.855469 13.652344 33.933594 C 13.664062 34.058594 13.660156 34.070312 13.589844 34.136719 C 13.5 34.21875 13.183594 34.34375 12.972656 34.378906 C 12.796875 34.40625 12.398438 34.425781 12.308594 34.40625 Z M 12.308594 34.40625 " fill-opacity="1" fill-rule="nonzero"/></g><path fill="#fa6e85" d="M 26.390625 14.304688 L 24.824219 15.4375 C 25.460938 17.128906 23.746094 17.738281 22.792969 16.855469 L 18.707031 20.042969 C 18.03125 20.570312 17.449219 21.125 17.449219 21.976562 L 17.449219 31.800781 L 7.632812 31.800781 L 7.632812 24.742188 C 9.644531 22.082031 10.347656 19.898438 13.5 18.46875 L 26.34375 12.644531 C 26.609375 12.523438 26.976562 13.882812 26.390625 14.304688 Z M 26.390625 14.304688 " fill-opacity="1" fill-rule="evenodd"/><path fill="#f0b16e" d="M 14.5625 13.207031 C 16.074219 13.207031 17.296875 14.417969 17.296875 15.914062 C 17.296875 17.40625 16.074219 18.617188 14.5625 18.617188 C 13.054688 18.617188 11.832031 17.40625 11.832031 15.914062 C 11.832031 14.417969 13.054688 13.207031 14.5625 13.207031 Z M 14.5625 13.207031 " fill-opacity="1" fill-rule="evenodd"/><path fill="#60b7fe" d="M 7.632812 22.332031 C 10.261719 22.332031 12.414062 24.460938 12.414062 27.066406 L 12.414062 31.800781 L 2.851562 31.800781 L 2.851562 27.066406 C 2.851562 24.460938 5 22.332031 7.632812 22.332031 Z M 7.632812 22.332031 " fill-opacity="1" fill-rule="evenodd"/><g clip-path="url(#b25a571ea2)"><path fill="#19cfba" d="M 30.183594 25.378906 C 30.332031 25.085938 30.691406 24.96875 30.988281 25.117188 C 31.285156 25.265625 31.402344 25.621094 31.253906 25.914062 C 30.964844 26.484375 30.660156 27.003906 30.300781 27.542969 C 30.117188 27.816406 29.746094 27.894531 29.472656 27.714844 C 29.195312 27.535156 29.117188 27.167969 29.300781 26.894531 C 29.613281 26.421875 29.921875 25.894531 30.183594 25.378906 Z M 15.753906 3.648438 C 15.421875 3.667969 15.140625 3.417969 15.121094 3.089844 C 15.101562 2.761719 15.355469 2.480469 15.6875 2.464844 C 16.355469 2.425781 16.917969 2.425781 17.585938 2.464844 C 17.917969 2.480469 18.171875 2.761719 18.152344 3.089844 C 18.132812 3.417969 17.851562 3.667969 17.519531 3.648438 C 16.925781 3.617188 16.347656 3.617188 15.753906 3.648438 Z M 8.171875 6.128906 C 7.898438 6.308594 7.523438 6.230469 7.34375 5.957031 C 7.164062 5.683594 7.238281 5.316406 7.515625 5.136719 C 8.0625 4.78125 8.585938 4.480469 9.160156 4.191406 C 9.457031 4.042969 9.816406 4.164062 9.964844 4.457031 C 10.117188 4.75 9.996094 5.105469 9.699219 5.253906 C 9.183594 5.511719 8.648438 5.820312 8.171875 6.128906 Z M 5.125 8.734375 C 4.90625 8.980469 4.527344 9 4.277344 8.785156 C 4.03125 8.566406 4.007812 8.1875 4.230469 7.945312 C 4.65625 7.46875 5.09375 7.035156 5.574219 6.609375 C 5.824219 6.394531 6.203125 6.414062 6.421875 6.660156 C 6.644531 6.90625 6.621094 7.28125 6.375 7.5 C 5.949219 7.875 5.503906 8.3125 5.125 8.734375 Z M 2.859375 12.03125 C 2.710938 12.324219 2.347656 12.441406 2.050781 12.292969 C 1.757812 12.144531 1.636719 11.789062 1.785156 11.496094 C 2.078125 10.925781 2.378906 10.40625 2.742188 9.867188 C 2.921875 9.59375 3.292969 9.515625 3.570312 9.695312 C 3.847656 9.875 3.921875 10.242188 3.742188 10.515625 C 3.429688 10.988281 3.121094 11.515625 2.859375 12.03125 Z M 1.53125 15.792969 C 1.464844 16.113281 1.148438 16.320312 0.824219 16.257812 C 0.5 16.191406 0.292969 15.878906 0.359375 15.554688 C 0.488281 14.925781 0.652344 14.328125 0.847656 13.734375 C 0.953125 13.421875 1.292969 13.253906 1.605469 13.355469 C 1.921875 13.457031 2.09375 13.796875 1.988281 14.105469 C 1.804688 14.660156 1.648438 15.238281 1.53125 15.792969 Z M 1.238281 19.773438 C 1.257812 20.101562 1.003906 20.382812 0.671875 20.398438 C 0.34375 20.417969 0.0585938 20.167969 0.0429688 19.839844 C 0.00390625 19.167969 0.00390625 18.628906 0.0429688 17.957031 C 0.0585938 17.632812 0.34375 17.378906 0.671875 17.398438 C 1.003906 17.417969 1.257812 17.695312 1.238281 18.023438 C 1.207031 18.578125 1.207031 19.21875 1.238281 19.773438 Z M 1.988281 23.691406 C 2.09375 24.003906 1.921875 24.339844 1.605469 24.441406 C 1.292969 24.546875 0.953125 24.375 0.847656 24.0625 C 0.652344 23.46875 0.488281 22.875 0.359375 22.242188 C 0.292969 21.921875 0.5 21.605469 0.824219 21.542969 C 1.148438 21.476562 1.464844 21.683594 1.53125 22.003906 C 1.644531 22.554688 1.808594 23.144531 1.988281 23.691406 Z M 20.070312 3.859375 C 19.746094 3.78125 19.550781 3.457031 19.632812 3.140625 C 19.710938 2.820312 20.039062 2.625 20.359375 2.707031 C 21.210938 2.917969 22.039062 3.179688 22.84375 3.496094 L 22.359375 2.675781 C 22.191406 2.394531 22.285156 2.03125 22.570312 1.863281 C 22.855469 1.699219 23.222656 1.792969 23.390625 2.074219 L 24.816406 4.480469 C 25.070312 4.875 24.832031 5.324219 24.433594 5.398438 L 21.628906 5.9375 C 21.304688 6 20.988281 5.789062 20.925781 5.464844 C 20.863281 5.140625 21.078125 4.832031 21.402344 4.769531 L 22.363281 4.585938 C 21.621094 4.296875 20.863281 4.058594 20.070312 3.859375 Z M 11.796875 4.394531 C 11.484375 4.496094 11.144531 4.328125 11.039062 4.015625 C 10.933594 3.703125 11.105469 3.367188 11.421875 3.261719 C 12.023438 3.066406 12.625 2.90625 13.261719 2.777344 C 13.585938 2.710938 13.902344 2.917969 13.96875 3.238281 C 14.035156 3.5625 13.824219 3.875 13.5 3.941406 C 12.945312 4.054688 12.347656 4.214844 11.796875 4.394531 Z M 32.410156 23.695312 C 32.285156 24 31.9375 24.152344 31.628906 24.03125 C 31.320312 23.910156 31.167969 23.566406 31.289062 23.257812 C 31.589844 22.503906 31.835938 21.753906 32.03125 20.988281 L 31.320312 21.652344 C 31.082031 21.878906 30.703125 21.867188 30.476562 21.628906 C 30.246094 21.394531 30.257812 21.019531 30.5 20.792969 L 32.535156 18.882812 C 32.867188 18.546875 33.378906 18.648438 33.550781 19.082031 L 34.691406 21.625 C 34.824219 21.925781 34.6875 22.273438 34.386719 22.40625 C 34.082031 22.539062 33.730469 22.402344 33.597656 22.105469 L 33.207031 21.234375 C 32.996094 22.070312 32.730469 22.890625 32.410156 23.695312 Z M 13.269531 33.46875 C 13.59375 33.535156 13.800781 33.847656 13.734375 34.171875 C 13.667969 34.492188 13.351562 34.699219 13.027344 34.632812 C 12.390625 34.503906 11.789062 34.34375 11.191406 34.148438 C 10.875 34.042969 10.703125 33.707031 10.808594 33.394531 C 10.910156 33.082031 11.25 32.914062 11.566406 33.015625 C 12.125 33.199219 12.707031 33.355469 13.269531 33.46875 Z M 17.289062 33.761719 C 17.617188 33.742188 17.902344 33.992188 17.917969 34.320312 C 17.9375 34.648438 17.683594 34.929688 17.351562 34.945312 C 16.675781 34.984375 16.132812 34.984375 15.453125 34.945312 C 15.125 34.929688 14.871094 34.648438 14.886719 34.320312 C 14.90625 33.992188 15.1875 33.742188 15.519531 33.761719 C 16.078125 33.789062 16.726562 33.792969 17.289062 33.761719 Z M 21.242188 33.015625 C 21.558594 32.914062 21.898438 33.082031 22 33.394531 C 22.105469 33.707031 21.933594 34.042969 21.617188 34.148438 C 21.019531 34.34375 20.417969 34.503906 19.777344 34.632812 C 19.453125 34.699219 19.136719 34.492188 19.074219 34.171875 C 19.007812 33.847656 19.214844 33.535156 19.539062 33.46875 C 20.09375 33.359375 20.691406 33.195312 21.242188 33.015625 Z M 24.867188 31.28125 C 25.144531 31.101562 25.515625 31.179688 25.695312 31.453125 C 25.878906 31.726562 25.800781 32.09375 25.523438 32.273438 C 24.976562 32.628906 24.457031 32.929688 23.878906 33.21875 C 23.585938 33.367188 23.222656 33.246094 23.074219 32.953125 C 22.925781 32.660156 23.042969 32.304688 23.339844 32.15625 C 23.855469 31.898438 24.394531 31.589844 24.867188 31.28125 Z M 27.914062 28.675781 C 28.132812 28.429688 28.515625 28.410156 28.761719 28.625 C 29.007812 28.84375 29.03125 29.222656 28.8125 29.464844 C 28.382812 29.941406 27.945312 30.375 27.464844 30.800781 C 27.21875 31.015625 26.839844 30.996094 26.617188 30.75 C 26.398438 30.503906 26.417969 30.128906 26.667969 29.910156 C 27.09375 29.535156 27.535156 29.097656 27.914062 28.675781 Z M 27.914062 28.675781 " fill-opacity="1" fill-rule="evenodd"/></g><path fill="#ffbf31" d="M 32.714844 6.015625 L 33.460938 8.308594 C 33.527344 8.507812 33.707031 8.636719 33.917969 8.636719 L 36.351562 8.632812 C 36.816406 8.632812 37.011719 9.226562 36.636719 9.496094 L 34.664062 10.90625 C 34.492188 11.03125 34.421875 11.242188 34.488281 11.441406 L 35.246094 13.730469 C 35.390625 14.167969 34.878906 14.535156 34.503906 14.265625 L 32.539062 12.84375 C 32.367188 12.722656 32.144531 12.722656 31.972656 12.84375 L 30.007812 14.265625 C 29.632812 14.535156 29.121094 14.167969 29.265625 13.730469 L 30.023438 11.441406 C 30.085938 11.242188 30.019531 11.03125 29.847656 10.90625 L 27.875 9.496094 C 27.496094 9.222656 27.691406 8.632812 28.160156 8.632812 L 30.589844 8.636719 C 30.804688 8.636719 30.984375 8.507812 31.050781 8.308594 L 31.796875 6.015625 C 31.941406 5.574219 32.570312 5.574219 32.714844 6.015625 Z M 32.714844 6.015625 " fill-opacity="1" fill-rule="evenodd"/><path fill="#f0b16e" d="M 7.632812 17.886719 C 9.140625 17.886719 10.363281 19.101562 10.363281 20.59375 C 10.363281 22.089844 9.140625 23.300781 7.632812 23.300781 C 6.121094 23.300781 4.898438 22.089844 4.898438 20.59375 C 4.898438 19.101562 6.121094 17.886719 7.632812 17.886719 Z M 7.632812 17.886719 " fill-opacity="1" fill-rule="evenodd"/></svg>