<svg xmlns="http://www.w3.org/2000/svg" xmlns:xlink="http://www.w3.org/1999/xlink" width="50" zoomAndPan="magnify" viewBox="0 0 37.5 37.499999" height="50" preserveAspectRatio="xMidYMid meet" version="1.0"><defs><clipPath id="59a38dfe55"><path d="M 1 0.230469 L 25 0.230469 L 25 18 L 1 18 Z M 1 0.230469 " clip-rule="nonzero"/></clipPath><clipPath id="ce10828eae"><path d="M 12.796875 19.519531 L 36.175781 19.519531 L 36.175781 36.492188 L 12.796875 36.492188 Z M 12.796875 19.519531 " clip-rule="nonzero"/></clipPath><clipPath id="53fc8948fe"><path d="M 19.902344 1.058594 L 37.007812 1.058594 L 37.007812 24.257812 L 19.902344 24.257812 Z M 19.902344 1.058594 " clip-rule="nonzero"/></clipPath></defs><g clip-path="url(#59a38dfe55)"><path fill="#0068a6" d="M 4.484375 0.347656 L 4.484375 5.996094 C 3.628906 6.109375 2.730469 5.839844 2.074219 5.1875 C 0.953125 4.074219 0.953125 2.269531 2.074219 1.15625 C 2.730469 0.503906 3.628906 0.234375 4.484375 0.347656 Z M 3.183594 6.949219 L 3.226562 6.910156 C 3.632812 7.058594 4.058594 7.132812 4.484375 7.132812 L 4.484375 13.976562 L 3.183594 12.6875 C 1.597656 11.109375 1.597656 8.527344 3.183594 6.949219 Z M 4.484375 5.996094 C 5.089844 5.917969 5.671875 5.648438 6.136719 5.1875 C 7.257812 4.074219 7.257812 2.269531 6.136719 1.15625 C 5.671875 0.695312 5.089844 0.425781 4.484375 0.347656 Z M 4.484375 7.132812 C 5.410156 7.136719 6.335938 6.785156 7.042969 6.085938 C 8.074219 5.0625 8.347656 3.574219 7.871094 2.300781 L 7.914062 2.257812 C 9.503906 0.679688 12.105469 0.679688 13.691406 2.257812 L 24.582031 13.066406 L 20.320312 17.296875 L 13.234375 10.265625 L 6.988281 16.460938 L 4.484375 13.976562 L 4.484375 7.132812 " fill-opacity="1" fill-rule="evenodd"/></g><g clip-path="url(#ce10828eae)"><path fill="#03b5a5" d="M 32.90625 30.820312 C 32.304688 30.898438 31.722656 31.167969 31.257812 31.628906 C 30.136719 32.742188 30.136719 34.546875 31.257812 35.660156 C 31.722656 36.121094 32.304688 36.390625 32.90625 36.46875 Z M 32.90625 29.679688 C 31.984375 29.679688 31.058594 30.03125 30.351562 30.730469 C 29.320312 31.753906 29.042969 33.242188 29.523438 34.515625 L 29.480469 34.554688 C 27.890625 36.132812 25.289062 36.132812 23.699219 34.554688 L 12.808594 23.75 L 17.074219 19.519531 L 24.160156 26.550781 L 30.402344 20.351562 L 32.90625 22.839844 Z M 32.90625 36.46875 L 32.90625 30.820312 C 33.765625 30.707031 34.660156 30.976562 35.320312 31.628906 C 36.441406 32.742188 36.441406 34.546875 35.320312 35.660156 C 34.660156 36.3125 33.765625 36.582031 32.90625 36.46875 Z M 34.207031 29.863281 L 34.164062 29.90625 C 33.761719 29.757812 33.335938 29.683594 32.90625 29.679688 L 32.90625 22.839844 L 34.207031 24.128906 C 35.796875 25.707031 35.796875 28.285156 34.207031 29.863281 " fill-opacity="1" fill-rule="evenodd"/></g><path fill="#bf1c2d" d="M 3.53125 30.320312 L 3.53125 35.972656 C 2.675781 36.082031 1.78125 35.8125 1.121094 35.160156 C 0 34.050781 0 32.242188 1.121094 31.132812 C 1.78125 30.476562 2.675781 30.207031 3.53125 30.320312 Z M 3.53125 29.183594 C 3.105469 29.183594 2.679688 29.257812 2.273438 29.410156 L 2.234375 29.367188 C 0.644531 27.789062 0.644531 25.207031 2.234375 23.632812 L 3.53125 22.339844 Z M 3.53125 35.972656 C 4.136719 35.890625 4.71875 35.621094 5.183594 35.160156 C 6.304688 34.050781 6.304688 32.242188 5.183594 31.132812 C 4.71875 30.671875 4.136719 30.402344 3.53125 30.320312 Z M 6.960938 34.058594 L 6.917969 34.015625 C 7.398438 32.746094 7.121094 31.253906 6.089844 30.234375 C 5.382812 29.53125 4.457031 29.183594 3.53125 29.183594 L 3.53125 22.339844 L 13.121094 12.824219 L 17.386719 17.054688 L 10.300781 24.085938 L 16.546875 30.285156 L 12.742188 34.058594 C 11.152344 35.636719 8.550781 35.636719 6.960938 34.058594 " fill-opacity="1" fill-rule="evenodd"/><g clip-path="url(#53fc8948fe)"><path fill="#fe8000" d="M 33.757812 1.097656 C 33.152344 1.179688 32.570312 1.449219 32.105469 1.910156 C 30.984375 3.019531 30.984375 4.824219 32.105469 5.9375 C 32.570312 6.398438 33.152344 6.667969 33.757812 6.75 Z M 30.328125 3.011719 L 30.371094 3.054688 C 29.890625 4.324219 30.167969 5.8125 31.199219 6.835938 C 31.90625 7.539062 32.832031 7.886719 33.757812 7.886719 L 33.757812 14.730469 L 24.167969 24.246094 L 19.902344 20.015625 L 26.988281 12.984375 L 20.742188 6.785156 L 24.546875 3.011719 C 26.136719 1.433594 28.738281 1.433594 30.328125 3.011719 Z M 33.757812 6.75 L 33.757812 1.097656 C 34.613281 0.984375 35.507812 1.253906 36.167969 1.910156 C 37.289062 3.019531 37.289062 4.824219 36.167969 5.9375 C 35.507812 6.589844 34.613281 6.859375 33.757812 6.75 Z M 33.757812 7.886719 C 34.183594 7.886719 34.609375 7.808594 35.011719 7.660156 L 35.054688 7.703125 C 36.644531 9.28125 36.644531 11.859375 35.054688 13.4375 L 33.757812 14.730469 L 33.757812 7.886719 " fill-opacity="1" fill-rule="evenodd"/></g></svg>