<svg xmlns="http://www.w3.org/2000/svg" xmlns:xlink="http://www.w3.org/1999/xlink" width="50" zoomAndPan="magnify" viewBox="0 0 37.5 37.499999" height="50" preserveAspectRatio="xMidYMid meet" version="1.0"><defs><clipPath id="8eae2966eb"><path d="M 16 7 L 35.039062 7 L 35.039062 33 L 16 33 Z M 16 7 " clip-rule="nonzero"/></clipPath><clipPath id="24de1c80dd"><path d="M 1.734375 7 L 21 7 L 21 33 L 1.734375 33 Z M 1.734375 7 " clip-rule="nonzero"/></clipPath><clipPath id="f8911f81f1"><path d="M 11 25 L 26 25 L 26 37.007812 L 11 37.007812 Z M 11 25 " clip-rule="nonzero"/></clipPath><clipPath id="a1759d17ce"><path d="M 14 31 L 23 31 L 23 37.007812 L 14 37.007812 Z M 14 31 " clip-rule="nonzero"/></clipPath></defs><path fill="#ffc447" d="M 20.230469 7.007812 L 20.230469 32.183594 L 16.535156 32.183594 L 16.535156 7.007812 L 13.921875 7.007812 L 18.382812 0 L 22.84375 7.007812 Z M 20.230469 7.007812 " fill-opacity="1" fill-rule="evenodd"/><g clip-path="url(#8eae2966eb)"><path fill="#63b7f9" d="M 28.070312 10.558594 L 26.578125 10.558594 C 21.050781 10.558594 16.535156 15.105469 16.535156 20.671875 L 16.535156 32.183594 L 20.234375 32.183594 L 20.234375 20.671875 C 20.234375 17.160156 23.09375 14.28125 26.578125 14.28125 L 28.070312 14.28125 L 28.070312 16.910156 L 35.027344 12.417969 L 28.070312 7.929688 Z M 28.070312 10.558594 " fill-opacity="1" fill-rule="evenodd"/></g><g clip-path="url(#24de1c80dd)"><path fill="#44bc59" d="M 8.695312 10.558594 L 10.1875 10.558594 C 15.714844 10.558594 20.230469 15.105469 20.230469 20.671875 L 20.230469 32.183594 L 16.535156 32.183594 L 16.535156 20.671875 C 16.535156 17.160156 13.675781 14.28125 10.1875 14.28125 L 8.695312 14.28125 L 8.695312 16.910156 L 1.742188 12.417969 L 8.695312 7.929688 Z M 8.695312 10.558594 " fill-opacity="1" fill-rule="evenodd"/></g><g clip-path="url(#f8911f81f1)"><path fill="#fd4755" d="M 16.835938 25.140625 L 19.929688 25.140625 C 20.300781 25.140625 20.667969 25.175781 21.027344 25.25 C 21.390625 25.324219 21.742188 25.429688 22.082031 25.574219 C 22.425781 25.71875 22.75 25.890625 23.054688 26.097656 C 23.363281 26.304688 23.648438 26.539062 23.90625 26.804688 C 24.167969 27.066406 24.402344 27.351562 24.609375 27.660156 C 24.8125 27.96875 24.988281 28.296875 25.128906 28.640625 C 25.269531 28.984375 25.378906 29.335938 25.453125 29.703125 C 25.523438 30.066406 25.5625 30.433594 25.5625 30.808594 L 25.5625 37.007812 L 11.207031 37.007812 L 11.207031 30.808594 C 11.207031 30.433594 11.242188 30.066406 11.316406 29.703125 C 11.390625 29.339844 11.496094 28.984375 11.636719 28.640625 C 11.78125 28.296875 11.953125 27.972656 12.160156 27.660156 C 12.363281 27.351562 12.597656 27.066406 12.859375 26.804688 C 13.121094 26.539062 13.40625 26.304688 13.710938 26.097656 C 14.019531 25.890625 14.34375 25.71875 14.683594 25.574219 C 15.023438 25.433594 15.375 25.324219 15.738281 25.25 C 16.101562 25.175781 16.464844 25.140625 16.835938 25.140625 Z M 16.835938 25.140625 " fill-opacity="1" fill-rule="evenodd"/></g><path fill="#ffbe82" d="M 18.382812 16.992188 C 18.6875 16.992188 18.988281 17.023438 19.289062 17.082031 C 19.585938 17.144531 19.878906 17.230469 20.160156 17.347656 C 20.441406 17.464844 20.707031 17.609375 20.960938 17.78125 C 21.214844 17.953125 21.449219 18.144531 21.664062 18.363281 C 21.882812 18.578125 22.074219 18.816406 22.242188 19.070312 C 22.410156 19.324219 22.554688 19.59375 22.671875 19.878906 C 22.789062 20.160156 22.875 20.453125 22.9375 20.753906 C 22.996094 21.054688 23.023438 21.359375 23.023438 21.667969 C 23.023438 21.972656 22.996094 22.277344 22.9375 22.578125 C 22.875 22.878906 22.789062 23.171875 22.671875 23.457031 C 22.554688 23.738281 22.410156 24.007812 22.242188 24.265625 C 22.074219 24.519531 21.882812 24.753906 21.664062 24.972656 C 21.449219 25.191406 21.214844 25.382812 20.960938 25.554688 C 20.707031 25.722656 20.441406 25.867188 20.160156 25.984375 C 19.878906 26.101562 19.585938 26.191406 19.289062 26.25 C 18.988281 26.3125 18.6875 26.339844 18.382812 26.339844 C 18.078125 26.339844 17.777344 26.3125 17.476562 26.25 C 17.179688 26.191406 16.886719 26.101562 16.605469 25.984375 C 16.324219 25.867188 16.058594 25.722656 15.804688 25.554688 C 15.550781 25.382812 15.316406 25.1875 15.101562 24.972656 C 14.886719 24.753906 14.691406 24.519531 14.523438 24.265625 C 14.355469 24.007812 14.210938 23.738281 14.09375 23.457031 C 13.976562 23.171875 13.890625 22.878906 13.832031 22.578125 C 13.769531 22.277344 13.742188 21.972656 13.742188 21.667969 C 13.742188 21.359375 13.769531 21.054688 13.832031 20.753906 C 13.890625 20.453125 13.976562 20.160156 14.09375 19.878906 C 14.210938 19.59375 14.355469 19.324219 14.523438 19.070312 C 14.691406 18.816406 14.886719 18.578125 15.101562 18.363281 C 15.316406 18.144531 15.550781 17.949219 15.804688 17.78125 C 16.058594 17.609375 16.324219 17.464844 16.605469 17.347656 C 16.886719 17.230469 17.179688 17.140625 17.476562 17.082031 C 17.777344 17.023438 18.078125 16.992188 18.382812 16.992188 Z M 18.382812 16.992188 " fill-opacity="1" fill-rule="evenodd"/><g clip-path="url(#a1759d17ce)"><path fill="#cd3a45" d="M 14.355469 37.007812 L 14.355469 32.507812 C 14.355469 32.363281 14.40625 32.242188 14.507812 32.140625 C 14.609375 32.039062 14.730469 31.988281 14.871094 31.988281 C 15.015625 31.988281 15.136719 32.039062 15.238281 32.140625 C 15.339844 32.242188 15.390625 32.363281 15.390625 32.507812 L 15.390625 37.007812 Z M 22.410156 37.007812 L 21.375 37.007812 L 21.375 32.507812 C 21.375 32.363281 21.425781 32.238281 21.527344 32.136719 C 21.625 32.03125 21.75 31.980469 21.894531 31.980469 C 22.039062 31.980469 22.160156 32.03125 22.261719 32.136719 C 22.363281 32.238281 22.410156 32.363281 22.410156 32.507812 Z M 22.410156 37.007812 " fill-opacity="1" fill-rule="nonzero"/></g></svg>