<svg xmlns="http://www.w3.org/2000/svg" xmlns:xlink="http://www.w3.org/1999/xlink" width="50" zoomAndPan="magnify" viewBox="0 0 37.5 37.499999" height="50" preserveAspectRatio="xMidYMid meet" version="1.0"><defs><clipPath id="17a9a8731f"><path d="M 11 0.507812 L 27 0.507812 L 27 17 L 11 17 Z M 11 0.507812 " clip-rule="nonzero"/></clipPath><clipPath id="4ff9c45615"><path d="M 4 21 L 18 21 L 18 36.773438 L 4 36.773438 Z M 4 21 " clip-rule="nonzero"/></clipPath><clipPath id="8d19863726"><path d="M 16 21 L 32 21 L 32 36.773438 L 16 36.773438 Z M 16 21 " clip-rule="nonzero"/></clipPath></defs><g clip-path="url(#17a9a8731f)"><path fill="#ff2222" d="M 19.007812 0.527344 C 18.824219 0.539062 18.636719 0.632812 18.511719 0.804688 C 18.398438 0.960938 18.375 1.035156 18.367188 1.316406 C 18.363281 1.453125 18.359375 1.691406 18.351562 1.851562 C 18.347656 2.011719 18.351562 2.207031 18.363281 2.289062 C 18.375 2.367188 18.378906 2.503906 18.371094 2.589844 C 18.363281 2.71875 18.410156 3.136719 18.4375 3.191406 C 18.441406 3.199219 18.441406 3.363281 18.4375 3.550781 C 18.429688 3.84375 18.4375 3.914062 18.464844 4.007812 C 18.511719 4.136719 18.488281 4.601562 18.425781 4.910156 C 18.394531 5.0625 18.390625 5.125 18.402344 5.339844 C 18.410156 5.476562 18.410156 5.761719 18.398438 5.976562 C 18.382812 6.363281 18.382812 6.363281 18.453125 6.503906 C 18.574219 6.75 18.566406 6.742188 18.832031 6.785156 C 18.960938 6.808594 19.066406 6.828125 19.066406 6.828125 C 19.082031 6.839844 19.136719 6.765625 19.136719 6.730469 C 19.140625 6.699219 19.179688 6.660156 19.28125 6.59375 C 19.488281 6.453125 19.503906 6.410156 19.542969 5.851562 C 19.574219 5.417969 19.574219 5.417969 19.53125 5.324219 C 19.496094 5.257812 19.488281 5.214844 19.5 5.179688 C 19.507812 5.152344 19.507812 5.097656 19.492188 5.050781 C 19.472656 4.992188 19.46875 4.902344 19.484375 4.675781 C 19.503906 4.398438 19.511719 4.375 19.5625 4.292969 C 19.613281 4.207031 19.613281 4.199219 19.644531 3.746094 C 19.660156 3.492188 19.675781 3.128906 19.679688 2.9375 C 19.679688 2.746094 19.6875 2.335938 19.695312 2.023438 C 19.710938 1.25 19.671875 1.003906 19.488281 0.753906 C 19.371094 0.59375 19.191406 0.519531 19.007812 0.527344 Z M 15.257812 1.699219 C 15.160156 1.695312 15.0625 1.714844 14.996094 1.75 C 14.777344 1.878906 14.707031 2.136719 14.769531 2.546875 C 14.785156 2.644531 14.800781 2.824219 14.800781 2.941406 C 14.804688 3.183594 14.816406 3.273438 14.871094 3.46875 C 14.90625 3.59375 14.933594 3.667969 15.046875 3.933594 C 15.070312 3.988281 15.144531 4.210938 15.214844 4.429688 C 15.28125 4.648438 15.351562 4.871094 15.371094 4.925781 C 15.386719 4.980469 15.425781 5.148438 15.460938 5.300781 C 15.527344 5.601562 15.703125 6.0625 15.835938 6.28125 C 15.941406 6.445312 15.949219 6.46875 16.023438 6.742188 C 16.167969 7.292969 16.199219 7.359375 16.351562 7.5 C 16.402344 7.542969 16.460938 7.578125 16.484375 7.582031 C 16.578125 7.585938 16.859375 7.195312 16.824219 7.101562 C 16.804688 7.042969 16.71875 6.707031 16.683594 6.542969 C 16.664062 6.453125 16.664062 6.417969 16.6875 6.382812 C 16.71875 6.320312 16.691406 6.15625 16.613281 5.902344 C 16.492188 5.507812 16.394531 5.0625 16.410156 4.972656 C 16.425781 4.894531 16.410156 4.714844 16.371094 4.492188 C 16.363281 4.449219 16.320312 4.328125 16.277344 4.226562 C 16.195312 4.039062 16.195312 4.039062 16.226562 3.769531 C 16.273438 3.34375 16.195312 2.828125 16.011719 2.316406 C 15.941406 2.125 15.761719 1.925781 15.515625 1.765625 C 15.449219 1.722656 15.355469 1.699219 15.257812 1.699219 Z M 22.503906 2.21875 C 22.242188 2.226562 22.078125 2.347656 21.925781 2.621094 C 21.835938 2.777344 21.835938 2.777344 21.808594 3.097656 C 21.789062 3.402344 21.765625 3.511719 21.699219 3.652344 C 21.664062 3.730469 21.605469 4.042969 21.613281 4.117188 C 21.617188 4.144531 21.605469 4.230469 21.589844 4.308594 C 21.464844 4.859375 21.414062 5.171875 21.390625 5.554688 C 21.363281 5.953125 21.363281 5.953125 21.214844 6.0625 C 21.042969 6.191406 20.910156 6.335938 20.859375 6.449219 C 20.839844 6.496094 20.816406 6.546875 20.800781 6.5625 C 20.710938 6.652344 20.5625 7.109375 20.445312 7.628906 C 20.417969 7.757812 20.390625 7.875 20.382812 7.886719 C 20.378906 7.898438 20.300781 7.90625 20.1875 7.90625 C 20.03125 7.902344 19.980469 7.910156 19.863281 7.953125 C 19.726562 8.003906 19.730469 8.007812 19.628906 7.933594 C 19.425781 7.785156 19.335938 7.757812 18.96875 7.730469 C 18.566406 7.699219 18.480469 7.71875 18.285156 7.882812 C 18.082031 8.058594 18.019531 8.191406 17.996094 8.476562 C 17.988281 8.605469 17.96875 8.730469 17.953125 8.761719 C 17.941406 8.789062 17.929688 8.832031 17.925781 8.851562 C 17.921875 8.914062 17.863281 8.960938 17.796875 8.957031 C 17.746094 8.953125 17.714844 8.925781 17.613281 8.804688 C 17.367188 8.511719 17.203125 8.496094 16.875 8.75 C 16.769531 8.832031 16.707031 8.867188 16.628906 8.886719 C 16.476562 8.917969 16.398438 8.949219 16.371094 8.992188 C 16.359375 9.011719 16.339844 9.03125 16.328125 9.027344 C 16.300781 9.027344 16.171875 9.15625 16.105469 9.253906 C 16.054688 9.332031 16.054688 9.332031 15.972656 9.28125 C 15.871094 9.21875 15.605469 9.195312 15.457031 9.238281 C 15.242188 9.296875 15.035156 9.460938 14.925781 9.65625 C 14.894531 9.707031 14.84375 9.792969 14.808594 9.84375 C 14.691406 10.007812 14.679688 10.058594 14.652344 10.417969 C 14.605469 11.070312 14.605469 11.28125 14.652344 11.402344 C 14.695312 11.503906 14.816406 11.644531 14.867188 11.648438 C 14.914062 11.652344 14.945312 11.726562 14.984375 11.90625 C 15.035156 12.140625 15.117188 12.332031 15.207031 12.402344 C 15.226562 12.421875 15.265625 12.484375 15.285156 12.542969 C 15.308594 12.601562 15.359375 12.691406 15.402344 12.742188 C 15.464844 12.808594 15.480469 12.847656 15.480469 12.890625 C 15.472656 13.003906 15.503906 13.160156 15.550781 13.242188 C 15.59375 13.320312 15.597656 13.335938 15.585938 13.59375 C 15.574219 13.890625 15.589844 13.953125 15.707031 14.164062 C 15.757812 14.257812 15.765625 14.285156 15.777344 14.546875 C 15.796875 15.085938 15.804688 15.164062 15.835938 15.269531 C 15.871094 15.40625 15.96875 15.566406 16.160156 15.796875 C 16.347656 16.023438 16.445312 16.082031 16.765625 16.144531 C 16.894531 16.167969 17.023438 16.195312 17.054688 16.199219 C 17.445312 16.277344 17.691406 16.234375 18.015625 16.03125 C 18.1875 15.925781 18.289062 15.90625 18.722656 15.902344 C 18.867188 15.902344 19.085938 15.890625 19.210938 15.878906 C 19.484375 15.847656 19.71875 15.828125 19.894531 15.8125 C 20.015625 15.800781 20.046875 15.796875 20.191406 15.746094 C 20.226562 15.734375 20.324219 15.710938 20.410156 15.695312 C 20.640625 15.652344 20.867188 15.566406 20.972656 15.484375 C 21.027344 15.441406 21.113281 15.382812 21.171875 15.347656 C 21.230469 15.316406 21.300781 15.265625 21.324219 15.238281 C 21.378906 15.171875 21.4375 15.144531 21.503906 15.148438 C 21.574219 15.152344 21.886719 15.011719 21.984375 14.929688 C 22.027344 14.890625 22.097656 14.847656 22.140625 14.832031 C 22.183594 14.820312 22.238281 14.792969 22.261719 14.773438 C 22.285156 14.753906 22.34375 14.726562 22.398438 14.710938 C 22.449219 14.695312 22.527344 14.660156 22.566406 14.632812 C 22.605469 14.609375 22.648438 14.585938 22.664062 14.589844 C 22.679688 14.589844 22.710938 14.574219 22.730469 14.5625 C 22.75 14.546875 22.777344 14.539062 22.792969 14.539062 C 22.804688 14.539062 22.847656 14.519531 22.890625 14.496094 C 22.949219 14.460938 23.027344 14.4375 23.265625 14.386719 C 23.3125 14.375 23.515625 14.199219 23.589844 14.097656 C 23.65625 14.011719 23.863281 13.824219 24.101562 13.628906 C 24.242188 13.515625 24.378906 13.339844 24.417969 13.222656 C 24.484375 12.992188 24.585938 12.886719 24.738281 12.878906 C 24.933594 12.867188 25.042969 12.804688 25.140625 12.648438 C 25.160156 12.613281 25.199219 12.589844 25.230469 12.585938 C 25.367188 12.558594 25.726562 12.339844 25.878906 12.183594 C 25.996094 12.0625 26.132812 11.871094 26.195312 11.742188 C 26.492188 11.132812 26.527344 10.996094 26.464844 10.753906 C 26.363281 10.347656 25.996094 10.121094 25.570312 10.203125 C 25.390625 10.238281 25.253906 10.320312 24.847656 10.644531 C 24.773438 10.707031 24.699219 10.761719 24.683594 10.769531 C 24.621094 10.800781 24.378906 11.082031 24.300781 11.21875 C 24.226562 11.347656 24.132812 11.445312 24.082031 11.441406 C 24.0625 11.441406 23.84375 11.539062 23.75 11.597656 C 23.707031 11.621094 23.621094 11.648438 23.5625 11.65625 C 23.441406 11.671875 23.351562 11.707031 23.3125 11.746094 C 23.296875 11.761719 23.277344 11.773438 23.261719 11.773438 C 23.246094 11.769531 23.222656 11.789062 23.210938 11.808594 C 23.195312 11.832031 23.136719 11.863281 23.082031 11.886719 C 23.023438 11.910156 22.972656 11.933594 22.96875 11.945312 C 22.960938 11.953125 22.914062 11.976562 22.863281 12 C 22.808594 12.019531 22.746094 12.054688 22.714844 12.082031 C 22.597656 12.179688 22.5625 12.203125 22.476562 12.242188 C 22.429688 12.261719 22.378906 12.296875 22.363281 12.316406 C 22.347656 12.332031 22.324219 12.347656 22.308594 12.347656 C 22.277344 12.34375 22.105469 12.210938 22.03125 12.125 C 21.996094 12.085938 21.933594 12.035156 21.890625 12.007812 C 21.835938 11.976562 21.800781 11.933594 21.777344 11.882812 C 21.761719 11.839844 21.703125 11.765625 21.652344 11.714844 C 21.601562 11.664062 21.492188 11.546875 21.410156 11.453125 C 21.328125 11.355469 21.222656 11.25 21.179688 11.210938 C 21.089844 11.132812 21.082031 11.179688 21.257812 10.722656 C 21.394531 10.375 21.46875 10.128906 21.503906 9.898438 C 21.519531 9.792969 21.542969 9.730469 21.585938 9.660156 C 21.664062 9.542969 21.703125 9.34375 21.699219 9.132812 C 21.695312 8.988281 21.714844 8.875 21.773438 8.761719 C 21.882812 8.535156 21.917969 8.335938 21.878906 8.175781 C 21.847656 8.050781 21.84375 8.046875 21.964844 7.746094 C 22.046875 7.535156 22.105469 7.425781 22.144531 7.382812 C 22.214844 7.308594 22.234375 7.253906 22.226562 7.132812 C 22.222656 7.03125 22.160156 6.859375 22.113281 6.8125 C 22.082031 6.78125 22.085938 6.644531 22.121094 6.546875 C 22.132812 6.515625 22.1875 6.433594 22.246094 6.367188 C 22.304688 6.300781 22.351562 6.242188 22.351562 6.238281 C 22.351562 6.234375 22.382812 6.175781 22.417969 6.109375 C 22.453125 6.042969 22.503906 5.921875 22.53125 5.832031 C 22.5625 5.746094 22.625 5.570312 22.675781 5.445312 C 22.800781 5.128906 22.957031 4.707031 23.035156 4.464844 C 23.074219 4.355469 23.152344 4.160156 23.210938 4.03125 C 23.328125 3.769531 23.371094 3.597656 23.390625 3.296875 C 23.421875 2.84375 23.277344 2.511719 22.957031 2.3125 C 22.835938 2.238281 22.824219 2.234375 22.621094 2.222656 C 22.582031 2.21875 22.542969 2.21875 22.503906 2.21875 Z M 11.992188 6.589844 C 11.972656 6.589844 11.953125 6.601562 11.90625 6.632812 C 11.8125 6.699219 11.777344 6.800781 11.761719 7.027344 C 11.738281 7.335938 11.8125 7.453125 12.15625 7.644531 C 12.171875 7.652344 12.214844 7.722656 12.253906 7.796875 C 12.347656 7.980469 12.609375 8.296875 13.003906 8.699219 C 13.15625 8.855469 13.457031 9.296875 13.492188 9.414062 C 13.519531 9.511719 13.609375 9.617188 13.707031 9.671875 C 13.785156 9.714844 13.988281 9.714844 14.097656 9.667969 C 14.3125 9.578125 14.46875 9.222656 14.472656 8.832031 C 14.476562 8.453125 14.304688 8.167969 13.902344 7.894531 C 13.804688 7.828125 13.703125 7.753906 13.683594 7.734375 C 13.617188 7.664062 13.375 7.492188 13.246094 7.417969 C 13.175781 7.378906 13.089844 7.316406 13.054688 7.285156 C 13.023438 7.25 12.964844 7.203125 12.921875 7.175781 C 12.882812 7.148438 12.832031 7.109375 12.8125 7.085938 C 12.792969 7.066406 12.714844 7.011719 12.632812 6.960938 C 12.421875 6.828125 12.390625 6.796875 12.375 6.707031 C 12.355469 6.609375 12.351562 6.605469 12.199219 6.621094 C 12.101562 6.628906 12.0625 6.628906 12.03125 6.605469 C 12.015625 6.597656 12.003906 6.59375 11.992188 6.589844 Z M 11.992188 6.589844 " fill-opacity="1" fill-rule="nonzero"/></g><path fill="#80cc11" d="M 12.234375 9.789062 C 11.855469 9.789062 11.554688 10.054688 11.492188 10.457031 C 11.464844 10.636719 11.496094 10.796875 11.664062 11.292969 C 11.695312 11.382812 11.722656 11.472656 11.722656 11.488281 C 11.730469 11.558594 11.914062 11.882812 12.011719 12.003906 C 12.105469 12.117188 12.167969 12.242188 12.148438 12.285156 C 12.136719 12.308594 12.160156 12.542969 12.179688 12.652344 C 12.1875 12.703125 12.183594 12.792969 12.171875 12.851562 C 12.148438 12.972656 12.148438 13.070312 12.171875 13.121094 C 12.183594 13.136719 12.183594 13.164062 12.179688 13.175781 C 12.171875 13.1875 12.179688 13.21875 12.195312 13.238281 C 12.207031 13.257812 12.222656 13.324219 12.222656 13.386719 C 12.226562 13.445312 12.234375 13.503906 12.242188 13.511719 C 12.246094 13.523438 12.253906 13.578125 12.253906 13.632812 C 12.257812 13.6875 12.269531 13.761719 12.285156 13.796875 C 12.335938 13.941406 12.347656 13.984375 12.351562 14.078125 C 12.355469 14.128906 12.367188 14.191406 12.382812 14.210938 C 12.394531 14.230469 12.398438 14.261719 12.394531 14.273438 C 12.378906 14.304688 12.199219 14.417969 12.09375 14.464844 C 12.046875 14.484375 11.976562 14.527344 11.9375 14.558594 C 11.890625 14.597656 11.839844 14.613281 11.78125 14.617188 C 11.734375 14.621094 11.644531 14.648438 11.582031 14.679688 C 11.515625 14.710938 11.371094 14.777344 11.253906 14.824219 C 11.136719 14.871094 11 14.929688 10.953125 14.960938 C 10.847656 15.019531 10.886719 15.042969 10.523438 14.722656 C 10.242188 14.476562 10.039062 14.324219 9.835938 14.210938 C 9.742188 14.160156 9.691406 14.117188 9.640625 14.050781 C 9.554688 13.9375 9.386719 13.832031 9.1875 13.769531 C 9.050781 13.722656 8.953125 13.664062 8.863281 13.570312 C 8.6875 13.390625 8.515625 13.289062 8.351562 13.273438 C 8.222656 13.261719 8.222656 13.261719 7.980469 13.042969 C 7.8125 12.894531 7.726562 12.804688 7.699219 12.753906 C 7.65625 12.660156 7.609375 12.625 7.492188 12.589844 C 7.398438 12.558594 7.21875 12.558594 7.160156 12.589844 C 7.121094 12.609375 6.992188 12.558594 6.914062 12.496094 C 6.886719 12.472656 6.832031 12.390625 6.789062 12.3125 C 6.746094 12.238281 6.707031 12.171875 6.703125 12.167969 C 6.699219 12.167969 6.652344 12.121094 6.605469 12.066406 C 6.554688 12.007812 6.457031 11.917969 6.382812 11.863281 C 6.3125 11.804688 6.171875 11.6875 6.070312 11.597656 C 5.820312 11.371094 5.476562 11.078125 5.277344 10.921875 C 5.1875 10.851562 5.03125 10.710938 4.929688 10.613281 C 4.722656 10.410156 4.582031 10.3125 4.304688 10.191406 C 3.890625 10.007812 3.535156 10.035156 3.242188 10.273438 C 3.128906 10.363281 3.125 10.371094 3.042969 10.558594 C 2.910156 10.863281 2.945312 11.085938 3.175781 11.355469 C 3.292969 11.492188 3.296875 11.492188 3.585938 11.625 C 3.863281 11.75 3.957031 11.804688 4.066406 11.917969 C 4.128906 11.976562 4.398438 12.136719 4.46875 12.152344 C 4.5 12.160156 4.574219 12.199219 4.640625 12.242188 C 5.117188 12.546875 5.390625 12.699219 5.742188 12.855469 C 6.101562 13.015625 6.101562 13.015625 6.15625 13.191406 C 6.21875 13.398438 6.308594 13.570312 6.398438 13.65625 C 6.433594 13.691406 6.472656 13.734375 6.480469 13.753906 C 6.535156 13.867188 6.914062 14.164062 7.355469 14.445312 C 7.46875 14.519531 7.570312 14.585938 7.578125 14.59375 C 7.589844 14.601562 7.570312 14.679688 7.527344 14.785156 C 7.472656 14.933594 7.460938 14.984375 7.464844 15.109375 C 7.464844 15.253906 7.464844 15.253906 7.363281 15.324219 C 7.160156 15.46875 7.105469 15.542969 6.957031 15.882812 C 6.789062 16.253906 6.777344 16.339844 6.867188 16.582031 C 6.960938 16.835938 7.0625 16.941406 7.324219 17.058594 C 7.4375 17.109375 7.550781 17.171875 7.574219 17.191406 C 7.59375 17.214844 7.628906 17.242188 7.652344 17.253906 C 7.707031 17.277344 7.730469 17.347656 7.703125 17.410156 C 7.683594 17.457031 7.648438 17.476562 7.5 17.53125 C 7.140625 17.664062 7.074219 17.820312 7.203125 18.214844 C 7.242188 18.339844 7.25 18.414062 7.242188 18.492188 C 7.21875 18.648438 7.226562 18.734375 7.257812 18.773438 C 7.269531 18.789062 7.277344 18.816406 7.273438 18.828125 C 7.261719 18.855469 7.339844 19.019531 7.410156 19.113281 C 7.464844 19.1875 7.464844 19.1875 7.390625 19.25 C 7.296875 19.328125 7.1875 19.570312 7.175781 19.722656 C 7.160156 19.945312 7.242188 20.199219 7.390625 20.371094 C 7.425781 20.414062 7.488281 20.492188 7.523438 20.542969 C 7.636719 20.710938 7.679688 20.742188 8.003906 20.886719 C 8.597656 21.148438 8.796875 21.21875 8.925781 21.214844 C 9.035156 21.210938 9.207031 21.140625 9.226562 21.09375 C 9.246094 21.054688 9.328125 21.046875 9.507812 21.070312 C 9.742188 21.105469 9.949219 21.089844 10.046875 21.027344 C 10.070312 21.015625 10.140625 21.003906 10.203125 21 C 10.265625 21 10.367188 20.980469 10.429688 20.957031 C 10.515625 20.921875 10.558594 20.917969 10.597656 20.9375 C 10.699219 20.980469 10.855469 21.003906 10.945312 20.984375 C 11.03125 20.96875 11.050781 20.972656 11.289062 21.070312 C 11.5625 21.179688 11.628906 21.191406 11.863281 21.152344 C 11.96875 21.132812 11.996094 21.136719 12.246094 21.214844 C 12.753906 21.375 12.828125 21.394531 12.941406 21.402344 C 13.078125 21.414062 13.261719 21.371094 13.539062 21.269531 C 13.816406 21.167969 13.902344 21.097656 14.070312 20.8125 C 14.136719 20.699219 14.203125 20.585938 14.21875 20.558594 C 14.421875 20.214844 14.464844 19.96875 14.386719 19.59375 C 14.34375 19.394531 14.359375 19.289062 14.503906 18.875 C 14.550781 18.738281 14.617188 18.527344 14.644531 18.402344 C 14.710938 18.136719 14.769531 17.90625 14.816406 17.734375 C 14.847656 17.617188 14.851562 17.582031 14.851562 17.429688 C 14.851562 17.394531 14.863281 17.292969 14.878906 17.207031 C 14.917969 16.972656 14.914062 16.726562 14.871094 16.597656 C 14.851562 16.535156 14.824219 16.429688 14.8125 16.363281 C 14.800781 16.296875 14.777344 16.21875 14.757812 16.183594 C 14.71875 16.109375 14.714844 16.042969 14.738281 15.984375 C 14.765625 15.917969 14.738281 15.574219 14.695312 15.457031 C 14.675781 15.402344 14.660156 15.316406 14.660156 15.273438 C 14.660156 15.226562 14.652344 15.167969 14.644531 15.140625 C 14.632812 15.109375 14.628906 15.039062 14.632812 14.984375 C 14.636719 14.929688 14.628906 14.847656 14.617188 14.800781 C 14.605469 14.757812 14.601562 14.707031 14.605469 14.691406 C 14.613281 14.679688 14.613281 14.648438 14.605469 14.621094 C 14.597656 14.597656 14.597656 14.566406 14.605469 14.554688 C 14.609375 14.542969 14.605469 14.496094 14.597656 14.449219 C 14.585938 14.378906 14.589844 14.300781 14.621094 14.054688 C 14.628906 14.003906 14.53125 13.753906 14.464844 13.652344 C 14.402344 13.558594 14.296875 13.300781 14.199219 13.003906 C 14.140625 12.832031 14.019531 12.644531 13.921875 12.570312 C 13.734375 12.429688 13.667969 12.296875 13.710938 12.148438 C 13.769531 11.960938 13.746094 11.835938 13.632812 11.691406 C 13.609375 11.660156 13.59375 11.617188 13.601562 11.582031 C 13.625 11.441406 13.539062 11.03125 13.445312 10.835938 C 13.375 10.683594 13.242188 10.488281 13.144531 10.382812 C 12.671875 9.894531 12.558594 9.816406 12.308594 9.792969 C 12.285156 9.789062 12.257812 9.789062 12.234375 9.789062 Z M 0.832031 12.996094 C 0.757812 13 0.6875 13.011719 0.613281 13.035156 C 0.234375 13.148438 0.0898438 13.621094 0.328125 13.976562 C 0.433594 14.140625 0.5 14.1875 0.761719 14.289062 C 0.886719 14.335938 1.105469 14.425781 1.253906 14.484375 C 1.402344 14.542969 1.585938 14.601562 1.664062 14.621094 C 1.742188 14.636719 1.871094 14.679688 1.949219 14.714844 C 2.066406 14.765625 2.472656 14.867188 2.535156 14.859375 C 2.542969 14.855469 2.695312 14.910156 2.871094 14.976562 C 3.140625 15.082031 3.210938 15.101562 3.308594 15.101562 C 3.445312 15.105469 3.871094 15.28125 4.136719 15.449219 C 4.269531 15.527344 4.324219 15.550781 4.527344 15.613281 C 4.660156 15.652344 4.929688 15.75 5.125 15.832031 C 5.480469 15.976562 5.480469 15.976562 5.632812 15.957031 C 5.902344 15.925781 5.894531 15.933594 6.023438 15.695312 C 6.089844 15.582031 6.140625 15.484375 6.144531 15.484375 C 6.160156 15.476562 6.109375 15.398438 6.078125 15.386719 C 6.050781 15.375 6.027344 15.320312 5.996094 15.207031 C 5.9375 14.960938 5.902344 14.929688 5.394531 14.703125 C 4.996094 14.527344 4.996094 14.527344 4.894531 14.539062 C 4.820312 14.546875 4.78125 14.539062 4.75 14.519531 C 4.726562 14.5 4.675781 14.484375 4.628906 14.484375 C 4.5625 14.480469 4.480469 14.453125 4.273438 14.363281 C 4.019531 14.25 4 14.238281 3.941406 14.164062 C 3.878906 14.082031 3.871094 14.078125 3.457031 13.898438 C 3.230469 13.796875 2.894531 13.65625 2.714844 13.589844 C 2.535156 13.523438 2.15625 13.378906 1.867188 13.269531 C 1.332031 13.0625 1.058594 12.984375 0.832031 12.996094 Z M 0.898438 16.859375 C 0.695312 16.863281 0.445312 16.964844 0.214844 17.144531 C 0.09375 17.238281 0 17.484375 0.0273438 17.632812 C 0.0742188 17.882812 0.289062 18.039062 0.695312 18.113281 C 0.792969 18.132812 0.964844 18.179688 1.074219 18.21875 C 1.300781 18.296875 1.390625 18.316406 1.589844 18.332031 C 1.71875 18.339844 1.796875 18.335938 2.082031 18.320312 C 2.140625 18.316406 2.375 18.320312 2.601562 18.332031 C 2.828125 18.339844 3.0625 18.347656 3.117188 18.351562 C 3.175781 18.351562 3.347656 18.371094 3.5 18.390625 C 3.804688 18.429688 4.292969 18.417969 4.542969 18.363281 C 4.734375 18.324219 4.757812 18.320312 5.035156 18.34375 C 5.597656 18.390625 5.671875 18.386719 5.855469 18.285156 C 5.910156 18.257812 5.964844 18.210938 5.972656 18.191406 C 6.011719 18.101562 5.738281 17.703125 5.640625 17.707031 C 5.578125 17.707031 5.234375 17.671875 5.070312 17.648438 C 4.980469 17.636719 4.953125 17.625 4.925781 17.59375 C 4.878906 17.542969 4.71875 17.511719 4.453125 17.5 C 4.042969 17.480469 3.589844 17.421875 3.511719 17.378906 C 3.445312 17.339844 3.273438 17.292969 3.050781 17.253906 C 3.007812 17.246094 2.882812 17.246094 2.769531 17.253906 C 2.566406 17.265625 2.570312 17.265625 2.328125 17.148438 C 1.949219 16.957031 1.441406 16.855469 0.898438 16.859375 Z M 6.140625 20.457031 C 5.902344 20.453125 5.664062 20.546875 5.398438 20.742188 C 5.300781 20.816406 5.199219 20.886719 5.171875 20.898438 C 5.085938 20.9375 4.84375 21.105469 4.730469 21.207031 C 4.667969 21.261719 4.585938 21.320312 4.542969 21.339844 C 4.5 21.359375 4.433594 21.402344 4.394531 21.429688 C 4.355469 21.457031 4.300781 21.492188 4.273438 21.503906 C 4.25 21.515625 4.167969 21.574219 4.09375 21.632812 C 3.898438 21.785156 3.859375 21.808594 3.769531 21.792969 C 3.671875 21.777344 3.671875 21.78125 3.632812 21.929688 C 3.609375 22.027344 3.59375 22.0625 3.5625 22.085938 C 3.523438 22.113281 3.523438 22.128906 3.542969 22.210938 C 3.574219 22.320312 3.65625 22.390625 3.863281 22.484375 C 4.144531 22.605469 4.277344 22.578125 4.574219 22.316406 C 4.585938 22.304688 4.667969 22.285156 4.75 22.273438 C 4.953125 22.25 5.335938 22.105469 5.84375 21.867188 C 6.042969 21.773438 6.554688 21.640625 6.675781 21.648438 C 6.777344 21.652344 6.90625 21.605469 6.988281 21.53125 C 7.058594 21.46875 7.125 21.277344 7.117188 21.15625 C 7.105469 20.925781 6.828125 20.65625 6.464844 20.519531 C 6.355469 20.480469 6.246094 20.457031 6.140625 20.457031 Z M 6.140625 20.457031 " fill-opacity="1" fill-rule="nonzero"/><path fill="#ff9900" d="M 28.492188 9.828125 C 28.429688 9.828125 28.347656 9.84375 28.238281 9.875 C 27.945312 9.964844 27.863281 10.074219 27.804688 10.464844 C 27.804688 10.484375 27.753906 10.550781 27.699219 10.613281 C 27.558594 10.765625 27.359375 11.121094 27.125 11.636719 C 27.035156 11.835938 26.730469 12.273438 26.632812 12.347656 C 26.550781 12.410156 26.484375 12.53125 26.46875 12.640625 C 26.457031 12.734375 26.527344 12.921875 26.613281 13.007812 C 26.769531 13.179688 27.15625 13.203125 27.519531 13.070312 C 27.871094 12.9375 28.078125 12.675781 28.1875 12.203125 C 28.214844 12.085938 28.25 11.964844 28.261719 11.9375 C 28.304688 11.851562 28.378906 11.5625 28.398438 11.414062 C 28.410156 11.332031 28.4375 11.230469 28.457031 11.1875 C 28.476562 11.144531 28.5 11.070312 28.511719 11.023438 C 28.523438 10.976562 28.542969 10.914062 28.554688 10.890625 C 28.566406 10.863281 28.59375 10.769531 28.609375 10.675781 C 28.660156 10.433594 28.675781 10.386719 28.753906 10.339844 C 28.839844 10.285156 28.839844 10.285156 28.773438 10.148438 C 28.726562 10.058594 28.71875 10.019531 28.726562 9.980469 C 28.734375 9.933594 28.726562 9.921875 28.65625 9.875 C 28.609375 9.84375 28.558594 9.828125 28.492188 9.828125 Z M 33.980469 10.960938 C 33.832031 10.960938 33.664062 11.019531 33.460938 11.136719 C 33.375 11.183594 33.214844 11.261719 33.105469 11.304688 C 32.882812 11.390625 32.800781 11.433594 32.640625 11.554688 C 32.535156 11.632812 32.476562 11.683594 32.273438 11.882812 C 32.230469 11.921875 32.046875 12.074219 31.867188 12.214844 C 31.6875 12.355469 31.507812 12.503906 31.460938 12.539062 C 31.417969 12.574219 31.277344 12.671875 31.148438 12.757812 C 30.886719 12.925781 30.523438 13.253906 30.371094 13.457031 C 30.25 13.613281 30.234375 13.628906 30.007812 13.792969 C 29.546875 14.125 29.492188 14.175781 29.417969 14.371094 C 29.394531 14.433594 29.382812 14.5 29.390625 14.523438 C 29.417969 14.617188 29.878906 14.738281 29.957031 14.675781 C 30.003906 14.636719 30.285156 14.4375 30.425781 14.347656 C 30.5 14.300781 30.53125 14.285156 30.574219 14.292969 C 30.640625 14.300781 30.785156 14.21875 30.996094 14.054688 C 31.316406 13.800781 31.699219 13.554688 31.789062 13.539062 C 31.863281 13.523438 32.023438 13.445312 32.21875 13.328125 C 32.253906 13.304688 32.351562 13.222656 32.433594 13.144531 C 32.578125 13.003906 32.578125 13.003906 32.835938 12.9375 C 33.25 12.832031 33.703125 12.578125 34.113281 12.222656 C 34.265625 12.089844 34.386719 11.851562 34.449219 11.5625 C 34.480469 11.410156 34.394531 11.164062 34.28125 11.066406 C 34.195312 11 34.09375 10.960938 33.980469 10.960938 Z M 26.480469 13.707031 C 26.398438 13.714844 26.296875 13.738281 26.109375 13.796875 C 25.488281 13.980469 25.289062 14.058594 25.195312 14.148438 C 25.117188 14.21875 25.03125 14.382812 25.042969 14.433594 C 25.058594 14.476562 25 14.535156 24.84375 14.636719 C 24.644531 14.765625 24.5 14.910156 24.460938 15.019531 C 24.453125 15.046875 24.40625 15.101562 24.359375 15.140625 C 24.3125 15.183594 24.246094 15.265625 24.214844 15.324219 C 24.171875 15.40625 24.148438 15.4375 24.105469 15.449219 C 24 15.480469 23.863281 15.566406 23.804688 15.640625 C 23.75 15.707031 23.734375 15.714844 23.492188 15.796875 C 23.210938 15.890625 23.15625 15.929688 23 16.109375 C 22.933594 16.195312 22.910156 16.207031 22.667969 16.3125 C 22.179688 16.523438 22.109375 16.554688 22.019531 16.625 C 21.90625 16.707031 21.792969 16.855469 21.648438 17.113281 C 21.5 17.375 21.484375 17.484375 21.539062 17.808594 C 21.558594 17.9375 21.582031 18.070312 21.585938 18.101562 C 21.652344 18.496094 21.777344 18.714844 22.082031 18.945312 C 22.242188 19.070312 22.292969 19.160156 22.449219 19.570312 C 22.5 19.703125 22.589844 19.90625 22.648438 20.019531 C 22.769531 20.265625 22.871094 20.480469 22.949219 20.644531 C 23 20.753906 23.015625 20.78125 23.113281 20.898438 C 23.136719 20.925781 23.195312 21.007812 23.238281 21.085938 C 23.359375 21.285156 23.519531 21.472656 23.636719 21.542969 C 23.691406 21.578125 23.777344 21.640625 23.828125 21.683594 C 23.882812 21.726562 23.949219 21.773438 23.984375 21.785156 C 24.0625 21.816406 24.113281 21.863281 24.132812 21.925781 C 24.152344 21.996094 24.394531 22.238281 24.503906 22.300781 C 24.554688 22.328125 24.617188 22.378906 24.648438 22.414062 C 24.675781 22.449219 24.71875 22.492188 24.746094 22.507812 C 24.773438 22.523438 24.820312 22.570312 24.855469 22.613281 C 24.886719 22.660156 24.945312 22.71875 24.984375 22.746094 C 25.023438 22.773438 25.058594 22.808594 25.0625 22.824219 C 25.066406 22.835938 25.085938 22.859375 25.109375 22.875 C 25.128906 22.890625 25.148438 22.914062 25.152344 22.925781 C 25.15625 22.9375 25.1875 22.972656 25.222656 23.003906 C 25.28125 23.046875 25.328125 23.113281 25.460938 23.320312 C 25.488281 23.359375 25.722656 23.488281 25.84375 23.523438 C 25.945312 23.554688 26.191406 23.683594 26.457031 23.84375 C 26.613281 23.933594 26.824219 24 26.949219 23.992188 C 27.183594 23.976562 27.316406 24.035156 27.378906 24.175781 C 27.457031 24.355469 27.554688 24.4375 27.734375 24.472656 C 27.773438 24.480469 27.808594 24.507812 27.824219 24.535156 C 27.898438 24.660156 28.226562 24.917969 28.425781 25.003906 C 28.578125 25.074219 28.804688 25.136719 28.945312 25.152344 C 29.617188 25.214844 29.757812 25.199219 29.960938 25.054688 C 30.304688 24.816406 30.382812 24.390625 30.15625 24.019531 C 30.0625 23.863281 29.9375 23.761719 29.488281 23.492188 C 29.40625 23.445312 29.332031 23.394531 29.320312 23.382812 C 29.269531 23.332031 28.921875 23.207031 28.769531 23.179688 C 28.621094 23.15625 28.496094 23.097656 28.480469 23.050781 C 28.476562 23.03125 28.308594 22.859375 28.222656 22.789062 C 28.183594 22.757812 28.128906 22.6875 28.097656 22.636719 C 28.039062 22.527344 27.976562 22.453125 27.925781 22.433594 C 27.90625 22.425781 27.890625 22.40625 27.882812 22.394531 C 27.878906 22.378906 27.859375 22.363281 27.835938 22.355469 C 27.808594 22.351562 27.753906 22.308594 27.714844 22.261719 C 27.675781 22.21875 27.632812 22.179688 27.621094 22.175781 C 27.613281 22.171875 27.570312 22.136719 27.535156 22.097656 C 27.496094 22.054688 27.441406 22.007812 27.40625 21.988281 C 27.273438 21.914062 27.238281 21.886719 27.175781 21.820312 C 27.136719 21.78125 27.089844 21.746094 27.066406 21.738281 C 27.042969 21.730469 27.019531 21.710938 27.015625 21.699219 C 27.007812 21.667969 27.070312 21.460938 27.125 21.355469 C 27.148438 21.308594 27.175781 21.230469 27.183594 21.183594 C 27.195312 21.121094 27.21875 21.074219 27.261719 21.035156 C 27.296875 21.003906 27.34375 20.921875 27.375 20.855469 C 27.402344 20.789062 27.472656 20.644531 27.53125 20.535156 C 27.589844 20.421875 27.65625 20.289062 27.671875 20.234375 C 27.710938 20.121094 27.667969 20.128906 28.152344 20.132812 C 28.527344 20.136719 28.78125 20.121094 29.007812 20.074219 C 29.109375 20.054688 29.175781 20.050781 29.257812 20.070312 C 29.394531 20.101562 29.589844 20.070312 29.785156 19.992188 C 29.917969 19.933594 30.03125 19.914062 30.15625 19.929688 C 30.40625 19.953125 30.605469 19.917969 30.738281 19.820312 C 30.84375 19.746094 30.84375 19.746094 31.167969 19.753906 C 31.390625 19.757812 31.519531 19.769531 31.570312 19.792969 C 31.664062 19.835938 31.722656 19.832031 31.832031 19.785156 C 31.921875 19.746094 32.0625 19.625 32.085938 19.566406 C 32.105469 19.523438 32.234375 19.476562 32.335938 19.476562 C 32.371094 19.476562 32.464844 19.5 32.546875 19.53125 C 32.628906 19.5625 32.703125 19.585938 32.707031 19.585938 C 32.710938 19.585938 32.773438 19.589844 32.847656 19.601562 C 32.917969 19.613281 33.054688 19.617188 33.144531 19.613281 C 33.238281 19.609375 33.421875 19.605469 33.554688 19.609375 C 33.890625 19.617188 34.339844 19.617188 34.59375 19.605469 C 34.707031 19.601562 34.914062 19.605469 35.058594 19.617188 C 35.34375 19.636719 35.515625 19.617188 35.800781 19.527344 C 36.234375 19.398438 36.488281 19.144531 36.5625 18.773438 C 36.589844 18.632812 36.589844 18.621094 36.53125 18.425781 C 36.4375 18.101562 36.265625 17.960938 35.914062 17.90625 C 35.734375 17.878906 35.734375 17.878906 35.429688 17.96875 C 35.136719 18.054688 35.03125 18.074219 34.875 18.058594 C 34.792969 18.050781 34.480469 18.109375 34.414062 18.140625 C 34.390625 18.15625 34.304688 18.175781 34.226562 18.1875 C 33.671875 18.265625 33.363281 18.324219 33 18.4375 C 32.621094 18.550781 32.621094 18.550781 32.46875 18.449219 C 32.285156 18.332031 32.105469 18.261719 31.980469 18.253906 C 31.929688 18.253906 31.875 18.242188 31.855469 18.234375 C 31.742188 18.183594 31.265625 18.203125 30.742188 18.277344 C 30.613281 18.296875 30.492188 18.3125 30.480469 18.3125 C 30.464844 18.3125 30.433594 18.238281 30.394531 18.132812 C 30.339844 17.980469 30.316406 17.9375 30.234375 17.84375 C 30.140625 17.734375 30.140625 17.734375 30.171875 17.613281 C 30.234375 17.371094 30.230469 17.277344 30.125 16.921875 C 30.011719 16.53125 29.964844 16.457031 29.742188 16.332031 C 29.507812 16.203125 29.367188 16.1875 29.09375 16.265625 C 28.96875 16.300781 28.84375 16.332031 28.8125 16.328125 C 28.78125 16.324219 28.738281 16.328125 28.714844 16.332031 C 28.65625 16.351562 28.59375 16.3125 28.574219 16.246094 C 28.558594 16.199219 28.574219 16.15625 28.652344 16.019531 C 28.835938 15.683594 28.792969 15.523438 28.441406 15.304688 C 28.328125 15.234375 28.273438 15.1875 28.230469 15.121094 C 28.148438 14.988281 28.085938 14.925781 28.039062 14.917969 C 28.015625 14.914062 27.996094 14.898438 27.992188 14.886719 C 27.984375 14.859375 27.816406 14.785156 27.703125 14.757812 C 27.613281 14.734375 27.613281 14.734375 27.628906 14.644531 C 27.652344 14.523438 27.578125 14.265625 27.488281 14.140625 C 27.355469 13.957031 27.132812 13.820312 26.910156 13.785156 C 26.855469 13.777344 26.757812 13.757812 26.695312 13.742188 C 26.625 13.722656 26.574219 13.710938 26.515625 13.707031 C 26.503906 13.707031 26.492188 13.707031 26.480469 13.707031 Z M 36.183594 14.015625 C 36.105469 14.019531 36.015625 14.042969 35.871094 14.09375 C 35.746094 14.136719 35.519531 14.214844 35.367188 14.265625 C 35.21875 14.320312 35.039062 14.394531 34.96875 14.429688 C 34.898438 14.46875 34.773438 14.519531 34.691406 14.546875 C 34.566406 14.582031 34.195312 14.769531 34.152344 14.816406 C 34.148438 14.824219 33.996094 14.882812 33.820312 14.945312 C 33.546875 15.042969 33.480469 15.074219 33.40625 15.132812 C 33.300781 15.222656 32.863281 15.363281 32.550781 15.414062 C 32.402344 15.4375 32.34375 15.457031 32.148438 15.542969 C 32.023438 15.597656 31.757812 15.699219 31.554688 15.765625 C 31.191406 15.886719 31.1875 15.886719 31.082031 16.003906 C 30.898438 16.203125 30.902344 16.191406 30.957031 16.457031 C 30.980469 16.585938 31 16.691406 31 16.695312 C 30.992188 16.710938 31.082031 16.738281 31.113281 16.726562 C 31.144531 16.71875 31.195312 16.742188 31.289062 16.8125 C 31.496094 16.960938 31.542969 16.960938 32.074219 16.800781 C 32.488281 16.675781 32.488281 16.679688 32.558594 16.601562 C 32.609375 16.546875 32.644531 16.523438 32.679688 16.523438 C 32.710938 16.519531 32.757812 16.5 32.796875 16.46875 C 32.847656 16.429688 32.929688 16.398438 33.144531 16.332031 C 33.410156 16.253906 33.433594 16.246094 33.527344 16.265625 C 33.625 16.285156 33.632812 16.285156 34.066406 16.152344 C 34.304688 16.078125 34.648438 15.964844 34.828125 15.902344 C 35.007812 15.835938 35.390625 15.699219 35.679688 15.59375 C 36.40625 15.335938 36.621094 15.210938 36.789062 14.953125 C 37.003906 14.617188 36.808594 14.164062 36.398438 14.046875 C 36.328125 14.027344 36.273438 14.015625 36.21875 14.015625 C 36.207031 14.015625 36.195312 14.015625 36.183594 14.015625 Z M 36.183594 14.015625 " fill-opacity="1" fill-rule="nonzero"/><g clip-path="url(#4ff9c45615)"><path fill="#0099dd" d="M 11.375 21.457031 C 11.277344 21.457031 11.105469 21.476562 11.015625 21.5 C 10.910156 21.53125 10.636719 21.558594 10.328125 21.570312 C 10.148438 21.578125 9.933594 21.636719 9.835938 21.710938 C 9.644531 21.851562 9.5 21.878906 9.371094 21.792969 C 9.210938 21.683594 9.085938 21.667969 8.914062 21.734375 C 8.875 21.75 8.832031 21.75 8.800781 21.734375 C 8.675781 21.667969 8.261719 21.632812 8.046875 21.667969 C 7.882812 21.691406 7.660156 21.761719 7.53125 21.828125 C 6.933594 22.136719 6.820312 22.226562 6.726562 22.460938 C 6.570312 22.847656 6.730469 23.25 7.121094 23.4375 C 7.285156 23.519531 7.445312 23.535156 7.960938 23.515625 C 8.058594 23.515625 8.152344 23.515625 8.167969 23.515625 C 8.234375 23.53125 8.597656 23.449219 8.738281 23.386719 C 8.878906 23.328125 9.011719 23.304688 9.050781 23.339844 C 9.066406 23.351562 9.296875 23.402344 9.40625 23.414062 C 9.457031 23.421875 9.539062 23.453125 9.59375 23.480469 C 9.699219 23.539062 9.792969 23.566406 9.847656 23.554688 C 9.867188 23.554688 9.890625 23.558594 9.902344 23.566406 C 9.914062 23.574219 9.945312 23.578125 9.96875 23.570312 C 9.992188 23.5625 10.058594 23.566406 10.117188 23.582031 C 10.175781 23.601562 10.230469 23.609375 10.242188 23.605469 C 10.253906 23.605469 10.304688 23.613281 10.359375 23.625 C 10.410156 23.640625 10.484375 23.648438 10.523438 23.648438 C 10.675781 23.636719 10.71875 23.640625 10.808594 23.660156 C 10.859375 23.671875 10.921875 23.679688 10.945312 23.671875 C 10.96875 23.667969 10.996094 23.667969 11.007812 23.679688 C 11.035156 23.699219 11.089844 23.910156 11.101562 24.023438 C 11.105469 24.074219 11.125 24.15625 11.144531 24.203125 C 11.167969 24.261719 11.171875 24.3125 11.160156 24.367188 C 11.148438 24.414062 11.148438 24.511719 11.160156 24.582031 C 11.171875 24.652344 11.1875 24.8125 11.199219 24.9375 C 11.210938 25.0625 11.226562 25.210938 11.242188 25.265625 C 11.269531 25.382812 11.300781 25.351562 10.890625 25.613281 C 10.574219 25.8125 10.371094 25.964844 10.207031 26.128906 C 10.128906 26.203125 10.074219 26.242188 9.996094 26.269531 C 9.867188 26.320312 9.71875 26.453125 9.597656 26.625 C 9.515625 26.742188 9.429688 26.820312 9.316406 26.878906 C 9.09375 26.992188 8.945312 27.132812 8.882812 27.285156 C 8.835938 27.40625 8.835938 27.40625 8.558594 27.578125 C 8.371094 27.695312 8.257812 27.753906 8.203125 27.761719 C 8.101562 27.777344 8.050781 27.8125 7.984375 27.914062 C 7.929688 27.996094 7.878906 28.171875 7.886719 28.238281 C 7.894531 28.28125 7.8125 28.390625 7.726562 28.445312 C 7.699219 28.464844 7.605469 28.496094 7.519531 28.515625 C 7.433594 28.535156 7.359375 28.550781 7.355469 28.554688 C 7.355469 28.558594 7.296875 28.589844 7.230469 28.621094 C 7.164062 28.652344 7.046875 28.71875 6.972656 28.773438 C 6.898438 28.828125 6.742188 28.925781 6.628906 29 C 6.34375 29.175781 5.964844 29.421875 5.761719 29.566406 C 5.667969 29.632812 5.488281 29.742188 5.363281 29.8125 C 5.113281 29.953125 4.980469 30.0625 4.785156 30.292969 C 4.488281 30.640625 4.410156 30.988281 4.550781 31.34375 C 4.601562 31.476562 4.609375 31.484375 4.761719 31.617188 C 5.015625 31.835938 5.234375 31.863281 5.558594 31.71875 C 5.726562 31.644531 5.726562 31.644531 5.933594 31.402344 C 6.132812 31.167969 6.214844 31.097656 6.351562 31.023438 C 6.425781 30.984375 6.65625 30.765625 6.695312 30.703125 C 6.707031 30.679688 6.769531 30.617188 6.828125 30.5625 C 7.253906 30.195312 7.476562 29.972656 7.726562 29.679688 C 7.984375 29.378906 7.984375 29.378906 8.167969 29.378906 C 8.382812 29.378906 8.574219 29.34375 8.679688 29.28125 C 8.722656 29.257812 8.773438 29.230469 8.796875 29.230469 C 8.921875 29.207031 9.3125 28.933594 9.710938 28.585938 C 9.808594 28.496094 9.902344 28.421875 9.910156 28.414062 C 9.925781 28.40625 9.992188 28.449219 10.082031 28.519531 C 10.207031 28.613281 10.253906 28.640625 10.371094 28.671875 C 10.507812 28.714844 10.507812 28.714844 10.546875 28.832031 C 10.625 29.074219 10.679688 29.148438 10.957031 29.390625 C 11.261719 29.660156 11.339844 29.691406 11.597656 29.675781 C 11.863281 29.660156 11.988281 29.59375 12.175781 29.378906 C 12.261719 29.28125 12.351562 29.191406 12.382812 29.175781 C 12.410156 29.160156 12.445312 29.132812 12.457031 29.117188 C 12.5 29.070312 12.574219 29.066406 12.625 29.109375 C 12.660156 29.144531 12.671875 29.183594 12.679688 29.34375 C 12.703125 29.726562 12.828125 29.839844 13.242188 29.832031 C 13.375 29.828125 13.445312 29.839844 13.519531 29.871094 C 13.660156 29.9375 13.742188 29.957031 13.789062 29.9375 C 13.808594 29.929688 13.835938 29.929688 13.84375 29.9375 C 13.867188 29.957031 14.046875 29.929688 14.15625 29.890625 C 14.242188 29.859375 14.242188 29.859375 14.28125 29.945312 C 14.328125 30.058594 14.523438 30.234375 14.667969 30.289062 C 14.875 30.371094 15.136719 30.367188 15.34375 30.273438 C 15.398438 30.25 15.488281 30.214844 15.546875 30.195312 C 15.738281 30.132812 15.78125 30.101562 16.011719 29.832031 C 16.433594 29.335938 16.5625 29.164062 16.59375 29.039062 C 16.621094 28.933594 16.605469 28.746094 16.566406 28.714844 C 16.53125 28.683594 16.546875 28.601562 16.625 28.433594 C 16.722656 28.214844 16.769531 28.015625 16.742188 27.902344 C 16.734375 27.875 16.746094 27.804688 16.761719 27.742188 C 16.777344 27.683594 16.789062 27.578125 16.785156 27.511719 C 16.777344 27.421875 16.785156 27.378906 16.8125 27.34375 C 16.882812 27.261719 16.953125 27.117188 16.960938 27.023438 C 16.972656 26.933594 16.980469 26.917969 17.140625 26.71875 C 17.324219 26.484375 17.351562 26.425781 17.382812 26.1875 C 17.398438 26.082031 17.410156 26.054688 17.554688 25.839844 C 17.855469 25.394531 17.894531 25.328125 17.9375 25.222656 C 17.984375 25.09375 18 24.902344 17.984375 24.605469 C 17.96875 24.308594 17.921875 24.207031 17.703125 23.960938 C 17.617188 23.867188 17.527344 23.765625 17.507812 23.742188 C 17.238281 23.445312 17.015625 23.332031 16.636719 23.300781 C 16.433594 23.285156 16.34375 23.238281 15.992188 22.976562 C 15.878906 22.894531 15.691406 22.773438 15.582031 22.707031 C 15.347656 22.566406 15.148438 22.441406 14.996094 22.347656 C 14.894531 22.28125 14.863281 22.269531 14.71875 22.222656 C 14.683594 22.214844 14.59375 22.171875 14.511719 22.132812 C 14.304688 22.03125 14.070312 21.960938 13.933594 21.964844 C 13.871094 21.964844 13.761719 21.960938 13.695312 21.953125 C 13.628906 21.945312 13.546875 21.941406 13.507812 21.949219 C 13.429688 21.96875 13.363281 21.957031 13.3125 21.914062 C 13.257812 21.867188 12.921875 21.796875 12.796875 21.800781 C 12.738281 21.804688 12.65625 21.796875 12.613281 21.785156 C 12.570312 21.769531 12.511719 21.757812 12.480469 21.761719 C 12.453125 21.761719 12.382812 21.746094 12.332031 21.726562 C 12.28125 21.707031 12.203125 21.691406 12.15625 21.6875 C 12.109375 21.683594 12.058594 21.675781 12.046875 21.667969 C 12.035156 21.65625 12.007812 21.648438 11.980469 21.648438 C 11.957031 21.644531 11.925781 21.636719 11.917969 21.628906 C 11.90625 21.621094 11.859375 21.609375 11.8125 21.605469 C 11.742188 21.597656 11.667969 21.570312 11.445312 21.464844 C 11.433594 21.460938 11.410156 21.457031 11.375 21.457031 Z M 10.328125 30.050781 C 10.300781 30.050781 10.246094 30.074219 10.230469 30.09375 C 10.210938 30.117188 10.15625 30.121094 10.035156 30.117188 C 9.785156 30.101562 9.742188 30.128906 9.382812 30.554688 C 9.097656 30.882812 9.101562 30.882812 9.082031 30.984375 C 9.066406 31.058594 9.050781 31.097656 9.019531 31.117188 C 8.996094 31.136719 8.96875 31.179688 8.953125 31.226562 C 8.929688 31.289062 8.878906 31.359375 8.734375 31.535156 C 8.550781 31.746094 8.539062 31.761719 8.449219 31.796875 C 8.355469 31.832031 8.347656 31.839844 8.054688 32.183594 C 7.890625 32.378906 7.664062 32.660156 7.546875 32.8125 C 7.433594 32.964844 7.183594 33.289062 6.996094 33.535156 C 6.527344 34.148438 6.410156 34.371094 6.410156 34.675781 C 6.40625 35.078125 6.816406 35.351562 7.222656 35.226562 C 7.410156 35.167969 7.472656 35.121094 7.644531 34.898438 C 7.726562 34.792969 7.871094 34.605469 7.972656 34.480469 C 8.070312 34.355469 8.183594 34.195312 8.222656 34.125 C 8.261719 34.054688 8.335938 33.941406 8.390625 33.875 C 8.476562 33.777344 8.6875 33.417969 8.699219 33.355469 C 8.699219 33.347656 8.796875 33.214844 8.910156 33.066406 C 9.089844 32.835938 9.125 32.777344 9.15625 32.683594 C 9.199219 32.550781 9.492188 32.191406 9.726562 31.980469 C 9.839844 31.878906 9.878906 31.832031 9.996094 31.652344 C 10.070312 31.539062 10.242188 31.304688 10.375 31.140625 C 10.617188 30.839844 10.617188 30.839844 10.644531 30.683594 C 10.691406 30.414062 10.695312 30.425781 10.507812 30.230469 C 10.417969 30.136719 10.34375 30.0625 10.34375 30.058594 C 10.34375 30.054688 10.335938 30.050781 10.328125 30.050781 Z M 15.921875 30.753906 C 15.703125 30.757812 15.421875 30.9375 15.21875 31.210938 C 14.992188 31.511719 14.960938 31.84375 15.121094 32.300781 C 15.160156 32.417969 15.195312 32.535156 15.199219 32.5625 C 15.210938 32.660156 15.304688 32.945312 15.367188 33.082031 C 15.398438 33.15625 15.433594 33.253906 15.441406 33.300781 C 15.449219 33.347656 15.464844 33.425781 15.480469 33.472656 C 15.496094 33.519531 15.511719 33.578125 15.515625 33.605469 C 15.519531 33.632812 15.550781 33.730469 15.585938 33.820312 C 15.675781 34.050781 15.683594 34.09375 15.644531 34.175781 C 15.601562 34.265625 15.601562 34.269531 15.734375 34.347656 C 15.820312 34.402344 15.847656 34.429688 15.863281 34.464844 C 15.878906 34.507812 15.890625 34.511719 15.976562 34.515625 C 16.089844 34.519531 16.179688 34.460938 16.328125 34.289062 C 16.527344 34.050781 16.535156 33.914062 16.375 33.554688 C 16.367188 33.539062 16.371094 33.457031 16.386719 33.371094 C 16.421875 33.167969 16.394531 32.761719 16.316406 32.199219 C 16.285156 31.980469 16.304688 31.445312 16.347656 31.332031 C 16.382812 31.234375 16.375 31.097656 16.332031 30.996094 C 16.292969 30.914062 16.128906 30.792969 16.011719 30.765625 C 15.984375 30.757812 15.953125 30.753906 15.921875 30.753906 Z M 12.789062 30.992188 C 12.636719 30.996094 12.328125 31.109375 12.304688 31.1875 C 12.289062 31.246094 12.15625 31.566406 12.085938 31.71875 C 12.050781 31.800781 12.03125 31.828125 11.992188 31.847656 C 11.929688 31.875 11.851562 32.019531 11.765625 32.273438 C 11.628906 32.664062 11.441406 33.082031 11.375 33.140625 C 11.320312 33.195312 11.226562 33.347656 11.125 33.554688 C 11.105469 33.59375 11.070312 33.714844 11.042969 33.824219 C 10.996094 34.023438 10.996094 34.023438 10.816406 34.21875 C 10.523438 34.53125 10.28125 34.992188 10.125 35.515625 C 10.070312 35.710938 10.09375 35.980469 10.199219 36.253906 C 10.253906 36.398438 10.457031 36.5625 10.605469 36.578125 C 10.855469 36.605469 11.070312 36.441406 11.257812 36.074219 C 11.304688 35.984375 11.398438 35.835938 11.46875 35.738281 C 11.605469 35.542969 11.652344 35.464844 11.722656 35.273438 C 11.769531 35.152344 11.789062 35.074219 11.855469 34.796875 C 11.871094 34.738281 11.941406 34.515625 12.015625 34.296875 C 12.089844 34.082031 12.167969 33.859375 12.1875 33.804688 C 12.207031 33.75 12.269531 33.589844 12.332031 33.449219 C 12.460938 33.167969 12.59375 32.691406 12.613281 32.4375 C 12.628906 32.242188 12.632812 32.21875 12.738281 31.957031 C 12.945312 31.425781 12.960938 31.355469 12.917969 31.152344 C 12.90625 31.085938 12.882812 31.023438 12.863281 31.007812 C 12.851562 30.996094 12.824219 30.988281 12.789062 30.992188 Z M 12.789062 30.992188 " fill-opacity="1" fill-rule="nonzero"/></g><g clip-path="url(#8d19863726)"><path fill="#bb33aa" d="M 22.050781 21.835938 C 21.925781 21.835938 21.8125 21.875 21.628906 21.96875 C 21.515625 22.027344 21.394531 22.089844 21.367188 22.105469 C 21.011719 22.285156 20.84375 22.46875 20.710938 22.828125 C 20.640625 23.019531 20.570312 23.09375 20.226562 23.367188 C 20.117188 23.457031 19.949219 23.601562 19.859375 23.691406 C 19.660156 23.878906 19.488281 24.039062 19.355469 24.160156 C 19.265625 24.242188 19.246094 24.269531 19.164062 24.402344 C 19.144531 24.429688 19.082031 24.503906 19.023438 24.570312 C 18.867188 24.746094 18.738281 24.957031 18.707031 25.089844 C 18.6875 25.152344 18.65625 25.253906 18.628906 25.316406 C 18.605469 25.378906 18.582031 25.460938 18.578125 25.496094 C 18.574219 25.582031 18.542969 25.640625 18.488281 25.679688 C 18.429688 25.71875 18.273438 26.023438 18.246094 26.148438 C 18.230469 26.207031 18.199219 26.285156 18.175781 26.320312 C 18.152344 26.359375 18.125 26.414062 18.117188 26.445312 C 18.113281 26.472656 18.078125 26.535156 18.046875 26.578125 C 18.015625 26.621094 17.976562 26.695312 17.960938 26.742188 C 17.945312 26.789062 17.925781 26.832031 17.914062 26.839844 C 17.898438 26.847656 17.882812 26.875 17.875 26.898438 C 17.867188 26.921875 17.851562 26.949219 17.839844 26.957031 C 17.828125 26.960938 17.808594 27.003906 17.789062 27.050781 C 17.761719 27.117188 17.714844 27.179688 17.558594 27.367188 C 17.527344 27.40625 17.476562 27.671875 17.476562 27.796875 C 17.476562 27.90625 17.429688 28.179688 17.355469 28.484375 C 17.3125 28.660156 17.3125 28.882812 17.355469 29 C 17.441406 29.222656 17.425781 29.367188 17.3125 29.46875 C 17.164062 29.597656 17.113281 29.714844 17.132812 29.898438 C 17.136719 29.9375 17.125 29.980469 17.101562 30.007812 C 17.007812 30.109375 16.859375 30.503906 16.832031 30.722656 C 16.8125 30.886719 16.820312 31.125 16.851562 31.265625 C 16.984375 31.929688 17.039062 32.0625 17.234375 32.214844 C 17.566406 32.472656 17.992188 32.425781 18.277344 32.097656 C 18.398438 31.960938 18.457031 31.808594 18.582031 31.300781 C 18.601562 31.207031 18.628906 31.117188 18.636719 31.105469 C 18.667969 31.042969 18.683594 30.667969 18.664062 30.515625 C 18.644531 30.363281 18.660156 30.226562 18.703125 30.199219 C 18.71875 30.1875 18.832031 29.976562 18.871094 29.875 C 18.890625 29.828125 18.941406 29.753906 18.984375 29.707031 C 19.070312 29.621094 19.121094 29.539062 19.125 29.484375 C 19.128906 29.464844 19.136719 29.441406 19.148438 29.433594 C 19.164062 29.425781 19.171875 29.398438 19.171875 29.371094 C 19.167969 29.347656 19.191406 29.285156 19.222656 29.230469 C 19.253906 29.179688 19.277344 29.125 19.277344 29.117188 C 19.277344 29.105469 19.300781 29.054688 19.328125 29.007812 C 19.355469 28.960938 19.386719 28.890625 19.394531 28.851562 C 19.425781 28.699219 19.4375 28.660156 19.484375 28.578125 C 19.511719 28.535156 19.53125 28.476562 19.53125 28.449219 C 19.53125 28.425781 19.542969 28.398438 19.554688 28.390625 C 19.582031 28.371094 19.796875 28.375 19.910156 28.394531 C 19.960938 28.40625 20.042969 28.40625 20.089844 28.402344 C 20.152344 28.394531 20.203125 28.402344 20.253906 28.429688 C 20.292969 28.453125 20.386719 28.480469 20.457031 28.488281 C 20.527344 28.496094 20.683594 28.519531 20.808594 28.546875 C 20.933594 28.570312 21.078125 28.589844 21.136719 28.59375 C 21.253906 28.597656 21.234375 28.558594 21.371094 29.023438 C 21.476562 29.382812 21.566406 29.625 21.679688 29.832031 C 21.730469 29.925781 21.75 29.988281 21.757812 30.070312 C 21.769531 30.210938 21.855469 30.390625 21.988281 30.554688 C 22.082031 30.667969 22.128906 30.769531 22.15625 30.894531 C 22.207031 31.140625 22.300781 31.324219 22.429688 31.421875 C 22.53125 31.503906 22.53125 31.503906 22.621094 31.816406 C 22.683594 32.035156 22.707031 32.160156 22.703125 32.214844 C 22.691406 32.316406 22.707031 32.375 22.785156 32.464844 C 22.851562 32.542969 23.003906 32.640625 23.070312 32.644531 C 23.113281 32.652344 23.195312 32.761719 23.226562 32.859375 C 23.238281 32.894531 23.242188 32.992188 23.238281 33.082031 C 23.230469 33.167969 23.230469 33.246094 23.230469 33.25 C 23.234375 33.253906 23.246094 33.316406 23.257812 33.390625 C 23.269531 33.460938 23.304688 33.59375 23.335938 33.679688 C 23.367188 33.765625 23.421875 33.945312 23.460938 34.074219 C 23.550781 34.398438 23.683594 34.832031 23.765625 35.070312 C 23.804688 35.179688 23.863281 35.382812 23.894531 35.519531 C 23.960938 35.800781 24.03125 35.964844 24.195312 36.214844 C 24.449219 36.59375 24.761719 36.761719 25.136719 36.722656 C 25.277344 36.707031 25.289062 36.703125 25.457031 36.589844 C 25.734375 36.40625 25.820312 36.199219 25.769531 35.84375 C 25.742188 35.664062 25.742188 35.664062 25.566406 35.398438 C 25.398438 35.140625 25.351562 35.042969 25.320312 34.890625 C 25.300781 34.804688 25.15625 34.523438 25.105469 34.472656 C 25.085938 34.449219 25.042969 34.375 25.007812 34.300781 C 24.769531 33.789062 24.617188 33.511719 24.40625 33.191406 C 24.1875 32.863281 24.1875 32.863281 24.238281 32.683594 C 24.296875 32.476562 24.3125 32.28125 24.28125 32.160156 C 24.265625 32.109375 24.261719 32.054688 24.261719 32.03125 C 24.277344 31.90625 24.117188 31.453125 23.894531 30.972656 C 23.835938 30.851562 23.789062 30.742188 23.785156 30.730469 C 23.78125 30.714844 23.839844 30.664062 23.929688 30.59375 C 24.054688 30.5 24.09375 30.460938 24.15625 30.355469 C 24.230469 30.230469 24.230469 30.234375 24.355469 30.226562 C 24.605469 30.21875 24.691406 30.183594 25 29.980469 C 25.335938 29.757812 25.390625 29.6875 25.445312 29.4375 C 25.5 29.175781 25.472656 29.03125 25.316406 28.792969 C 25.246094 28.6875 25.183594 28.574219 25.179688 28.539062 C 25.171875 28.507812 25.15625 28.464844 25.140625 28.449219 C 25.109375 28.398438 25.125 28.324219 25.183594 28.289062 C 25.222656 28.261719 25.265625 28.261719 25.417969 28.292969 C 25.792969 28.375 25.933594 28.28125 26.035156 27.878906 C 26.070312 27.753906 26.097656 27.683594 26.152344 27.621094 C 26.25 27.503906 26.292969 27.429688 26.285156 27.378906 C 26.285156 27.355469 26.292969 27.332031 26.300781 27.324219 C 26.324219 27.308594 26.34375 27.128906 26.339844 27.011719 C 26.332031 26.917969 26.332031 26.914062 26.425781 26.90625 C 26.546875 26.890625 26.769531 26.746094 26.859375 26.621094 C 26.996094 26.441406 27.058594 26.183594 27.027344 25.960938 C 27.019531 25.902344 27.011719 25.804688 27.007812 25.742188 C 27 25.539062 26.980469 25.492188 26.78125 25.195312 C 26.421875 24.652344 26.289062 24.480469 26.179688 24.414062 C 26.085938 24.359375 25.90625 24.328125 25.863281 24.355469 C 25.824219 24.378906 25.753906 24.339844 25.613281 24.21875 C 25.433594 24.066406 25.25 23.96875 25.136719 23.964844 C 25.109375 23.964844 25.042969 23.9375 24.988281 23.90625 C 24.9375 23.871094 24.839844 23.832031 24.773438 23.820312 C 24.683594 23.800781 24.648438 23.785156 24.625 23.746094 C 24.5625 23.65625 24.441406 23.550781 24.355469 23.515625 C 24.273438 23.480469 24.261719 23.46875 24.109375 23.257812 C 23.941406 23.015625 23.890625 22.976562 23.671875 22.882812 C 23.574219 22.839844 23.550781 22.820312 23.382812 22.617188 C 23.039062 22.207031 22.988281 22.152344 22.898438 22.082031 C 22.785156 22 22.613281 21.933594 22.320312 21.871094 C 22.214844 21.847656 22.128906 21.835938 22.050781 21.835938 Z M 28.0625 25.191406 C 28.050781 25.191406 28.035156 25.191406 28.023438 25.195312 C 28.011719 25.195312 27.996094 25.195312 27.980469 25.195312 C 27.890625 25.210938 27.734375 25.339844 27.675781 25.445312 C 27.5625 25.648438 27.652344 26.023438 27.886719 26.335938 C 28.113281 26.636719 28.425781 26.753906 28.90625 26.722656 C 29.027344 26.714844 29.148438 26.714844 29.175781 26.71875 C 29.273438 26.730469 29.566406 26.71875 29.710938 26.695312 C 29.792969 26.683594 29.898438 26.679688 29.945312 26.683594 C 29.992188 26.691406 30.070312 26.691406 30.117188 26.691406 C 30.167969 26.6875 30.230469 26.6875 30.257812 26.691406 C 30.285156 26.695312 30.382812 26.691406 30.480469 26.683594 C 30.722656 26.65625 30.769531 26.660156 30.835938 26.71875 C 30.914062 26.785156 30.914062 26.789062 31.023438 26.683594 C 31.097656 26.613281 31.132812 26.59375 31.171875 26.589844 C 31.21875 26.582031 31.226562 26.574219 31.25 26.488281 C 31.285156 26.378906 31.253906 26.277344 31.125 26.089844 C 30.957031 25.832031 30.828125 25.785156 30.4375 25.84375 C 30.421875 25.847656 30.34375 25.820312 30.265625 25.785156 C 30.082031 25.695312 29.6875 25.609375 29.128906 25.535156 C 28.910156 25.503906 28.40625 25.34375 28.304688 25.269531 C 28.242188 25.222656 28.152344 25.195312 28.0625 25.191406 Z M 27.160156 28.546875 C 27.113281 28.550781 27.074219 28.554688 27.058594 28.5625 C 26.976562 28.617188 26.996094 29.101562 27.078125 29.15625 C 27.132812 29.1875 27.402344 29.402344 27.527344 29.511719 C 27.597656 29.570312 27.617188 29.59375 27.625 29.636719 C 27.636719 29.703125 27.753906 29.820312 27.972656 29.972656 C 28.308594 30.210938 28.65625 30.503906 28.699219 30.585938 C 28.734375 30.652344 28.855469 30.785156 29.023438 30.9375 C 29.054688 30.96875 29.160156 31.035156 29.257812 31.089844 C 29.4375 31.1875 29.4375 31.1875 29.574219 31.417969 C 29.796875 31.785156 30.167969 32.144531 30.628906 32.4375 C 30.800781 32.546875 31.0625 32.59375 31.355469 32.566406 C 31.507812 32.554688 31.714844 32.398438 31.773438 32.257812 C 31.867188 32.023438 31.769531 31.773438 31.472656 31.492188 C 31.398438 31.421875 31.277344 31.289062 31.203125 31.195312 C 31.054688 31.007812 30.992188 30.945312 30.832031 30.824219 C 30.726562 30.746094 30.65625 30.703125 30.410156 30.566406 C 30.359375 30.535156 30.160156 30.402344 29.976562 30.273438 C 29.789062 30.144531 29.597656 30.007812 29.550781 29.976562 C 29.503906 29.945312 29.367188 29.835938 29.25 29.738281 C 29.011719 29.539062 28.597656 29.285156 28.355469 29.195312 C 28.175781 29.128906 28.15625 29.113281 27.933594 28.945312 C 27.480469 28.601562 27.417969 28.566406 27.210938 28.550781 C 27.191406 28.546875 27.175781 28.546875 27.160156 28.546875 Z M 25.914062 30.542969 C 25.859375 30.542969 25.800781 30.578125 25.683594 30.640625 C 25.570312 30.703125 25.472656 30.753906 25.472656 30.753906 C 25.453125 30.753906 25.457031 30.847656 25.476562 30.875 C 25.492188 30.902344 25.484375 30.957031 25.445312 31.070312 C 25.367188 31.308594 25.382812 31.355469 25.6875 31.820312 C 25.929688 32.183594 25.925781 32.183594 26.019531 32.230469 C 26.085938 32.261719 26.117188 32.289062 26.128906 32.324219 C 26.136719 32.351562 26.175781 32.390625 26.214844 32.421875 C 26.265625 32.457031 26.320312 32.527344 26.445312 32.714844 C 26.601562 32.949219 26.613281 32.96875 26.625 33.066406 C 26.632812 33.164062 26.636719 33.171875 26.886719 33.550781 C 27.027344 33.757812 27.234375 34.054688 27.351562 34.210938 C 27.464844 34.363281 27.710938 34.691406 27.894531 34.941406 C 28.351562 35.5625 28.53125 35.734375 28.824219 35.816406 C 29.207031 35.929688 29.578125 35.605469 29.570312 35.175781 C 29.566406 34.980469 29.539062 34.910156 29.371094 34.679688 C 29.292969 34.574219 29.152344 34.378906 29.058594 34.25 C 28.964844 34.117188 28.84375 33.96875 28.785156 33.910156 C 28.730469 33.855469 28.644531 33.75 28.597656 33.679688 C 28.523438 33.570312 28.234375 33.265625 28.179688 33.238281 C 28.171875 33.234375 28.070312 33.109375 27.960938 32.957031 C 27.785156 32.722656 27.738281 32.667969 27.660156 32.613281 C 27.546875 32.539062 27.28125 32.15625 27.144531 31.875 C 27.078125 31.734375 27.042969 31.683594 26.902344 31.523438 C 26.8125 31.417969 26.636719 31.191406 26.515625 31.015625 C 26.292969 30.699219 26.292969 30.699219 26.152344 30.632812 C 26.027344 30.570312 25.972656 30.542969 25.914062 30.542969 Z M 25.914062 30.542969 " fill-opacity="1" fill-rule="nonzero"/></g></svg>