<svg xmlns="http://www.w3.org/2000/svg" xmlns:xlink="http://www.w3.org/1999/xlink" width="50" zoomAndPan="magnify" viewBox="0 0 37.5 37.499999" height="50" preserveAspectRatio="xMidYMid meet" version="1.0"><path fill="#0593fc" d="M 6.546875 34.71875 C 6.546875 36.347656 9.878906 36.445312 9.878906 34.816406 L 9.878906 27.5 L 11.40625 27.5 C 12.015625 27.5 12.511719 27 12.511719 26.394531 L 12.511719 19.949219 C 12.511719 17.167969 8.558594 17.402344 6.546875 18.046875 C 4.539062 17.402344 0.585938 17.167969 0.585938 19.949219 L 0.585938 26.394531 C 0.585938 27 1.082031 27.5 1.691406 27.5 L 3.21875 27.5 L 3.21875 34.816406 C 3.21875 36.445312 6.546875 36.347656 6.546875 34.71875 Z M 6.546875 34.71875 " fill-opacity="1" fill-rule="evenodd"/><path fill="#86e7ff" d="M 12.507812 25.613281 L 12.507812 19.949219 C 12.507812 17.167969 8.558594 17.402344 6.546875 18.046875 C 5.597656 17.742188 4.210938 17.527344 3.019531 17.683594 C 3.273438 22.226562 6.65625 25.824219 10.796875 25.824219 C 11.386719 25.824219 11.960938 25.75 12.507812 25.613281 Z M 12.507812 25.613281 " fill-opacity="1" fill-rule="evenodd"/><path fill="#ff9aa2" d="M 6.546875 12.070312 C 4.882812 12.070312 3.53125 13.421875 3.53125 15.085938 C 3.53125 16.753906 4.882812 18.101562 6.546875 18.101562 C 8.214844 18.101562 9.5625 16.753906 9.5625 15.085938 C 9.5625 13.421875 8.214844 12.070312 6.546875 12.070312 Z M 6.546875 12.070312 " fill-opacity="1" fill-rule="evenodd"/><path fill="#ffa203" d="M 36.367188 22.765625 C 35.957031 23.632812 31.984375 24.273438 30.824219 22.601562 C 29.90625 23.304688 28.65625 23.460938 27.578125 23.011719 C 25.378906 17.625 25.230469 11.675781 27.148438 6.199219 C 35.449219 9.386719 30.242188 17.265625 36.367188 22.765625 Z M 36.367188 22.765625 " fill-opacity="1" fill-rule="evenodd"/><path fill="#ffcc00" d="M 33.753906 23.640625 C 32.601562 23.675781 31.386719 23.410156 30.824219 22.601562 C 29.910156 23.304688 28.65625 23.460938 27.578125 23.011719 C 25.660156 18.3125 25.300781 13.183594 26.515625 8.3125 C 32.628906 11.679688 28.945312 18.523438 33.753906 23.640625 Z M 33.753906 23.640625 " fill-opacity="1" fill-rule="evenodd"/><path fill="#b6332f" d="M 21.320312 6.503906 C 21.71875 6.300781 22.171875 6.199219 22.648438 6.199219 L 27.070312 6.199219 C 27.550781 6.199219 28.003906 6.300781 28.398438 6.503906 L 32.347656 9.097656 C 33.046875 9.917969 32.882812 10.601562 32.289062 11.292969 L 29.390625 14.769531 C 29.09375 15.066406 28.753906 15.15625 28.441406 15.109375 L 28.441406 22.808594 C 28.441406 23.957031 27.636719 24.898438 26.648438 24.898438 C 25.664062 24.898438 24.859375 23.957031 24.859375 22.808594 C 24.859375 23.957031 24.054688 24.898438 23.070312 24.898438 C 22.085938 24.898438 21.28125 23.957031 21.28125 22.808594 L 21.28125 15.109375 C 20.964844 15.15625 20.625 15.066406 20.328125 14.769531 L 17.433594 11.292969 C 16.835938 10.601562 16.671875 9.917969 17.375 9.097656 Z M 28.4375 12.523438 L 28.4375 9.699219 L 29.886719 10.738281 Z M 21.28125 12.523438 L 21.28125 9.699219 L 19.832031 10.738281 Z M 21.28125 12.523438 " fill-opacity="1" fill-rule="evenodd"/><path fill="#f94640" d="M 23.269531 6.199219 L 27.070312 6.199219 C 27.546875 6.199219 28 6.300781 28.398438 6.503906 L 32.347656 9.097656 C 33.046875 9.917969 32.882812 10.601562 32.289062 11.292969 L 29.390625 14.769531 C 29.09375 15.066406 28.753906 15.15625 28.4375 15.109375 L 28.4375 19.765625 C 25.097656 18.28125 22.710938 14.421875 22.710938 9.898438 C 22.710938 8.59375 22.910156 7.347656 23.269531 6.199219 Z M 28.4375 12.523438 L 28.4375 9.699219 L 29.886719 10.738281 Z M 28.4375 12.523438 " fill-opacity="1" fill-rule="evenodd"/><path fill="#ff9aa2" d="M 24.898438 0.933594 C 26.601562 0.933594 27.984375 2.3125 27.984375 4.019531 C 27.984375 5.722656 26.601562 7.105469 24.898438 7.105469 C 23.191406 7.105469 21.808594 5.722656 21.808594 4.019531 C 21.808594 2.3125 23.191406 0.933594 24.898438 0.933594 Z M 24.898438 0.933594 " fill-opacity="1" fill-rule="evenodd"/><path fill="#000000" d="M 18.535156 1.289062 C 18.359375 1.035156 18.421875 0.691406 18.675781 0.515625 C 18.929688 0.34375 19.273438 0.40625 19.445312 0.65625 L 20.449219 2.109375 C 20.609375 2.34375 20.566406 2.660156 20.355469 2.84375 C 20.277344 2.929688 20.171875 2.984375 20.054688 3.007812 L 18.636719 3.683594 C 18.359375 3.816406 18.027344 3.695312 17.898438 3.417969 C 17.765625 3.140625 17.886719 2.8125 18.164062 2.679688 L 18.320312 2.605469 C 13.773438 1.65625 9.125 3 5.804688 6.046875 C 3.257812 8.394531 1.566406 11.65625 1.265625 15.3125 C 1.238281 15.617188 0.96875 15.847656 0.664062 15.820312 C 0.355469 15.796875 0.128906 15.527344 0.15625 15.21875 C 0.882812 6.410156 8.972656 0 17.800781 1.382812 C 18.109375 1.429688 18.414062 1.488281 18.71875 1.554688 Z M 13.425781 31.914062 C 13.601562 32.164062 13.535156 32.511719 13.285156 32.683594 C 13.03125 32.859375 12.683594 32.796875 12.511719 32.542969 L 11.511719 31.09375 C 11.316406 30.808594 11.421875 30.421875 11.730469 30.273438 L 13.324219 29.515625 C 13.601562 29.386719 13.929688 29.507812 14.0625 29.78125 C 14.191406 30.058594 14.074219 30.390625 13.796875 30.523438 L 13.644531 30.59375 C 18.152344 31.132812 22.527344 29.585938 25.636719 26.355469 C 25.851562 26.132812 26.203125 26.128906 26.421875 26.339844 C 26.644531 26.550781 26.652344 26.902344 26.4375 27.125 C 23.035156 30.65625 18.160156 32.355469 13.253906 31.664062 Z M 28.886719 12.855469 L 28.21875 13.578125 C 27.582031 14.261719 28.53125 14.875 28.988281 14.390625 L 31.679688 11.160156 C 31.902344 10.871094 32.21875 10.582031 32.25 10.203125 C 32.265625 10.003906 32.179688 9.777344 31.972656 9.515625 L 28.128906 6.988281 C 27.921875 6.871094 27.546875 6.785156 27.296875 6.761719 C 26.652344 7.324219 25.816406 7.664062 24.898438 7.664062 C 23.976562 7.664062 23.136719 7.320312 22.496094 6.757812 C 22.351562 6.765625 22.210938 6.785156 22.078125 6.816406 C 21.90625 6.855469 21.746094 6.914062 21.589844 6.988281 L 17.75 9.515625 C 17.539062 9.777344 17.457031 10.003906 17.472656 10.203125 C 17.488281 10.429688 17.632812 10.675781 17.855469 10.933594 L 17.851562 10.933594 L 20.734375 14.390625 C 20.808594 14.460938 20.886719 14.507812 20.960938 14.535156 L 20.960938 14.539062 C 21.421875 14.699219 22.109375 14.105469 21.574219 13.585938 L 20.839844 12.859375 L 19.429688 11.121094 C 19.195312 10.851562 19.242188 10.480469 19.507812 10.285156 L 20.941406 9.257812 C 21.324219 8.976562 21.835938 9.253906 21.835938 9.699219 L 21.835938 12.289062 C 22.332031 12.773438 22.789062 13.117188 22.875 13.792969 C 22.964844 14.535156 22.5 15.226562 21.835938 15.527344 L 21.835938 22.808594 C 21.835938 24.125 23.113281 24.851562 23.914062 23.925781 C 24.15625 23.640625 24.304688 23.246094 24.304688 22.808594 L 24.304688 16.558594 C 24.304688 16.253906 24.554688 16.003906 24.859375 16.003906 C 25.164062 16.003906 25.417969 16.253906 25.417969 16.558594 L 25.417969 22.808594 C 25.417969 24.125 26.695312 24.851562 27.492188 23.925781 C 27.734375 23.640625 27.882812 23.246094 27.882812 22.808594 L 27.882812 15.523438 C 26.84375 15.046875 26.523438 13.769531 27.402344 12.820312 L 27.882812 12.304688 L 27.882812 9.699219 C 27.882812 9.253906 28.394531 8.976562 28.777344 9.257812 L 30.210938 10.285156 C 30.476562 10.480469 30.527344 10.851562 30.292969 11.121094 Z M 24.898438 0.375 C 27.679688 0.375 29.421875 3.375 28.085938 5.78125 C 28.261719 5.835938 28.578125 5.953125 28.730469 6.058594 L 32.652344 8.636719 C 32.695312 8.664062 32.734375 8.699219 32.769531 8.738281 C 33.609375 9.726562 33.511719 10.703125 32.738281 11.621094 C 32.972656 12.535156 33.117188 13.476562 33.265625 14.4375 C 33.683594 17.140625 34.125 20.003906 36.738281 22.351562 C 36.933594 22.53125 36.976562 22.816406 36.851562 23.039062 C 36.457031 23.761719 35.152344 24.09375 34.140625 24.175781 C 32.988281 24.273438 31.59375 24.101562 30.730469 23.324219 C 30.148438 23.65625 29.484375 23.824219 28.8125 23.820312 C 28.148438 25.632812 26.003906 26.042969 24.859375 24.515625 C 23.964844 25.710938 22.355469 25.777344 21.382812 24.644531 C 20.976562 24.167969 20.722656 23.519531 20.722656 22.808594 L 20.722656 15.625 L 20.589844 15.585938 L 20.585938 15.585938 C 20.367188 15.503906 20.054688 15.320312 19.882812 15.105469 L 17.011719 11.65625 L 17.007812 11.65625 C 16.210938 10.730469 16.09375 9.742188 16.949219 8.738281 C 16.992188 8.691406 17.039062 8.648438 17.09375 8.617188 L 21.015625 6.039062 C 21.03125 6.03125 21.050781 6.019531 21.070312 6.007812 C 21.269531 5.90625 21.480469 5.824219 21.699219 5.765625 C 20.378906 3.355469 22.121094 0.375 24.898438 0.375 Z M 26.683594 2.230469 C 25.695312 1.242188 24.09375 1.242188 23.105469 2.230469 C 22.121094 3.214844 22.117188 4.8125 23.105469 5.808594 C 24.085938 6.792969 25.695312 6.796875 26.683594 5.808594 C 27.675781 4.820312 27.675781 3.21875 26.683594 2.230469 Z M 31.84375 12.691406 L 29.816406 15.125 C 29.804688 15.136719 29.792969 15.152344 29.78125 15.164062 C 29.546875 15.398438 29.285156 15.550781 28.996094 15.625 L 28.996094 22.703125 C 29.535156 22.675781 30.054688 22.488281 30.488281 22.160156 C 30.753906 21.964844 31.105469 22.027344 31.28125 22.285156 C 32.011719 23.335938 34.476562 23.207031 35.527344 22.734375 C 33.03125 20.21875 32.589844 17.335938 32.167969 14.601562 C 32.066406 13.949219 31.96875 13.308594 31.84375 12.691406 Z M 28.996094 10.785156 L 28.996094 10.957031 L 29.082031 10.847656 Z M 20.722656 10.957031 L 20.722656 10.785156 L 20.636719 10.847656 Z M 5.992188 34.71875 L 5.992188 27.730469 C 5.992188 27.421875 6.242188 27.171875 6.546875 27.171875 C 6.851562 27.171875 7.105469 27.421875 7.105469 27.730469 L 7.105469 34.71875 C 7.105469 35.613281 9.320312 35.6875 9.320312 34.8125 L 9.320312 22.210938 C 9.320312 21.902344 9.570312 21.652344 9.875 21.652344 C 10.183594 21.652344 10.433594 21.902344 10.433594 22.210938 L 10.433594 26.941406 L 11.402344 26.941406 C 11.703125 26.941406 11.953125 26.695312 11.953125 26.394531 L 11.953125 19.949219 C 11.953125 18.480469 10.488281 18.1875 9.234375 18.1875 C 8.894531 18.1875 8.542969 18.210938 8.199219 18.253906 C 7.703125 18.511719 7.144531 18.660156 6.546875 18.660156 C 5.949219 18.660156 5.386719 18.511719 4.894531 18.253906 C 4.558594 18.210938 4.207031 18.1875 3.855469 18.1875 C 2.605469 18.1875 1.140625 18.484375 1.140625 19.949219 L 1.140625 26.394531 C 1.140625 26.695312 1.386719 26.941406 1.6875 26.941406 L 2.660156 26.941406 L 2.660156 22.210938 C 2.660156 21.902344 2.910156 21.652344 3.21875 21.652344 C 3.523438 21.652344 3.773438 21.902344 3.773438 22.210938 L 3.773438 34.8125 C 3.777344 35.6875 5.992188 35.613281 5.992188 34.71875 Z M 6.546875 12.628906 C 5.1875 12.628906 4.089844 13.726562 4.089844 15.085938 C 4.089844 16.445312 5.1875 17.546875 6.546875 17.546875 C 7.90625 17.546875 9.007812 16.445312 9.007812 15.085938 C 9.007812 13.726562 7.90625 12.628906 6.546875 12.628906 Z M 4.019531 12.558594 C 5.417969 11.164062 7.679688 11.164062 9.074219 12.558594 C 10.28125 13.765625 10.46875 15.660156 9.515625 17.078125 C 11.308594 17.140625 13.066406 17.882812 13.066406 19.945312 L 13.066406 26.394531 C 13.066406 27.308594 12.320312 28.054688 11.40625 28.054688 L 10.433594 28.054688 L 10.433594 34.8125 C 10.433594 36.660156 7.746094 37.007812 6.546875 35.949219 C 5.347656 37.007812 2.660156 36.660156 2.660156 34.8125 L 2.660156 28.054688 L 1.691406 28.054688 C 0.773438 28.054688 0.03125 27.308594 0.03125 26.394531 L 0.03125 19.945312 C 0.03125 17.882812 1.789062 17.144531 3.582031 17.078125 C 2.628906 15.664062 2.816406 13.765625 4.019531 12.558594 Z M 4.019531 12.558594 " fill-opacity="1" fill-rule="nonzero"/></svg>