<svg xmlns="http://www.w3.org/2000/svg" xmlns:xlink="http://www.w3.org/1999/xlink" width="50" zoomAndPan="magnify" viewBox="0 0 37.5 37.499999" height="50" preserveAspectRatio="xMidYMid meet" version="1.0"><defs><clipPath id="938ca426af"><path d="M 0.253906 12 L 4 12 L 4 16 L 0.253906 16 Z M 0.253906 12 " clip-rule="nonzero"/></clipPath><clipPath id="aef5da87bf"><path d="M 0.253906 22 L 2 22 L 2 24 L 0.253906 24 Z M 0.253906 22 " clip-rule="nonzero"/></clipPath><clipPath id="16253914da"><path d="M 32 22 L 36.519531 22 L 36.519531 25 L 32 25 Z M 32 22 " clip-rule="nonzero"/></clipPath><clipPath id="16f0799346"><path d="M 32 20 L 36.519531 20 L 36.519531 26 L 32 26 Z M 32 20 " clip-rule="nonzero"/></clipPath></defs><path fill="#41464b" d="M 31.628906 14.179688 C 31.609375 14.046875 31.589844 13.917969 31.566406 13.789062 L 31.957031 13.71875 C 31.980469 13.851562 32.003906 13.984375 32.023438 14.121094 Z M 31.488281 13.402344 C 31.460938 13.273438 31.433594 13.148438 31.402344 13.019531 L 31.789062 12.921875 C 31.820312 13.054688 31.851562 13.1875 31.878906 13.320312 Z M 31.300781 12.640625 C 31.265625 12.511719 31.230469 12.386719 31.1875 12.261719 L 31.570312 12.140625 C 31.609375 12.269531 31.648438 12.398438 31.683594 12.53125 Z M 31.066406 11.890625 C 31.019531 11.765625 30.976562 11.640625 30.929688 11.519531 L 31.300781 11.375 C 31.347656 11.5 31.394531 11.628906 31.441406 11.753906 Z M 30.78125 11.15625 C 30.730469 11.035156 30.675781 10.917969 30.621094 10.796875 L 30.984375 10.628906 C 31.039062 10.75 31.09375 10.875 31.148438 11 Z M 30.453125 10.445312 C 30.394531 10.328125 30.332031 10.210938 30.269531 10.097656 L 30.621094 9.90625 C 30.683594 10.023438 30.746094 10.144531 30.808594 10.265625 Z M 30.078125 9.753906 C 30.011719 9.640625 29.945312 9.527344 29.875 9.417969 L 30.210938 9.203125 C 30.285156 9.320312 30.351562 9.433594 30.421875 9.550781 Z M 29.660156 9.089844 C 29.589844 8.980469 29.515625 8.871094 29.4375 8.765625 L 29.761719 8.53125 C 29.839844 8.640625 29.917969 8.753906 29.992188 8.863281 Z M 29.203125 8.453125 C 29.125 8.347656 29.042969 8.246094 28.960938 8.144531 L 29.265625 7.890625 C 29.351562 7.992188 29.4375 8.101562 29.519531 8.207031 Z M 28.707031 7.84375 C 28.621094 7.746094 28.53125 7.648438 28.445312 7.550781 L 28.734375 7.277344 C 28.824219 7.378906 28.917969 7.476562 29.003906 7.578125 Z M 28.171875 7.269531 C 28.078125 7.175781 27.984375 7.085938 27.890625 6.996094 L 28.164062 6.703125 C 28.261719 6.796875 28.359375 6.890625 28.453125 6.988281 Z M 27.601562 6.730469 C 27.503906 6.640625 27.40625 6.558594 27.304688 6.472656 L 27.558594 6.164062 C 27.660156 6.25 27.765625 6.339844 27.863281 6.429688 Z M 27 6.226562 C 26.894531 6.144531 26.792969 6.066406 26.6875 5.988281 L 26.917969 5.667969 C 27.027344 5.746094 27.136719 5.828125 27.242188 5.910156 Z M 26.363281 5.761719 C 26.257812 5.6875 26.148438 5.617188 26.039062 5.546875 L 26.25 5.207031 C 26.363281 5.28125 26.476562 5.355469 26.589844 5.433594 Z M 25.703125 5.339844 C 25.589844 5.273438 25.476562 5.210938 25.363281 5.144531 L 25.554688 4.796875 C 25.671875 4.859375 25.789062 4.925781 25.90625 4.996094 Z M 25.015625 4.960938 C 24.898438 4.902344 24.78125 4.84375 24.664062 4.789062 L 24.832031 4.425781 C 24.953125 4.484375 25.074219 4.542969 25.195312 4.605469 Z M 24.304688 4.628906 C 24.183594 4.574219 24.066406 4.527344 23.941406 4.476562 L 24.085938 4.105469 C 24.214844 4.15625 24.339844 4.207031 24.460938 4.261719 Z M 23.574219 4.339844 C 23.453125 4.296875 23.328125 4.253906 23.203125 4.214844 L 23.324219 3.832031 C 23.453125 3.875 23.582031 3.917969 23.707031 3.960938 Z M 22.828125 4.101562 C 22.703125 4.066406 22.578125 4.03125 22.449219 4 L 22.546875 3.609375 C 22.675781 3.644531 22.808594 3.679688 22.9375 3.714844 Z M 22.070312 3.910156 C 21.941406 3.882812 21.8125 3.855469 21.683594 3.832031 L 21.757812 3.4375 C 21.890625 3.464844 22.023438 3.488281 22.152344 3.519531 Z M 21.300781 3.769531 C 21.171875 3.75 21.042969 3.730469 20.910156 3.714844 L 20.957031 3.320312 C 21.09375 3.335938 21.226562 3.351562 21.359375 3.371094 Z M 20.523438 3.675781 C 20.390625 3.664062 20.261719 3.65625 20.132812 3.648438 L 20.152344 3.25 C 20.289062 3.257812 20.421875 3.265625 20.554688 3.277344 Z M 19.742188 3.632812 C 19.648438 3.632812 19.554688 3.632812 19.460938 3.632812 L 19.347656 3.632812 L 19.347656 3.230469 L 19.460938 3.230469 C 19.558594 3.230469 19.652344 3.230469 19.75 3.234375 Z M 19.742188 3.632812 " fill-opacity="1" fill-rule="nonzero"/><path fill="#41464b" d="M 14.089844 27.59375 C 13.96875 27.535156 13.847656 27.476562 13.726562 27.417969 L 13.90625 27.058594 C 14.023438 27.117188 14.140625 27.175781 14.257812 27.230469 Z M 13.367188 27.226562 C 13.25 27.160156 13.132812 27.09375 13.015625 27.023438 L 13.21875 26.679688 C 13.332031 26.746094 13.445312 26.8125 13.558594 26.875 Z M 12.671875 26.8125 C 12.558594 26.738281 12.445312 26.664062 12.332031 26.589844 L 12.558594 26.257812 C 12.664062 26.332031 12.773438 26.402344 12.882812 26.472656 Z M 12.003906 26.355469 C 11.894531 26.273438 11.785156 26.195312 11.679688 26.109375 L 11.921875 25.792969 C 12.027344 25.875 12.128906 25.953125 12.238281 26.03125 Z M 11.363281 25.855469 C 11.261719 25.769531 11.160156 25.679688 11.058594 25.589844 L 11.320312 25.292969 C 11.417969 25.378906 11.515625 25.464844 11.617188 25.546875 Z M 10.757812 25.316406 C 10.660156 25.226562 10.5625 25.128906 10.46875 25.035156 L 10.75 24.75 C 10.84375 24.84375 10.9375 24.9375 11.03125 25.027344 Z M 10.1875 24.742188 C 10.097656 24.644531 10.007812 24.542969 9.917969 24.441406 L 10.214844 24.175781 C 10.300781 24.277344 10.390625 24.371094 10.480469 24.46875 Z M 9.65625 24.132812 C 9.570312 24.027344 9.484375 23.921875 9.402344 23.8125 L 9.71875 23.570312 C 9.796875 23.671875 9.878906 23.777344 9.960938 23.878906 Z M 9.164062 23.488281 C 9.082031 23.378906 9.007812 23.269531 8.929688 23.15625 L 9.261719 22.933594 C 9.332031 23.039062 9.410156 23.148438 9.484375 23.253906 Z M 8.710938 22.816406 C 8.640625 22.703125 8.570312 22.585938 8.5 22.46875 L 8.84375 22.265625 C 8.910156 22.378906 8.976562 22.492188 9.046875 22.601562 Z M 8.300781 22.117188 C 8.238281 21.996094 8.175781 21.878906 8.117188 21.757812 L 8.46875 21.578125 C 8.527344 21.695312 8.589844 21.808594 8.652344 21.925781 Z M 7.941406 21.390625 C 7.882812 21.269531 7.828125 21.144531 7.777344 21.019531 L 8.140625 20.863281 C 8.191406 20.984375 8.246094 21.105469 8.300781 21.222656 Z M 7.625 20.644531 C 7.574219 20.519531 7.527344 20.394531 7.484375 20.265625 L 7.859375 20.132812 C 7.902344 20.253906 7.945312 20.378906 7.996094 20.5 Z M 7.355469 19.878906 C 7.3125 19.75 7.273438 19.621094 7.238281 19.492188 L 7.621094 19.382812 C 7.65625 19.507812 7.695312 19.632812 7.734375 19.757812 Z M 7.136719 19.097656 C 7.101562 18.964844 7.074219 18.832031 7.042969 18.699219 L 7.433594 18.617188 C 7.460938 18.746094 7.488281 18.875 7.519531 19 Z M 6.964844 18.300781 C 6.941406 18.167969 6.917969 18.035156 6.898438 17.902344 L 7.292969 17.84375 C 7.3125 17.972656 7.332031 18.101562 7.355469 18.230469 Z M 6.964844 18.300781 " fill-opacity="1" fill-rule="nonzero"/><path fill="#ff7443" d="M 33.382812 16.011719 C 33.382812 16.199219 33.347656 16.382812 33.273438 16.558594 C 33.203125 16.734375 33.101562 16.886719 32.96875 17.023438 C 32.832031 17.15625 32.679688 17.257812 32.507812 17.332031 C 32.332031 17.402344 32.152344 17.441406 31.960938 17.441406 C 31.773438 17.441406 31.59375 17.402344 31.417969 17.332031 C 31.246094 17.257812 31.089844 17.15625 30.957031 17.023438 C 30.824219 16.886719 30.722656 16.734375 30.648438 16.558594 C 30.578125 16.382812 30.542969 16.199219 30.542969 16.011719 C 30.542969 15.820312 30.578125 15.640625 30.648438 15.464844 C 30.722656 15.289062 30.824219 15.132812 30.957031 15 C 31.089844 14.867188 31.246094 14.761719 31.417969 14.691406 C 31.59375 14.617188 31.773438 14.582031 31.960938 14.582031 C 32.152344 14.582031 32.332031 14.617188 32.507812 14.691406 C 32.679688 14.761719 32.832031 14.867188 32.96875 15 C 33.101562 15.132812 33.203125 15.289062 33.273438 15.464844 C 33.347656 15.640625 33.382812 15.820312 33.382812 16.011719 Z M 33.382812 16.011719 " fill-opacity="1" fill-rule="nonzero"/><path fill="#ff7443" d="M 8.382812 16.011719 C 8.382812 16.199219 8.34375 16.382812 8.273438 16.558594 C 8.199219 16.734375 8.097656 16.886719 7.964844 17.023438 C 7.832031 17.15625 7.679688 17.257812 7.503906 17.332031 C 7.332031 17.402344 7.148438 17.441406 6.960938 17.441406 C 6.773438 17.441406 6.589844 17.402344 6.417969 17.332031 C 6.242188 17.257812 6.089844 17.15625 5.957031 17.023438 C 5.824219 16.886719 5.71875 16.734375 5.648438 16.558594 C 5.578125 16.382812 5.539062 16.199219 5.539062 16.011719 C 5.539062 15.820312 5.578125 15.640625 5.648438 15.464844 C 5.71875 15.289062 5.824219 15.132812 5.957031 15 C 6.089844 14.867188 6.242188 14.761719 6.417969 14.691406 C 6.589844 14.617188 6.773438 14.582031 6.960938 14.582031 C 7.148438 14.582031 7.332031 14.617188 7.503906 14.691406 C 7.679688 14.761719 7.832031 14.867188 7.964844 15 C 8.097656 15.132812 8.199219 15.289062 8.273438 15.464844 C 8.34375 15.640625 8.382812 15.820312 8.382812 16.011719 Z M 8.382812 16.011719 " fill-opacity="1" fill-rule="nonzero"/><path fill="#fed65c" d="M 19.460938 5.890625 C 13.90625 5.890625 9.40625 10.421875 9.40625 16.011719 C 9.40625 18.972656 10.671875 21.636719 12.683594 23.484375 C 12.78125 23.570312 12.875 23.652344 12.972656 23.738281 C 14.542969 25.179688 15.53125 27.253906 15.53125 29.5625 L 15.53125 30.878906 L 23.390625 30.878906 L 23.390625 29.5625 C 23.390625 27.253906 24.378906 25.179688 25.949219 23.738281 C 26.046875 23.652344 26.144531 23.570312 26.238281 23.484375 C 28.25 21.636719 29.515625 18.972656 29.515625 16.011719 C 29.515625 10.421875 25.015625 5.890625 19.460938 5.890625 Z M 19.460938 5.890625 " fill-opacity="1" fill-rule="nonzero"/><path fill="#ffffff" d="M 18.324219 25.003906 L 20.597656 25.003906 L 20.597656 30.878906 L 18.324219 30.878906 Z M 18.324219 25.003906 " fill-opacity="1" fill-rule="nonzero"/><path fill="#41464b" d="M 17.757812 24.8125 L 21.164062 24.8125 L 21.164062 25.191406 L 17.757812 25.191406 Z M 17.757812 24.8125 " fill-opacity="1" fill-rule="nonzero"/><path fill="#41464b" d="M 17.757812 25.636719 L 21.164062 25.636719 L 21.164062 26.015625 L 17.757812 26.015625 Z M 17.757812 25.636719 " fill-opacity="1" fill-rule="nonzero"/><path fill="#ffffff" d="M 19.464844 23.441406 C 15.375 23.441406 12.074219 20.121094 12.074219 16.011719 C 12.074219 11.902344 15.375 8.578125 19.464844 8.578125 C 23.539062 8.578125 26.851562 11.902344 26.851562 16.011719 C 26.851562 20.121094 23.539062 23.441406 19.464844 23.441406 Z M 19.464844 23.441406 " fill-opacity="1" fill-rule="nonzero"/><path fill="#4cbed8" d="M 19.464844 20.445312 C 17.023438 20.445312 15.054688 18.460938 15.054688 16.011719 C 15.054688 13.558594 17.023438 11.574219 19.464844 11.574219 C 21.894531 11.574219 23.867188 13.558594 23.867188 16.011719 C 23.867188 18.460938 21.894531 20.445312 19.464844 20.445312 Z M 19.464844 20.445312 " fill-opacity="1" fill-rule="nonzero"/><path fill="#ffffff" d="M 19.460938 17.269531 C 18.769531 17.269531 18.210938 16.707031 18.210938 16.011719 C 18.210938 15.316406 18.769531 14.75 19.460938 14.75 C 20.152344 14.75 20.710938 15.316406 20.710938 16.011719 C 20.710938 16.707031 20.152344 17.269531 19.460938 17.269531 Z M 19.460938 17.269531 " fill-opacity="1" fill-rule="nonzero"/><path fill="#41464b" d="M 19.460938 23.632812 C 15.285156 23.632812 11.886719 20.214844 11.886719 16.011719 C 11.886719 11.808594 15.285156 8.386719 19.460938 8.386719 C 23.636719 8.386719 27.035156 11.808594 27.035156 16.011719 C 27.035156 20.214844 23.636719 23.632812 19.460938 23.632812 Z M 19.460938 8.765625 C 15.492188 8.765625 12.261719 12.015625 12.261719 16.011719 C 12.261719 20.003906 15.492188 23.253906 19.460938 23.253906 C 23.429688 23.253906 26.660156 20.003906 26.660156 16.011719 C 26.660156 12.015625 23.429688 8.765625 19.460938 8.765625 Z M 19.460938 8.765625 " fill-opacity="1" fill-rule="nonzero"/><path fill="#41464b" d="M 19.273438 23.441406 L 19.648438 23.441406 L 19.648438 25.003906 L 19.273438 25.003906 Z M 19.273438 23.441406 " fill-opacity="1" fill-rule="nonzero"/><path fill="#41464b" d="M 19.460938 22.609375 C 17.824219 22.609375 16.542969 19.710938 16.542969 16.011719 C 16.542969 12.3125 17.824219 9.414062 19.460938 9.414062 C 21.097656 9.414062 22.378906 12.3125 22.378906 16.011719 C 22.378906 19.710938 21.097656 22.609375 19.460938 22.609375 Z M 19.460938 9.792969 C 18.085938 9.792969 16.921875 12.640625 16.921875 16.011719 C 16.921875 19.382812 18.085938 22.230469 19.460938 22.230469 C 20.839844 22.230469 22.003906 19.382812 22.003906 16.011719 C 22.003906 12.640625 20.839844 9.792969 19.460938 9.792969 Z M 19.460938 9.792969 " fill-opacity="1" fill-rule="nonzero"/><path fill="#41464b" d="M 15.84375 20.191406 C 14.828125 20.191406 14.113281 19.886719 13.785156 19.308594 C 12.964844 17.882812 14.820312 15.316406 18.003906 13.46875 C 19.792969 12.425781 21.644531 11.832031 23.082031 11.832031 C 24.097656 11.832031 24.808594 12.136719 25.140625 12.710938 C 25.542969 13.414062 25.308594 14.421875 24.476562 15.539062 C 23.675781 16.613281 22.414062 17.683594 20.921875 18.554688 C 19.128906 19.59375 17.277344 20.191406 15.84375 20.191406 Z M 23.082031 12.210938 C 21.730469 12.210938 19.902344 12.800781 18.191406 13.796875 C 15.289062 15.480469 13.421875 17.917969 14.109375 19.121094 C 14.4375 19.691406 15.234375 19.8125 15.84375 19.8125 C 17.195312 19.8125 19.023438 19.21875 20.730469 18.226562 C 22.183594 17.382812 23.40625 16.347656 24.175781 15.3125 C 24.898438 14.335938 25.132812 13.457031 24.8125 12.902344 C 24.484375 12.328125 23.691406 12.210938 23.082031 12.210938 Z M 23.082031 12.210938 " fill-opacity="1" fill-rule="nonzero"/><path fill="#41464b" d="M 23.082031 20.191406 C 21.644531 20.191406 19.792969 19.59375 18.003906 18.554688 C 14.820312 16.703125 12.964844 14.136719 13.785156 12.710938 C 14.113281 12.136719 14.828125 11.832031 15.84375 11.832031 C 17.277344 11.832031 19.128906 12.429688 20.921875 13.46875 C 22.414062 14.335938 23.675781 15.40625 24.476562 16.480469 C 25.308594 17.601562 25.542969 18.605469 25.140625 19.308594 C 24.808594 19.886719 24.097656 20.191406 23.082031 20.191406 Z M 15.84375 12.210938 C 15.234375 12.210938 14.4375 12.328125 14.109375 12.902344 C 13.421875 14.101562 15.289062 16.539062 18.191406 18.226562 C 19.902344 19.21875 21.730469 19.8125 23.082031 19.8125 C 23.691406 19.8125 24.484375 19.691406 24.8125 19.121094 C 25.132812 18.5625 24.898438 17.683594 24.175781 16.707031 C 23.40625 15.671875 22.183594 14.640625 20.730469 13.796875 C 19.023438 12.804688 17.195312 12.210938 15.84375 12.210938 Z M 15.84375 12.210938 " fill-opacity="1" fill-rule="nonzero"/><path fill="#ff7443" d="M 15.53125 30.878906 L 23.390625 30.878906 L 23.390625 35.070312 L 15.53125 35.070312 Z M 15.53125 30.878906 " fill-opacity="1" fill-rule="nonzero"/><path fill="#41464b" d="M 17.078125 30.691406 L 24.125 30.691406 L 24.125 31.070312 L 17.078125 31.070312 Z M 17.078125 30.691406 " fill-opacity="1" fill-rule="nonzero"/><path fill="#41464b" d="M 17.078125 31.515625 L 24.125 31.515625 L 24.125 31.894531 L 17.078125 31.894531 Z M 17.078125 31.515625 " fill-opacity="1" fill-rule="nonzero"/><path fill="#41464b" d="M 17.078125 32.339844 L 24.125 32.339844 L 24.125 32.71875 L 17.078125 32.71875 Z M 17.078125 32.339844 " fill-opacity="1" fill-rule="nonzero"/><path fill="#41464b" d="M 14.800781 30.691406 L 16.503906 30.691406 L 16.503906 31.070312 L 14.800781 31.070312 Z M 14.800781 30.691406 " fill-opacity="1" fill-rule="nonzero"/><path fill="#41464b" d="M 14.800781 31.515625 L 16.503906 31.515625 L 16.503906 31.894531 L 14.800781 31.894531 Z M 14.800781 31.515625 " fill-opacity="1" fill-rule="nonzero"/><path fill="#41464b" d="M 14.800781 32.339844 L 16.503906 32.339844 L 16.503906 32.71875 L 14.800781 32.71875 Z M 14.800781 32.339844 " fill-opacity="1" fill-rule="nonzero"/><path fill="#41464b" d="M 20.523438 36.992188 L 18.402344 36.992188 C 18.105469 36.992188 17.824219 36.875 17.613281 36.664062 C 17.402344 36.449219 17.285156 36.167969 17.285156 35.867188 L 17.285156 34.882812 L 21.636719 34.882812 L 21.636719 35.867188 C 21.636719 36.167969 21.523438 36.449219 21.3125 36.664062 C 21.097656 36.875 20.820312 36.992188 20.523438 36.992188 Z M 17.660156 35.261719 L 17.660156 35.867188 C 17.660156 36.066406 17.738281 36.253906 17.878906 36.394531 C 18.019531 36.535156 18.203125 36.613281 18.402344 36.613281 L 20.523438 36.613281 C 20.71875 36.613281 20.90625 36.535156 21.046875 36.394531 C 21.183594 36.253906 21.261719 36.066406 21.261719 35.867188 L 21.261719 35.261719 Z M 17.660156 35.261719 " fill-opacity="1" fill-rule="nonzero"/><path fill="#41464b" d="M 28.496094 32.777344 C 27.921875 32.777344 27.457031 32.308594 27.457031 31.730469 C 27.457031 31.152344 27.921875 30.683594 28.496094 30.683594 C 29.070312 30.683594 29.535156 31.152344 29.535156 31.730469 C 29.535156 32.308594 29.070312 32.777344 28.496094 32.777344 Z M 28.496094 31.0625 C 28.128906 31.0625 27.832031 31.363281 27.832031 31.730469 C 27.832031 32.097656 28.128906 32.398438 28.496094 32.398438 C 28.863281 32.398438 29.160156 32.097656 29.160156 31.730469 C 29.160156 31.363281 28.863281 31.0625 28.496094 31.0625 Z M 28.496094 31.0625 " fill-opacity="1" fill-rule="nonzero"/><g clip-path="url(#938ca426af)"><path fill="#41464b" d="M 1.964844 15.277344 C 1.332031 15.277344 0.8125 14.757812 0.8125 14.117188 C 0.8125 13.476562 1.332031 12.957031 1.964844 12.957031 C 2.601562 12.957031 3.121094 13.476562 3.121094 14.117188 C 3.121094 14.757812 2.601562 15.277344 1.964844 15.277344 Z M 1.964844 13.335938 C 1.539062 13.335938 1.1875 13.6875 1.1875 14.117188 C 1.1875 14.550781 1.539062 14.898438 1.964844 14.898438 C 2.394531 14.898438 2.746094 14.550781 2.746094 14.117188 C 2.746094 13.6875 2.394531 13.335938 1.964844 13.335938 Z M 1.964844 13.335938 " fill-opacity="1" fill-rule="nonzero"/></g><path fill="#41464b" d="M 32.035156 7.558594 C 31.335938 7.558594 30.765625 6.984375 30.765625 6.28125 C 30.765625 5.578125 31.335938 5.003906 32.035156 5.003906 C 32.734375 5.003906 33.300781 5.578125 33.300781 6.28125 C 33.300781 6.984375 32.734375 7.558594 32.035156 7.558594 Z M 32.035156 5.382812 C 31.542969 5.382812 31.144531 5.785156 31.144531 6.28125 C 31.144531 6.773438 31.542969 7.179688 32.035156 7.179688 C 32.527344 7.179688 32.925781 6.773438 32.925781 6.28125 C 32.925781 5.785156 32.527344 5.382812 32.035156 5.382812 Z M 32.035156 5.382812 " fill-opacity="1" fill-rule="nonzero"/><path fill="#4cbed8" d="M 34.179688 3.078125 C 34.179688 3.519531 33.824219 3.878906 33.382812 3.878906 C 32.945312 3.878906 32.585938 3.519531 32.585938 3.078125 C 32.585938 2.636719 32.945312 2.277344 33.382812 2.277344 C 33.824219 2.277344 34.179688 2.636719 34.179688 3.078125 Z M 34.179688 3.078125 " fill-opacity="1" fill-rule="nonzero"/><path fill="#afafaf" d="M 19.234375 0.472656 C 19.234375 0.726562 19.03125 0.929688 18.78125 0.929688 C 18.527344 0.929688 18.324219 0.726562 18.324219 0.472656 C 18.324219 0.21875 18.527344 0.015625 18.78125 0.015625 C 19.03125 0.015625 19.234375 0.21875 19.234375 0.472656 Z M 19.234375 0.472656 " fill-opacity="1" fill-rule="nonzero"/><path fill="#afafaf" d="M 31.058594 34.722656 C 31.058594 34.964844 30.863281 35.160156 30.621094 35.160156 C 30.378906 35.160156 30.183594 34.964844 30.183594 34.722656 C 30.183594 34.476562 30.378906 34.28125 30.621094 34.28125 C 30.863281 34.28125 31.058594 34.476562 31.058594 34.722656 Z M 31.058594 34.722656 " fill-opacity="1" fill-rule="nonzero"/><g clip-path="url(#aef5da87bf)"><path fill="#afafaf" d="M 1.164062 22.703125 C 1.164062 22.828125 1.117188 22.9375 1.027344 23.023438 C 0.941406 23.113281 0.832031 23.160156 0.707031 23.160156 C 0.582031 23.160156 0.476562 23.113281 0.386719 23.023438 C 0.296875 22.9375 0.253906 22.828125 0.253906 22.703125 C 0.253906 22.574219 0.296875 22.46875 0.386719 22.378906 C 0.476562 22.289062 0.582031 22.242188 0.707031 22.242188 C 0.832031 22.242188 0.941406 22.289062 1.027344 22.378906 C 1.117188 22.46875 1.164062 22.574219 1.164062 22.703125 Z M 1.164062 22.703125 " fill-opacity="1" fill-rule="nonzero"/></g><path fill="#41464b" d="M 34.980469 12.253906 C 34.65625 12.253906 34.390625 11.988281 34.390625 11.664062 C 34.390625 11.335938 34.65625 11.070312 34.980469 11.070312 C 35.304688 11.070312 35.570312 11.335938 35.570312 11.664062 C 35.570312 11.988281 35.304688 12.253906 34.980469 12.253906 Z M 34.980469 11.449219 C 34.863281 11.449219 34.765625 11.542969 34.765625 11.664062 C 34.765625 11.78125 34.863281 11.875 34.980469 11.875 C 35.097656 11.875 35.191406 11.78125 35.191406 11.664062 C 35.191406 11.542969 35.097656 11.449219 34.980469 11.449219 Z M 34.980469 11.449219 " fill-opacity="1" fill-rule="nonzero"/><path fill="#41464b" d="M 4.433594 25.042969 C 4.058594 25.042969 3.753906 24.738281 3.753906 24.359375 C 3.753906 23.980469 4.058594 23.675781 4.433594 23.675781 C 4.808594 23.675781 5.113281 23.980469 5.113281 24.359375 C 5.113281 24.738281 4.808594 25.042969 4.433594 25.042969 Z M 4.433594 24.054688 C 4.265625 24.054688 4.128906 24.191406 4.128906 24.359375 C 4.128906 24.527344 4.265625 24.664062 4.433594 24.664062 C 4.601562 24.664062 4.738281 24.527344 4.738281 24.359375 C 4.738281 24.191406 4.601562 24.054688 4.433594 24.054688 Z M 4.433594 24.054688 " fill-opacity="1" fill-rule="nonzero"/><path fill="#4cbed8" d="M 35.5625 25.6875 C 35.5625 27.746094 33.902344 29.414062 31.855469 29.414062 C 29.808594 29.414062 28.152344 27.746094 28.152344 25.6875 C 28.152344 24.65625 28.566406 23.722656 29.238281 23.050781 L 31.855469 25.6875 Z M 35.5625 25.6875 " fill-opacity="1" fill-rule="nonzero"/><g clip-path="url(#16253914da)"><path fill="#ff7443" d="M 32.628906 24.910156 L 36.332031 24.910156 C 36.332031 23.878906 35.917969 22.945312 35.25 22.273438 Z M 32.628906 24.910156 " fill-opacity="1" fill-rule="nonzero"/></g><g clip-path="url(#16f0799346)"><path fill="#41464b" d="M 36.523438 25.097656 L 32.441406 25.097656 L 32.441406 20.992188 L 32.628906 20.992188 C 34.777344 20.992188 36.523438 22.75 36.523438 24.910156 Z M 32.816406 24.71875 L 36.140625 24.71875 C 36.046875 22.917969 34.605469 21.46875 32.816406 21.375 Z M 32.816406 24.71875 " fill-opacity="1" fill-rule="nonzero"/></g><path fill="#41464b" d="M 31.855469 29.605469 C 29.710938 29.605469 27.964844 27.847656 27.964844 25.6875 C 27.964844 23.527344 29.710938 21.769531 31.855469 21.769531 L 32.015625 21.769531 L 32.015625 22.148438 L 31.855469 22.148438 C 29.917969 22.148438 28.339844 23.734375 28.339844 25.6875 C 28.339844 27.636719 29.917969 29.226562 31.855469 29.226562 C 32.796875 29.226562 33.679688 28.859375 34.34375 28.1875 L 34.609375 28.457031 C 33.875 29.195312 32.894531 29.605469 31.855469 29.605469 Z M 31.855469 29.605469 " fill-opacity="1" fill-rule="nonzero"/><path fill="#41464b" d="M 35.5625 25.875 L 31.667969 25.875 L 31.667969 24.933594 L 32.042969 24.933594 L 32.042969 25.496094 L 35.5625 25.496094 Z M 35.5625 25.875 " fill-opacity="1" fill-rule="nonzero"/><path fill="#41464b" d="M 31.722656 25.550781 L 31.988281 25.820312 L 30.753906 27.0625 L 30.488281 26.796875 Z M 31.722656 25.550781 " fill-opacity="1" fill-rule="nonzero"/><path fill="#41464b" d="M 31.667969 24.128906 L 32.042969 24.128906 L 32.042969 24.53125 L 31.667969 24.53125 Z M 31.667969 24.128906 " fill-opacity="1" fill-rule="nonzero"/><path fill="#41464b" d="M 31.667969 23.332031 L 32.042969 23.332031 L 32.042969 23.730469 L 31.667969 23.730469 Z M 31.667969 23.332031 " fill-opacity="1" fill-rule="nonzero"/><path fill="#41464b" d="M 31.667969 22.53125 L 32.042969 22.53125 L 32.042969 22.929688 L 31.667969 22.929688 Z M 31.667969 22.53125 " fill-opacity="1" fill-rule="nonzero"/><path fill="#41464b" d="M 10.417969 30.691406 L 10.792969 30.691406 L 10.792969 31.070312 L 10.417969 31.070312 Z M 10.417969 30.691406 " fill-opacity="1" fill-rule="nonzero"/><path fill="#41464b" d="M 11.171875 30.691406 L 11.546875 30.691406 L 11.546875 31.070312 L 11.171875 31.070312 Z M 11.171875 30.691406 " fill-opacity="1" fill-rule="nonzero"/><path fill="#41464b" d="M 11.921875 30.691406 L 12.300781 30.691406 L 12.300781 31.070312 L 11.921875 31.070312 Z M 11.921875 30.691406 " fill-opacity="1" fill-rule="nonzero"/><path fill="#41464b" d="M 2.417969 30.691406 L 2.792969 30.691406 L 2.792969 31.070312 L 2.417969 31.070312 Z M 2.417969 30.691406 " fill-opacity="1" fill-rule="nonzero"/><path fill="#41464b" d="M 3.171875 30.691406 L 3.546875 30.691406 L 3.546875 31.070312 L 3.171875 31.070312 Z M 3.171875 30.691406 " fill-opacity="1" fill-rule="nonzero"/><path fill="#41464b" d="M 3.921875 30.691406 L 4.300781 30.691406 L 4.300781 31.070312 L 3.921875 31.070312 Z M 3.921875 30.691406 " fill-opacity="1" fill-rule="nonzero"/><path fill="#4cbed8" d="M 9.808594 30.878906 C 10.050781 31.296875 10.1875 31.785156 10.1875 32.300781 C 10.1875 33.875 8.921875 35.148438 7.359375 35.148438 C 5.796875 35.148438 4.53125 33.875 4.53125 32.300781 C 4.53125 31.785156 4.667969 31.296875 4.910156 30.878906 C 5.398438 31.730469 6.3125 32.300781 7.359375 32.300781 C 8.40625 32.300781 9.320312 31.730469 9.808594 30.878906 Z M 9.808594 30.878906 " fill-opacity="1" fill-rule="nonzero"/><path fill="#ff7443" d="M 7.359375 26.609375 C 8.921875 26.609375 10.1875 27.882812 10.1875 29.457031 C 10.1875 29.972656 10.050781 30.460938 9.808594 30.878906 C 9.320312 30.027344 8.40625 29.457031 7.359375 29.457031 C 6.3125 29.457031 5.398438 30.027344 4.910156 30.878906 C 4.667969 30.460938 4.53125 29.972656 4.53125 29.457031 C 4.53125 27.882812 5.796875 26.609375 7.359375 26.609375 Z M 7.359375 26.609375 " fill-opacity="1" fill-rule="nonzero"/><path fill="#41464b" d="M 7.359375 32.492188 C 6.285156 32.492188 5.285156 31.910156 4.746094 30.972656 L 4.691406 30.878906 L 4.746094 30.785156 C 5.285156 29.847656 6.285156 29.265625 7.359375 29.265625 C 8.433594 29.265625 9.433594 29.847656 9.972656 30.785156 L 10.027344 30.878906 L 9.972656 30.972656 C 9.433594 31.910156 8.433594 32.492188 7.359375 32.492188 Z M 5.128906 30.878906 C 5.609375 31.644531 6.457031 32.113281 7.359375 32.113281 C 8.261719 32.113281 9.105469 31.644531 9.589844 30.878906 C 9.105469 30.117188 8.261719 29.644531 7.359375 29.644531 C 6.457031 29.644531 5.613281 30.117188 5.128906 30.878906 Z M 5.128906 30.878906 " fill-opacity="1" fill-rule="nonzero"/><path fill="#41464b" d="M 7.359375 31.703125 C 6.910156 31.703125 6.542969 31.332031 6.542969 30.878906 C 6.542969 30.425781 6.910156 30.058594 7.359375 30.058594 C 7.808594 30.058594 8.175781 30.425781 8.175781 30.878906 C 8.175781 31.332031 7.808594 31.703125 7.359375 31.703125 Z M 7.359375 30.4375 C 7.117188 30.4375 6.917969 30.636719 6.917969 30.878906 C 6.917969 31.125 7.117188 31.324219 7.359375 31.324219 C 7.601562 31.324219 7.800781 31.125 7.800781 30.878906 C 7.800781 30.636719 7.601562 30.4375 7.359375 30.4375 Z M 7.359375 30.4375 " fill-opacity="1" fill-rule="nonzero"/><path fill="#41464b" d="M 10.765625 34.78125 L 12.351562 34.78125 L 12.351562 35.160156 L 10.765625 35.160156 Z M 10.765625 34.78125 " fill-opacity="1" fill-rule="nonzero"/><path fill="#41464b" d="M 12.351562 34.472656 L 10.6875 34.472656 L 9.335938 33.113281 L 9.605469 32.847656 L 10.84375 34.09375 L 12.351562 34.09375 Z M 12.351562 34.472656 " fill-opacity="1" fill-rule="nonzero"/><path fill="#41464b" d="M 2.363281 26.597656 L 3.953125 26.597656 L 3.953125 26.976562 L 2.363281 26.976562 Z M 2.363281 26.597656 " fill-opacity="1" fill-rule="nonzero"/><path fill="#41464b" d="M 5.113281 28.914062 L 3.875 27.667969 L 2.363281 27.667969 L 2.363281 27.289062 L 4.03125 27.289062 L 5.378906 28.644531 Z M 5.113281 28.914062 " fill-opacity="1" fill-rule="nonzero"/><path fill="#afafaf" d="M 8.164062 7.765625 C 8.402344 7.335938 8.34375 6.785156 7.980469 6.421875 C 7.617188 6.054688 7.070312 5.996094 6.644531 6.234375 C 6.511719 5.761719 6.082031 5.417969 5.570312 5.417969 C 5.058594 5.417969 4.628906 5.761719 4.496094 6.234375 C 4.070312 5.996094 3.523438 6.054688 3.160156 6.421875 C 2.796875 6.785156 2.738281 7.335938 2.976562 7.765625 C 2.503906 7.898438 2.160156 8.332031 2.160156 8.847656 C 2.160156 9.46875 2.660156 9.972656 3.28125 9.972656 L 5.140625 9.972656 C 5.757812 9.972656 6.257812 10.476562 6.257812 11.097656 L 6.257812 11.851562 L 6.746094 11.851562 L 6.746094 11.097656 C 6.746094 10.476562 7.242188 9.972656 7.863281 9.972656 C 8.171875 9.972656 8.449219 9.84375 8.652344 9.640625 C 8.855469 9.4375 8.980469 9.15625 8.980469 8.847656 C 8.980469 8.332031 8.636719 7.898438 8.164062 7.765625 Z M 8.164062 7.765625 " fill-opacity="1" fill-rule="nonzero"/><path fill="#ffffff" d="M 4.574219 8.640625 L 4.972656 8.640625 L 4.972656 9.019531 L 4.574219 9.019531 Z M 4.574219 8.640625 " fill-opacity="1" fill-rule="nonzero"/><path fill="#ffffff" d="M 5.371094 8.640625 L 5.769531 8.640625 L 5.769531 9.019531 L 5.371094 9.019531 Z M 5.371094 8.640625 " fill-opacity="1" fill-rule="nonzero"/><path fill="#ffffff" d="M 6.167969 8.640625 L 6.566406 8.640625 L 6.566406 9.019531 L 6.167969 9.019531 Z M 6.167969 8.640625 " fill-opacity="1" fill-rule="nonzero"/><path fill="#41464b" d="M 11.785156 5.496094 C 11.054688 5.496094 10.460938 4.898438 10.460938 4.164062 C 10.460938 3.429688 11.054688 2.832031 11.785156 2.832031 C 12.515625 2.832031 13.109375 3.429688 13.109375 4.164062 C 13.109375 4.898438 12.515625 5.496094 11.785156 5.496094 Z M 11.785156 3.210938 C 11.261719 3.210938 10.835938 3.636719 10.835938 4.164062 C 10.835938 4.691406 11.261719 5.117188 11.785156 5.117188 C 12.308594 5.117188 12.734375 4.691406 12.734375 4.164062 C 12.734375 3.636719 12.308594 3.210938 11.785156 3.210938 Z M 11.785156 3.210938 " fill-opacity="1" fill-rule="nonzero"/><path fill="#41464b" d="M 15.195312 5.496094 C 14.464844 5.496094 13.871094 4.898438 13.871094 4.164062 C 13.871094 3.429688 14.464844 2.832031 15.195312 2.832031 C 15.925781 2.832031 16.519531 3.429688 16.519531 4.164062 C 16.519531 4.898438 15.925781 5.496094 15.195312 5.496094 Z M 15.195312 3.210938 C 14.671875 3.210938 14.246094 3.636719 14.246094 4.164062 C 14.246094 4.691406 14.671875 5.117188 15.195312 5.117188 C 15.71875 5.117188 16.140625 4.691406 16.140625 4.164062 C 16.140625 3.636719 15.71875 3.210938 15.195312 3.210938 Z M 15.195312 3.210938 " fill-opacity="1" fill-rule="nonzero"/><path fill="#41464b" d="M 14.246094 4.164062 L 13.871094 4.164062 C 13.871094 3.953125 13.699219 3.78125 13.488281 3.78125 C 13.28125 3.78125 13.109375 3.953125 13.109375 4.164062 L 12.734375 4.164062 C 12.734375 3.746094 13.070312 3.402344 13.488281 3.402344 C 13.90625 3.402344 14.246094 3.746094 14.246094 4.164062 Z M 14.246094 4.164062 " fill-opacity="1" fill-rule="nonzero"/><path fill="#41464b" d="M 16.519531 4.164062 L 16.140625 4.164062 L 16.140625 1.304688 C 16.140625 1.09375 15.972656 0.921875 15.761719 0.921875 L 15.761719 0.542969 C 16.179688 0.542969 16.519531 0.886719 16.519531 1.304688 Z M 16.519531 4.164062 " fill-opacity="1" fill-rule="nonzero"/><path fill="#41464b" d="M 10.835938 4.164062 L 10.460938 4.164062 L 10.460938 1.304688 C 10.460938 1.09375 10.289062 0.921875 10.078125 0.921875 L 10.078125 0.542969 C 10.496094 0.542969 10.835938 0.886719 10.835938 1.304688 Z M 10.835938 4.164062 " fill-opacity="1" fill-rule="nonzero"/></svg>