<svg xmlns="http://www.w3.org/2000/svg" xmlns:xlink="http://www.w3.org/1999/xlink" width="50" zoomAndPan="magnify" viewBox="0 0 37.5 37.499999" height="50" preserveAspectRatio="xMidYMid meet" version="1.0"><path fill="#b04190" d="M 20.820312 17.257812 L 35.871094 17.257812 C 36.503906 17.257812 37.007812 16.710938 36.941406 16.082031 C 36.0625 7.644531 29.363281 0.945312 20.921875 0.0664062 C 20.296875 0 19.75 0.5 19.75 1.136719 L 19.75 16.1875 C 19.75 16.777344 20.230469 17.257812 20.820312 17.257812 Z M 20.820312 17.257812 " fill-opacity="1" fill-rule="nonzero"/><path fill="#f59f00" d="M 17.257812 17.257812 L 17.257812 2.199219 C 17.257812 1.5625 16.710938 1.0625 16.082031 1.128906 C 7.644531 2.015625 0.945312 8.714844 0.0664062 17.152344 C 0 17.78125 0.5 18.328125 1.136719 18.328125 L 16.1875 18.328125 C 16.777344 18.328125 17.257812 17.847656 17.257812 17.257812 Z M 17.257812 17.257812 " fill-opacity="1" fill-rule="nonzero"/><path fill="#009ee2" d="M 18.679688 20.820312 L 18.679688 35.871094 C 18.679688 36.503906 19.226562 37.007812 19.851562 36.941406 C 28.292969 36.0625 34.992188 29.363281 35.871094 20.921875 C 35.9375 20.296875 35.433594 19.75 34.800781 19.75 L 19.75 19.75 C 19.160156 19.75 18.679688 20.230469 18.679688 20.820312 Z M 18.679688 20.820312 " fill-opacity="1" fill-rule="nonzero"/><path fill="#e5007e" d="M 16.1875 19.75 L 1.136719 19.75 C 0.5 19.75 0 20.296875 0.0664062 20.921875 C 0.945312 29.363281 7.644531 36.0625 16.082031 36.941406 C 16.710938 37.007812 17.257812 36.503906 17.257812 35.871094 L 17.257812 20.820312 C 17.257812 20.230469 16.777344 19.75 16.1875 19.75 Z M 16.1875 19.75 " fill-opacity="1" fill-rule="nonzero"/><path fill="#ffffff" d="M 27.1875 8.667969 C 26.582031 8.667969 26.09375 9.148438 26.066406 9.746094 L 27.269531 9.421875 C 27.363281 9.398438 27.460938 9.421875 27.527344 9.488281 C 27.59375 9.554688 27.621094 9.648438 27.59375 9.746094 L 27.28125 10.910156 C 27.867188 10.867188 28.332031 10.386719 28.332031 9.796875 C 28.316406 9.179688 27.8125 8.667969 27.1875 8.667969 Z M 27.1875 8.667969 " fill-opacity="1" fill-rule="nonzero"/><path fill="#ffffff" d="M 26.863281 11.433594 L 27.335938 9.6875 L 25.578125 10.152344 L 25.941406 10.511719 L 23.941406 12.511719 L 23.363281 12.351562 L 21.976562 13.753906 L 22.839844 14.003906 L 22.96875 14.128906 L 23.226562 14.992188 L 24.621094 13.589844 L 24.472656 13.101562 L 26.5 11.074219 Z M 26.863281 11.433594 " fill-opacity="1" fill-rule="nonzero"/><path fill="#ffffff" d="M 27.1875 7.023438 C 25.652344 7.023438 24.414062 8.269531 24.414062 9.804688 C 24.414062 10.335938 24.566406 10.832031 24.832031 11.257812 L 25.417969 10.675781 C 25.285156 10.410156 25.210938 10.113281 25.210938 9.804688 C 25.210938 8.714844 26.101562 7.820312 27.195312 7.820312 C 28.285156 7.820312 29.179688 8.714844 29.179688 9.804688 C 29.179688 10.898438 28.285156 11.789062 27.195312 11.789062 C 26.890625 11.789062 26.613281 11.714844 26.359375 11.597656 L 25.777344 12.179688 C 26.191406 12.429688 26.679688 12.578125 27.195312 12.578125 C 28.730469 12.578125 29.96875 11.332031 29.96875 9.804688 C 29.960938 8.269531 28.714844 7.023438 27.1875 7.023438 Z M 27.1875 7.023438 " fill-opacity="1" fill-rule="nonzero"/><path fill="#ffffff" d="M 27.1875 5.527344 C 24.824219 5.527344 22.90625 7.445312 22.90625 9.804688 C 22.90625 10.757812 23.226562 11.621094 23.757812 12.335938 L 24.316406 11.773438 C 23.933594 11.214844 23.703125 10.535156 23.703125 9.804688 C 23.703125 7.878906 25.269531 6.316406 27.195312 6.316406 C 29.121094 6.316406 30.683594 7.878906 30.683594 9.804688 C 30.683594 11.730469 29.121094 13.292969 27.195312 13.292969 C 26.480469 13.292969 25.816406 13.074219 25.253906 12.703125 L 24.691406 13.265625 C 25.394531 13.773438 26.257812 14.085938 27.195312 14.085938 C 29.554688 14.085938 31.472656 12.164062 31.472656 9.804688 C 31.457031 7.445312 29.539062 5.527344 27.1875 5.527344 Z M 27.1875 5.527344 " fill-opacity="1" fill-rule="nonzero"/><path fill="#ffffff" d="M 24.566406 26.425781 L 21.992188 24.488281 L 22.039062 23.710938 L 24.433594 25.527344 L 26.566406 22.65625 L 27.082031 23.039062 Z M 24.566406 26.425781 " fill-opacity="1" fill-rule="nonzero"/><path fill="#ffffff" d="M 25.328125 25.976562 C 25.328125 26.433594 24.957031 26.804688 24.5 26.804688 C 24.042969 26.804688 23.675781 26.433594 23.675781 25.976562 C 23.675781 25.519531 24.042969 25.152344 24.5 25.152344 C 24.957031 25.152344 25.328125 25.519531 25.328125 25.976562 Z M 25.328125 25.976562 " fill-opacity="1" fill-rule="nonzero"/><path fill="#ffffff" d="M 27.8125 22.847656 C 27.8125 23.304688 27.445312 23.675781 26.988281 23.675781 C 26.53125 23.675781 26.160156 23.304688 26.160156 22.847656 C 26.160156 22.390625 26.53125 22.023438 26.988281 22.023438 C 27.445312 22.015625 27.8125 22.390625 27.8125 22.847656 Z M 27.8125 22.847656 " fill-opacity="1" fill-rule="nonzero"/><path fill="#ffffff" d="M 22.847656 24.101562 C 22.847656 24.558594 22.480469 24.929688 22.023438 24.929688 C 21.566406 24.929688 21.195312 24.558594 21.195312 24.101562 C 21.195312 23.644531 21.566406 23.277344 22.023438 23.277344 C 22.472656 23.269531 22.847656 23.644531 22.847656 24.101562 Z M 22.847656 24.101562 " fill-opacity="1" fill-rule="nonzero"/><path fill="#ffffff" d="M 21.179688 25.851562 L 22.847656 25.851562 L 22.847656 30.625 L 21.179688 30.625 Z M 21.179688 25.851562 " fill-opacity="1" fill-rule="nonzero"/><path fill="#ffffff" d="M 23.636719 27.527344 L 25.304688 27.527344 L 25.304688 30.574219 L 23.636719 30.574219 Z M 23.636719 27.527344 " fill-opacity="1" fill-rule="nonzero"/><path fill="#ffffff" d="M 26.152344 24.640625 L 27.820312 24.640625 L 27.820312 30.617188 L 26.152344 30.617188 Z M 26.152344 24.640625 " fill-opacity="1" fill-rule="nonzero"/><path fill="#ffffff" d="M 13.25 23.417969 L 13.25 22.539062 C 13.25 22.308594 13.058594 22.117188 12.828125 22.117188 L 9.222656 22.117188 C 9.207031 22.117188 9.199219 22.125 9.191406 22.125 C 9.15625 22.125 9.117188 22.132812 9.082031 22.148438 C 9.066406 22.15625 9.050781 22.15625 9.039062 22.164062 C 9 22.175781 8.972656 22.199219 8.941406 22.230469 C 8.933594 22.238281 8.925781 22.242188 8.917969 22.25 C 8.917969 22.25 8.914062 22.25 8.914062 22.257812 L 6.988281 24.300781 C 6.972656 24.316406 6.964844 24.339844 6.949219 24.355469 C 6.933594 24.375 6.914062 24.40625 6.898438 24.433594 C 6.882812 24.464844 6.882812 24.5 6.875 24.53125 C 6.875 24.546875 6.859375 24.566406 6.859375 24.589844 L 6.859375 29.976562 C 6.859375 30.210938 7.054688 30.394531 7.28125 30.394531 L 12.824219 30.394531 C 13.050781 30.394531 13.242188 30.210938 13.242188 29.976562 L 13.242188 29.039062 C 12.960938 29.074219 12.675781 29.0625 12.402344 29.007812 L 12.402344 29.554688 L 7.710938 29.554688 L 7.710938 25.011719 L 9.214844 25.011719 C 9.445312 25.011719 9.636719 24.820312 9.636719 24.589844 L 9.636719 22.96875 L 12.402344 22.96875 L 12.402344 23.460938 C 12.691406 23.394531 12.96875 23.386719 13.25 23.417969 Z M 13.25 23.417969 " fill-opacity="1" fill-rule="nonzero"/><path fill="#ffffff" d="M 10.195312 25.578125 C 10.128906 25.851562 10.109375 26.140625 10.128906 26.417969 L 8.808594 26.417969 C 8.582031 26.417969 8.386719 26.226562 8.386719 26 C 8.386719 25.769531 8.582031 25.578125 8.808594 25.578125 Z M 10.195312 25.578125 " fill-opacity="1" fill-rule="nonzero"/><path fill="#ffffff" d="M 10.519531 27.679688 L 8.808594 27.679688 C 8.582031 27.679688 8.386719 27.488281 8.386719 27.261719 C 8.386719 27.03125 8.582031 26.839844 8.808594 26.839844 L 10.1875 26.839844 C 10.253906 27.128906 10.367188 27.414062 10.519531 27.679688 Z M 10.519531 27.679688 " fill-opacity="1" fill-rule="nonzero"/><path fill="#ffffff" d="M 11.671875 28.75 C 11.597656 28.863281 11.464844 28.941406 11.316406 28.941406 L 8.808594 28.941406 C 8.582031 28.941406 8.386719 28.75 8.386719 28.523438 C 8.386719 28.292969 8.582031 28.101562 8.808594 28.101562 L 10.824219 28.101562 C 11.066406 28.375 11.363281 28.597656 11.671875 28.75 Z M 11.671875 28.75 " fill-opacity="1" fill-rule="nonzero"/><path fill="#ffffff" d="M 15.492188 28.722656 L 14.429688 27.222656 C 14.3125 27.402344 14.164062 27.554688 13.980469 27.6875 C 13.796875 27.820312 13.597656 27.902344 13.398438 27.953125 L 14.460938 29.453125 C 14.585938 29.628906 14.777344 29.71875 14.976562 29.71875 C 15.101562 29.71875 15.226562 29.679688 15.339844 29.597656 C 15.625 29.40625 15.691406 29.007812 15.492188 28.722656 Z M 15.492188 28.722656 " fill-opacity="1" fill-rule="nonzero"/><path fill="#ffffff" d="M 12.957031 28.449219 C 12.828125 28.449219 12.703125 28.441406 12.578125 28.417969 C 11.996094 28.316406 11.488281 28 11.140625 27.511719 C 10.800781 27.023438 10.660156 26.441406 10.765625 25.859375 C 10.867188 25.277344 11.183594 24.765625 11.671875 24.421875 C 12.667969 23.710938 14.054688 23.949219 14.761719 24.953125 C 15.101562 25.4375 15.242188 26.019531 15.140625 26.605469 C 15.035156 27.1875 14.71875 27.695312 14.230469 28.042969 C 13.855469 28.308594 13.414062 28.449219 12.957031 28.449219 Z M 12.949219 24.855469 C 12.675781 24.855469 12.394531 24.9375 12.160156 25.105469 C 11.855469 25.320312 11.65625 25.636719 11.597656 26 C 11.539062 26.359375 11.621094 26.722656 11.832031 27.023438 C 12.046875 27.328125 12.363281 27.527344 12.726562 27.585938 C 13.089844 27.652344 13.449219 27.5625 13.753906 27.347656 C 14.054688 27.136719 14.253906 26.816406 14.3125 26.457031 C 14.371094 26.09375 14.289062 25.734375 14.078125 25.429688 C 13.804688 25.054688 13.375 24.855469 12.949219 24.855469 Z M 12.949219 24.855469 " fill-opacity="1" fill-rule="nonzero"/><path fill="#ffffff" d="M 7.324219 8.609375 C 7.246094 8.691406 7.105469 8.691406 7.023438 8.609375 L 6.367188 7.953125 C 6.285156 7.871094 6.285156 7.730469 6.367188 7.652344 C 6.449219 7.570312 6.589844 7.570312 6.667969 7.652344 L 7.324219 8.308594 C 7.414062 8.394531 7.414062 8.527344 7.324219 8.609375 Z M 7.324219 8.609375 " fill-opacity="1" fill-rule="nonzero"/><path fill="#ffffff" d="M 6.101562 10.96875 C 6.058594 11.015625 5.992188 11.042969 5.917969 11.03125 L 4.988281 10.898438 C 4.871094 10.882812 4.789062 10.769531 4.804688 10.652344 C 4.816406 10.535156 4.929688 10.453125 5.046875 10.46875 L 5.976562 10.601562 C 6.09375 10.617188 6.175781 10.726562 6.160156 10.84375 C 6.160156 10.898438 6.136719 10.941406 6.101562 10.96875 Z M 6.101562 10.96875 " fill-opacity="1" fill-rule="nonzero"/><path fill="#ffffff" d="M 6.484375 13.558594 C 6.46875 13.574219 6.457031 13.589844 6.433594 13.597656 L 5.59375 14.03125 C 5.488281 14.085938 5.355469 14.046875 5.304688 13.945312 C 5.253906 13.839844 5.289062 13.707031 5.394531 13.65625 L 6.234375 13.222656 C 6.335938 13.167969 6.46875 13.207031 6.523438 13.308594 C 6.566406 13.398438 6.550781 13.492188 6.484375 13.558594 Z M 6.484375 13.558594 " fill-opacity="1" fill-rule="nonzero"/><path fill="#ffffff" d="M 14.953125 9.183594 C 14.941406 9.199219 14.917969 9.214844 14.894531 9.222656 L 14.046875 9.644531 C 13.945312 9.695312 13.8125 9.648438 13.757812 9.546875 C 13.707031 9.445312 13.753906 9.3125 13.855469 9.257812 L 14.703125 8.839844 C 14.808594 8.785156 14.941406 8.832031 14.992188 8.933594 C 15.042969 9.015625 15.019531 9.117188 14.953125 9.183594 Z M 14.953125 9.183594 " fill-opacity="1" fill-rule="nonzero"/><path fill="#ffffff" d="M 12.277344 7.769531 C 12.210938 7.835938 12.105469 7.851562 12.027344 7.804688 C 11.921875 7.753906 11.878906 7.621094 11.9375 7.519531 L 12.386719 6.648438 C 12.4375 6.542969 12.570312 6.5 12.675781 6.558594 C 12.777344 6.609375 12.824219 6.742188 12.761719 6.847656 L 12.3125 7.71875 C 12.304688 7.738281 12.292969 7.753906 12.277344 7.769531 Z M 12.277344 7.769531 " fill-opacity="1" fill-rule="nonzero"/><path fill="#ffffff" d="M 7.902344 16.246094 C 7.835938 16.3125 7.738281 16.328125 7.652344 16.289062 C 7.546875 16.238281 7.496094 16.105469 7.554688 16.003906 L 7.96875 15.152344 C 8.019531 15.042969 8.152344 15 8.253906 15.058594 C 8.359375 15.109375 8.410156 15.242188 8.351562 15.34375 L 7.9375 16.195312 C 7.929688 16.207031 7.917969 16.230469 7.902344 16.246094 Z M 7.902344 16.246094 " fill-opacity="1" fill-rule="nonzero"/><path fill="#ffffff" d="M 9.6875 7.390625 C 9.65625 7.421875 9.613281 7.445312 9.570312 7.453125 C 9.449219 7.464844 9.339844 7.386719 9.324219 7.265625 L 9.191406 6.335938 C 9.179688 6.21875 9.257812 6.109375 9.378906 6.09375 C 9.496094 6.078125 9.605469 6.160156 9.621094 6.277344 L 9.753906 7.207031 C 9.753906 7.273438 9.730469 7.339844 9.6875 7.390625 Z M 9.6875 7.390625 " fill-opacity="1" fill-rule="nonzero"/><path fill="#ffffff" d="M 7.589844 8.933594 C 6.867188 9.65625 6.433594 10.542969 6.359375 11.433594 C 6.277344 12.410156 6.625 13.308594 7.355469 14.039062 C 8.183594 14.867188 9.457031 15.417969 10.699219 15.484375 L 10.851562 15.492188 C 11 15.492188 11.148438 15.484375 11.300781 15.476562 C 11.472656 15.476562 11.597656 15.507812 11.714844 15.558594 L 11.714844 15.582031 L 11.914062 15.683594 C 12.054688 15.808594 12.230469 15.875 12.410156 15.863281 C 12.585938 15.855469 12.757812 15.773438 12.875 15.648438 L 14.328125 14.195312 C 14.511719 13.972656 14.542969 13.671875 14.410156 13.398438 C 14.394531 13.367188 14.378906 13.339844 14.355469 13.316406 L 14.304688 13.242188 C 14.171875 13.042969 14.136719 12.882812 14.136719 12.695312 C 14.277344 11.300781 13.707031 9.703125 12.726562 8.707031 C 11.28125 7.257812 9.179688 7.347656 7.589844 8.933594 Z M 12.070312 9.347656 C 12.867188 10.152344 13.339844 11.496094 13.222656 12.625 L 13.222656 12.675781 C 13.226562 12.949219 13.265625 13.308594 13.523438 13.707031 L 12.351562 14.875 C 11.945312 14.609375 11.566406 14.570312 11.28125 14.570312 L 11.242188 14.570312 C 11.164062 14.578125 11.082031 14.585938 11 14.585938 L 10.851562 14.585938 C 9.8125 14.5625 8.691406 14.097656 7.996094 13.40625 C 7.464844 12.867188 7.207031 12.21875 7.265625 11.515625 C 7.320312 10.835938 7.664062 10.152344 8.242188 9.578125 C 9.4375 8.375 11.015625 8.285156 12.070312 9.347656 Z M 12.070312 9.347656 " fill-opacity="1" fill-rule="nonzero"/><path fill="#ffffff" d="M 13.289062 16.371094 L 15.011719 14.652344 C 15.125 14.542969 15.117188 14.355469 15 14.238281 L 14.945312 14.1875 C 14.828125 14.070312 14.644531 14.0625 14.535156 14.171875 L 12.808594 15.890625 C 12.695312 16.003906 12.703125 16.1875 12.824219 16.304688 L 12.875 16.355469 C 12.992188 16.472656 13.175781 16.480469 13.289062 16.371094 Z M 13.289062 16.371094 " fill-opacity="1" fill-rule="nonzero"/><path fill="#ffffff" d="M 14.621094 15.25 L 14.710938 15.339844 C 14.851562 15.476562 14.851562 15.691406 14.726562 15.816406 L 14.460938 16.082031 C 14.335938 16.207031 14.113281 16.203125 13.980469 16.070312 L 13.890625 15.980469 Z M 14.621094 15.25 " fill-opacity="1" fill-rule="nonzero"/><path fill="#ffffff" d="M 11.363281 10.375 C 11.089844 10.492188 11 10.808594 11.042969 11.066406 C 11.082031 11.296875 11.164062 11.515625 11.25 11.722656 C 11.140625 11.871094 11.03125 12.011719 10.910156 12.128906 L 10.890625 12.152344 C 10.875 12.164062 10.867188 12.171875 10.851562 12.1875 C 10.835938 12.203125 10.816406 12.226562 10.800781 12.238281 C 10.675781 12.359375 10.542969 12.46875 10.394531 12.578125 C 10.246094 12.519531 10.101562 12.476562 9.960938 12.429688 C 9.621094 12.320312 9.355469 12.351562 9.171875 12.527344 C 8.972656 12.710938 8.949219 13.007812 9.125 13.222656 C 9.339844 13.480469 9.65625 13.523438 10.0625 13.347656 C 10.085938 13.339844 10.113281 13.332031 10.144531 13.316406 C 10.167969 13.300781 10.195312 13.289062 10.21875 13.273438 L 10.246094 13.257812 C 10.320312 13.222656 10.394531 13.175781 10.476562 13.117188 C 10.777344 13.25 11.097656 13.421875 11.457031 13.632812 C 12.003906 13.964844 12.519531 14.371094 12.984375 14.835938 C 12.992188 14.84375 13.007812 14.851562 13.015625 14.867188 L 13.050781 14.894531 L 13.582031 14.363281 L 13.554688 14.328125 C 13.546875 14.320312 13.539062 14.304688 13.523438 14.296875 C 13.050781 13.839844 12.644531 13.324219 12.3125 12.777344 C 12.097656 12.425781 11.929688 12.105469 11.796875 11.8125 C 12.136719 11.300781 12.210938 10.910156 12.019531 10.609375 C 11.886719 10.402344 11.621094 10.253906 11.363281 10.375 Z M 11.628906 11.023438 C 11.621094 11.082031 11.597656 11.140625 11.566406 11.214844 C 11.554688 11.164062 11.539062 11.109375 11.523438 11.058594 C 11.5 10.984375 11.5 10.851562 11.53125 10.816406 C 11.53125 10.816406 11.539062 10.808594 11.5625 10.808594 C 11.632812 10.832031 11.640625 10.957031 11.628906 11.023438 Z M 11.472656 12.230469 C 11.566406 12.4375 11.679688 12.644531 11.789062 12.84375 C 11.953125 13.117188 12.128906 13.390625 12.320312 13.648438 C 11.871094 13.316406 11.398438 13.035156 10.902344 12.808594 C 10.957031 12.761719 11.007812 12.710938 11.066406 12.660156 C 11.101562 12.628906 11.132812 12.59375 11.167969 12.5625 L 11.214844 12.519531 C 11.300781 12.425781 11.390625 12.328125 11.472656 12.230469 Z M 9.886719 12.910156 C 9.8125 12.941406 9.753906 12.960938 9.695312 12.96875 C 9.628906 12.984375 9.503906 12.976562 9.488281 12.910156 C 9.480469 12.890625 9.488281 12.882812 9.496094 12.882812 C 9.53125 12.84375 9.65625 12.851562 9.738281 12.875 C 9.78125 12.882812 9.835938 12.894531 9.886719 12.910156 Z M 9.886719 12.910156 " fill-opacity="1" fill-rule="nonzero"/></svg>