<svg xmlns="http://www.w3.org/2000/svg" xmlns:xlink="http://www.w3.org/1999/xlink" width="50" zoomAndPan="magnify" viewBox="0 0 37.5 37.499999" height="50" preserveAspectRatio="xMidYMid meet" version="1.0"><defs><clipPath id="1b06b48fe9"><path d="M 26 34 L 35 34 L 35 36.472656 L 26 36.472656 Z M 26 34 " clip-rule="nonzero"/></clipPath><clipPath id="9f2195d1fc"><path d="M 26.59375 34.679688 L 34.945312 34.679688 L 34.945312 36.472656 L 26.59375 36.472656 Z M 26.59375 34.679688 " clip-rule="nonzero"/></clipPath><clipPath id="a6305a5200"><path d="M 26.652344 35.8125 L 26.652344 34.765625 L 34.925781 34.765625 L 34.925781 35.8125 C 34.925781 35.816406 34.925781 35.820312 34.925781 35.820312 C 34.925781 36.175781 33.070312 36.464844 30.789062 36.464844 C 28.503906 36.464844 26.652344 36.175781 26.652344 35.820312 C 26.652344 35.820312 26.652344 35.816406 26.652344 35.8125 Z M 26.652344 35.8125 " clip-rule="evenodd"/></clipPath><clipPath id="436d1723db"><path d="M 25 33.511719 L 33 33.511719 L 33 35.347656 L 25 35.347656 Z M 25 33.511719 " clip-rule="nonzero"/></clipPath><clipPath id="671d95e90e"><path d="M 24.921875 34.644531 L 24.921875 33.59375 L 33.195312 33.59375 L 33.195312 34.644531 C 33.195312 34.644531 33.195312 34.648438 33.195312 34.652344 C 33.195312 35.003906 31.34375 35.292969 29.058594 35.292969 C 26.777344 35.292969 24.921875 35.003906 24.921875 34.652344 C 24.921875 34.648438 24.921875 34.644531 24.921875 34.644531 Z M 24.921875 34.644531 " clip-rule="evenodd"/></clipPath><clipPath id="e6a4385ac3"><path d="M 26 32.339844 L 34 32.339844 L 34 34.179688 L 26 34.179688 Z M 26 32.339844 " clip-rule="nonzero"/></clipPath><clipPath id="c808cab4cf"><path d="M 25.761719 33.472656 L 25.761719 32.425781 L 34.035156 32.425781 L 34.035156 33.472656 C 34.035156 33.476562 34.035156 33.476562 34.035156 33.480469 C 34.035156 33.835938 32.179688 34.125 29.898438 34.125 C 27.613281 34.125 25.761719 33.835938 25.761719 33.480469 C 25.761719 33.476562 25.761719 33.476562 25.761719 33.472656 Z M 25.761719 33.472656 " clip-rule="evenodd"/></clipPath><clipPath id="5627bf771e"><path d="M 27 31.167969 L 35 31.167969 L 35 33 L 27 33 Z M 27 31.167969 " clip-rule="nonzero"/></clipPath><clipPath id="639c36802e"><path d="M 26.871094 32.300781 L 26.871094 31.253906 L 35.144531 31.253906 L 35.144531 32.300781 C 35.144531 32.304688 35.144531 32.308594 35.144531 32.308594 C 35.144531 32.664062 33.292969 32.953125 31.007812 32.953125 C 28.726562 32.953125 26.871094 32.664062 26.871094 32.308594 C 26.871094 32.308594 26.871094 32.304688 26.871094 32.300781 Z M 26.871094 32.300781 " clip-rule="evenodd"/></clipPath><clipPath id="6dda8664e0"><path d="M 25 30 L 33 30 L 33 31.839844 L 25 31.839844 Z M 25 30 " clip-rule="nonzero"/></clipPath><clipPath id="f985d387d6"><path d="M 24.921875 31.132812 L 24.921875 30.085938 L 33.195312 30.085938 L 33.195312 31.132812 C 33.195312 31.132812 33.195312 31.136719 33.195312 31.140625 C 33.195312 31.496094 31.34375 31.78125 29.058594 31.78125 C 26.777344 31.78125 24.921875 31.496094 24.921875 31.140625 C 24.921875 31.136719 24.921875 31.132812 24.921875 31.132812 Z M 24.921875 31.132812 " clip-rule="evenodd"/></clipPath><clipPath id="5258f47467"><path d="M 26.550781 29.011719 L 34.902344 29.011719 L 34.902344 30.851562 L 26.550781 30.851562 Z M 26.550781 29.011719 " clip-rule="nonzero"/></clipPath><clipPath id="008a2923d6"><path d="M 26.609375 30.144531 L 26.609375 29.097656 L 34.882812 29.097656 L 34.882812 30.144531 C 34.882812 30.148438 34.882812 30.152344 34.882812 30.152344 C 34.882812 30.507812 33.03125 30.796875 30.746094 30.796875 C 28.460938 30.796875 26.609375 30.507812 26.609375 30.152344 C 26.609375 30.152344 26.609375 30.148438 26.609375 30.144531 Z M 26.609375 30.144531 " clip-rule="evenodd"/></clipPath><clipPath id="a12cbe30e4"><path d="M 25.46875 27.84375 L 33.820312 27.84375 L 33.820312 29.683594 L 25.46875 29.683594 Z M 25.46875 27.84375 " clip-rule="nonzero"/></clipPath><clipPath id="024d76269e"><path d="M 25.527344 28.976562 L 25.523438 28.976562 L 25.523438 27.929688 L 33.800781 27.929688 L 33.800781 28.976562 L 33.796875 28.976562 C 33.800781 28.976562 33.800781 28.980469 33.800781 28.984375 C 33.800781 29.335938 31.945312 29.625 29.660156 29.625 C 27.378906 29.625 25.523438 29.335938 25.523438 28.984375 C 25.523438 28.980469 25.527344 28.976562 25.527344 28.976562 Z M 25.527344 28.976562 " clip-rule="evenodd"/></clipPath><clipPath id="b58e03d0d0"><path d="M 27.441406 26.671875 L 35.792969 26.671875 L 35.792969 28.511719 L 27.441406 28.511719 Z M 27.441406 26.671875 " clip-rule="nonzero"/></clipPath><clipPath id="8a40a3e79f"><path d="M 27.5 27.804688 L 27.5 26.757812 L 35.773438 26.757812 L 35.773438 27.804688 C 35.773438 27.808594 35.773438 27.808594 35.773438 27.8125 C 35.773438 28.167969 33.917969 28.457031 31.636719 28.457031 C 29.351562 28.457031 27.5 28.167969 27.5 27.8125 C 27.5 27.808594 27.5 27.808594 27.5 27.804688 Z M 27.5 27.804688 " clip-rule="evenodd"/></clipPath><clipPath id="ec2079ce9b"><path d="M 26 25.503906 L 34 25.503906 L 34 27.339844 L 26 27.339844 Z M 26 25.503906 " clip-rule="nonzero"/></clipPath><clipPath id="99e15de22d"><path d="M 25.769531 26.632812 L 25.769531 25.585938 L 34.046875 25.585938 L 34.046875 26.632812 L 34.042969 26.632812 C 34.046875 26.636719 34.046875 26.640625 34.046875 26.640625 C 34.046875 26.996094 32.191406 27.285156 29.90625 27.285156 C 27.625 27.285156 25.769531 26.996094 25.769531 26.640625 C 25.769531 26.640625 25.769531 26.636719 25.769531 26.632812 Z M 25.769531 26.632812 " clip-rule="evenodd"/></clipPath><clipPath id="afa65eec51"><path d="M 15 34 L 24 34 L 24 36.472656 L 15 36.472656 Z M 15 34 " clip-rule="nonzero"/></clipPath><clipPath id="fd1edc7955"><path d="M 15.207031 34.679688 L 23.558594 34.679688 L 23.558594 36.472656 L 15.207031 36.472656 Z M 15.207031 34.679688 " clip-rule="nonzero"/></clipPath><clipPath id="50351cb9d0"><path d="M 15.265625 35.8125 L 15.265625 34.765625 L 23.539062 34.765625 L 23.539062 35.8125 C 23.539062 35.816406 23.539062 35.820312 23.539062 35.820312 C 23.539062 36.175781 21.683594 36.464844 19.402344 36.464844 C 17.117188 36.464844 15.265625 36.175781 15.265625 35.820312 C 15.265625 35.820312 15.265625 35.816406 15.265625 35.8125 Z M 15.265625 35.8125 " clip-rule="evenodd"/></clipPath><clipPath id="8685de7824"><path d="M 13.476562 33.511719 L 21.832031 33.511719 L 21.832031 35.347656 L 13.476562 35.347656 Z M 13.476562 33.511719 " clip-rule="nonzero"/></clipPath><clipPath id="ef690e4973"><path d="M 13.535156 34.644531 L 13.535156 33.59375 L 21.8125 33.59375 L 21.8125 34.644531 L 21.808594 34.644531 C 21.8125 34.644531 21.8125 34.648438 21.8125 34.652344 C 21.8125 35.003906 19.957031 35.292969 17.671875 35.292969 C 15.390625 35.292969 13.535156 35.003906 13.535156 34.652344 C 13.535156 34.648438 13.535156 34.644531 13.535156 34.644531 Z M 13.535156 34.644531 " clip-rule="evenodd"/></clipPath><clipPath id="c13b546a1c"><path d="M 14.316406 32.339844 L 22.667969 32.339844 L 22.667969 34.179688 L 14.316406 34.179688 Z M 14.316406 32.339844 " clip-rule="nonzero"/></clipPath><clipPath id="d5b61e54c0"><path d="M 14.375 33.472656 L 14.375 32.425781 L 22.648438 32.425781 L 22.648438 33.472656 C 22.648438 33.476562 22.648438 33.476562 22.648438 33.480469 C 22.648438 33.835938 20.796875 34.125 18.511719 34.125 C 16.226562 34.125 14.375 33.835938 14.375 33.480469 C 14.375 33.476562 14.375 33.476562 14.375 33.472656 Z M 14.375 33.472656 " clip-rule="evenodd"/></clipPath><clipPath id="c45d6543fb"><path d="M 15.425781 31.167969 L 23.78125 31.167969 L 23.78125 33 L 15.425781 33 Z M 15.425781 31.167969 " clip-rule="nonzero"/></clipPath><clipPath id="6c02081a77"><path d="M 15.484375 32.300781 L 15.484375 31.253906 L 23.761719 31.253906 L 23.761719 32.300781 L 23.757812 32.300781 C 23.761719 32.304688 23.761719 32.308594 23.761719 32.308594 C 23.761719 32.664062 21.90625 32.953125 19.621094 32.953125 C 17.339844 32.953125 15.484375 32.664062 15.484375 32.308594 C 15.484375 32.308594 15.484375 32.304688 15.484375 32.300781 Z M 15.484375 32.300781 " clip-rule="evenodd"/></clipPath><clipPath id="85fb170d63"><path d="M 13.476562 30 L 21.832031 30 L 21.832031 31.839844 L 13.476562 31.839844 Z M 13.476562 30 " clip-rule="nonzero"/></clipPath><clipPath id="76161cab50"><path d="M 13.535156 31.132812 L 13.535156 30.085938 L 21.8125 30.085938 L 21.8125 31.132812 L 21.808594 31.132812 C 21.8125 31.132812 21.8125 31.136719 21.8125 31.140625 C 21.8125 31.496094 19.957031 31.78125 17.671875 31.78125 C 15.390625 31.78125 13.535156 31.496094 13.535156 31.140625 C 13.535156 31.136719 13.535156 31.132812 13.535156 31.132812 Z M 13.535156 31.132812 " clip-rule="evenodd"/></clipPath><clipPath id="a3e0b7e353"><path d="M 3 34 L 13 34 L 13 36.472656 L 3 36.472656 Z M 3 34 " clip-rule="nonzero"/></clipPath><clipPath id="bb1c93b654"><path d="M 4 34.679688 L 12 34.679688 L 12 36.472656 L 4 36.472656 Z M 4 34.679688 " clip-rule="nonzero"/></clipPath><clipPath id="c7551b639d"><path d="M 3.878906 35.8125 L 3.878906 34.765625 L 12.152344 34.765625 L 12.152344 35.8125 C 12.152344 35.816406 12.152344 35.820312 12.152344 35.820312 C 12.152344 36.175781 10.300781 36.464844 8.015625 36.464844 C 5.730469 36.464844 3.878906 36.175781 3.878906 35.820312 C 3.878906 35.820312 3.878906 35.816406 3.878906 35.8125 Z M 3.878906 35.8125 " clip-rule="evenodd"/></clipPath><clipPath id="cd44a1b791"><path d="M 2.09375 33.511719 L 10.445312 33.511719 L 10.445312 35.347656 L 2.09375 35.347656 Z M 2.09375 33.511719 " clip-rule="nonzero"/></clipPath><clipPath id="cb87937740"><path d="M 2.152344 34.644531 L 2.152344 33.59375 L 10.425781 33.59375 L 10.425781 34.644531 L 10.421875 34.644531 C 10.425781 34.644531 10.425781 34.648438 10.425781 34.652344 C 10.425781 35.003906 8.570312 35.292969 6.285156 35.292969 C 4.003906 35.292969 2.152344 35.003906 2.152344 34.652344 C 2.152344 34.648438 2.152344 34.644531 2.152344 34.644531 Z M 2.152344 34.644531 " clip-rule="evenodd"/></clipPath><clipPath id="ca59190475"><path d="M 3 0.207031 L 34 0.207031 L 34 25 L 3 25 Z M 3 0.207031 " clip-rule="nonzero"/></clipPath></defs><path fill="#6eb01b" d="M 31.527344 18.238281 C 33.667969 19.410156 34.929688 17.433594 35.429688 14.8125 C 32.792969 14.570312 30.417969 16.128906 31.527344 18.238281 Z M 31.527344 18.238281 " fill-opacity="1" fill-rule="evenodd"/><path fill="#6eb01b" d="M 28.378906 17.289062 C 26.351562 18.648438 24.917969 16.792969 24.183594 14.226562 C 26.785156 13.75 29.292969 15.089844 28.378906 17.289062 Z M 28.378906 17.289062 " fill-opacity="1" fill-rule="evenodd"/><g clip-path="url(#1b06b48fe9)"><path fill="#ffdb33" d="M 26.652344 35.8125 L 26.652344 34.765625 L 34.925781 34.765625 L 34.925781 35.8125 C 34.925781 35.816406 34.925781 35.820312 34.925781 35.820312 C 34.925781 36.175781 33.070312 36.464844 30.789062 36.464844 C 28.503906 36.464844 26.652344 36.175781 26.652344 35.820312 C 26.652344 35.820312 26.652344 35.816406 26.652344 35.8125 Z M 26.652344 35.8125 " fill-opacity="1" fill-rule="evenodd"/></g><g clip-path="url(#9f2195d1fc)"><g clip-path="url(#a6305a5200)"><path fill="#ffcd00" d="M 34.585938 36.078125 C 34.5 36.105469 34.402344 36.136719 34.289062 36.164062 L 34.289062 34.765625 L 34.585938 34.765625 Z M 33.773438 36.265625 C 33.675781 36.28125 33.578125 36.296875 33.476562 36.308594 L 33.476562 34.765625 L 33.773438 34.765625 Z M 32.957031 36.367188 C 32.859375 36.378906 32.761719 36.386719 32.660156 36.394531 L 32.660156 34.765625 L 32.957031 34.765625 Z M 32.144531 36.429688 C 32.046875 36.433594 31.949219 36.4375 31.847656 36.441406 L 31.847656 34.765625 L 32.144531 34.765625 Z M 31.332031 36.457031 C 31.230469 36.460938 31.132812 36.460938 31.035156 36.460938 L 31.035156 34.765625 L 31.332031 34.765625 Z M 30.515625 36.460938 C 30.417969 36.460938 30.316406 36.460938 30.21875 36.457031 L 30.21875 34.765625 L 30.515625 34.765625 Z M 29.703125 36.441406 C 29.601562 36.4375 29.503906 36.433594 29.40625 36.425781 L 29.40625 34.765625 L 29.703125 34.765625 Z M 28.890625 36.390625 C 28.789062 36.382812 28.6875 36.375 28.59375 36.367188 L 28.59375 34.765625 L 28.890625 34.765625 Z M 28.074219 36.304688 C 27.972656 36.292969 27.875 36.277344 27.777344 36.261719 L 27.777344 34.765625 L 28.074219 34.765625 Z M 27.261719 36.15625 C 27.148438 36.128906 27.050781 36.097656 26.964844 36.066406 L 26.964844 34.765625 L 27.261719 34.765625 Z M 27.261719 36.15625 " fill-opacity="1" fill-rule="evenodd"/></g></g><path fill="#ffcd00" d="M 34.925781 34.765625 C 34.925781 34.851562 34.820312 34.933594 34.609375 35.011719 C 34.398438 35.089844 34.101562 35.160156 33.714844 35.21875 C 33.324219 35.28125 32.878906 35.328125 32.371094 35.359375 C 31.863281 35.390625 31.335938 35.410156 30.789062 35.410156 C 30.238281 35.410156 29.710938 35.390625 29.203125 35.359375 C 28.699219 35.328125 28.25 35.28125 27.863281 35.21875 C 27.476562 35.160156 27.175781 35.089844 26.964844 35.011719 C 26.757812 34.933594 26.652344 34.851562 26.652344 34.765625 C 26.652344 34.679688 26.757812 34.597656 26.964844 34.519531 C 27.175781 34.441406 27.476562 34.371094 27.863281 34.3125 C 28.25 34.25 28.699219 34.203125 29.203125 34.171875 C 29.710938 34.140625 30.238281 34.121094 30.789062 34.121094 C 31.335938 34.121094 31.863281 34.140625 32.371094 34.171875 C 32.878906 34.203125 33.324219 34.25 33.714844 34.3125 C 34.101562 34.371094 34.398438 34.441406 34.609375 34.519531 C 34.820312 34.597656 34.925781 34.679688 34.925781 34.765625 Z M 34.925781 34.765625 " fill-opacity="1" fill-rule="nonzero"/><path fill="#e09700" d="M 33.992188 34.765625 C 33.992188 34.820312 33.910156 34.871094 33.746094 34.921875 C 33.585938 34.972656 33.351562 35.019531 33.050781 35.058594 C 32.753906 35.097656 32.40625 35.125 32.011719 35.148438 C 31.621094 35.167969 31.210938 35.179688 30.789062 35.179688 C 30.363281 35.179688 29.953125 35.167969 29.5625 35.148438 C 29.171875 35.125 28.824219 35.097656 28.523438 35.058594 C 28.222656 35.019531 27.992188 34.972656 27.828125 34.921875 C 27.667969 34.871094 27.585938 34.820312 27.585938 34.765625 C 27.585938 34.710938 27.667969 34.660156 27.828125 34.609375 C 27.992188 34.558594 28.222656 34.511719 28.523438 34.472656 C 28.824219 34.433594 29.171875 34.40625 29.5625 34.386719 C 29.953125 34.363281 30.363281 34.351562 30.789062 34.351562 C 31.210938 34.351562 31.621094 34.363281 32.011719 34.386719 C 32.40625 34.40625 32.753906 34.433594 33.050781 34.472656 C 33.351562 34.511719 33.585938 34.558594 33.746094 34.609375 C 33.910156 34.660156 33.992188 34.710938 33.992188 34.765625 Z M 33.992188 34.765625 " fill-opacity="1" fill-rule="nonzero"/><path fill="#ffac00" d="M 27.605469 34.8125 C 27.789062 34.609375 29.144531 34.449219 30.789062 34.449219 C 32.429688 34.449219 33.789062 34.609375 33.96875 34.8125 C 33.789062 35.019531 32.429688 35.179688 30.789062 35.179688 C 29.144531 35.179688 27.789062 35.019531 27.605469 34.8125 Z M 27.605469 34.8125 " fill-opacity="1" fill-rule="evenodd"/><path fill="#ffdb33" d="M 24.921875 34.644531 L 24.921875 33.59375 L 33.195312 33.59375 L 33.195312 34.644531 C 33.195312 34.644531 33.195312 34.648438 33.195312 34.652344 C 33.195312 35.003906 31.34375 35.292969 29.058594 35.292969 C 26.777344 35.292969 24.921875 35.003906 24.921875 34.652344 C 24.921875 34.648438 24.921875 34.644531 24.921875 34.644531 Z M 24.921875 34.644531 " fill-opacity="1" fill-rule="evenodd"/><g clip-path="url(#436d1723db)"><g clip-path="url(#671d95e90e)"><path fill="#ffcd00" d="M 32.855469 34.90625 C 32.773438 34.9375 32.671875 34.964844 32.558594 34.992188 L 32.558594 33.59375 L 32.855469 33.59375 Z M 32.042969 35.097656 C 31.949219 35.109375 31.851562 35.125 31.746094 35.140625 L 31.746094 33.59375 L 32.042969 33.59375 Z M 31.230469 35.199219 C 31.132812 35.207031 31.035156 35.214844 30.933594 35.222656 L 30.933594 33.59375 L 31.230469 33.59375 Z M 30.414062 35.257812 C 30.320312 35.261719 30.21875 35.269531 30.121094 35.273438 L 30.121094 33.59375 L 30.414062 33.59375 Z M 29.601562 35.289062 C 29.503906 35.289062 29.40625 35.292969 29.304688 35.292969 L 29.304688 33.59375 L 29.601562 33.59375 Z M 28.789062 35.292969 C 28.6875 35.292969 28.589844 35.289062 28.492188 35.289062 L 28.492188 33.59375 L 28.789062 33.59375 Z M 27.976562 35.269531 C 27.875 35.265625 27.777344 35.261719 27.679688 35.257812 L 27.679688 33.59375 L 27.976562 33.59375 Z M 27.160156 35.222656 C 27.058594 35.214844 26.960938 35.203125 26.863281 35.195312 L 26.863281 33.59375 L 27.160156 33.59375 Z M 26.347656 35.136719 C 26.246094 35.121094 26.144531 35.105469 26.050781 35.089844 L 26.050781 33.59375 L 26.347656 33.59375 Z M 25.535156 34.988281 C 25.421875 34.957031 25.320312 34.929688 25.238281 34.898438 L 25.238281 33.59375 L 25.535156 33.59375 Z M 25.535156 34.988281 " fill-opacity="1" fill-rule="evenodd"/></g></g><path fill="#ffcd00" d="M 33.195312 33.59375 C 33.195312 33.679688 33.09375 33.761719 32.882812 33.839844 C 32.671875 33.921875 32.375 33.988281 31.984375 34.050781 C 31.597656 34.109375 31.148438 34.15625 30.644531 34.1875 C 30.136719 34.222656 29.609375 34.238281 29.058594 34.238281 C 28.511719 34.238281 27.984375 34.222656 27.476562 34.1875 C 26.96875 34.15625 26.523438 34.109375 26.132812 34.050781 C 25.746094 33.988281 25.449219 33.921875 25.238281 33.839844 C 25.027344 33.761719 24.921875 33.679688 24.921875 33.59375 C 24.921875 33.511719 25.027344 33.429688 25.238281 33.347656 C 25.449219 33.269531 25.746094 33.199219 26.132812 33.140625 C 26.523438 33.082031 26.96875 33.035156 27.476562 33 C 27.984375 32.96875 28.511719 32.953125 29.058594 32.953125 C 29.609375 32.953125 30.136719 32.96875 30.644531 33 C 31.148438 33.035156 31.597656 33.082031 31.984375 33.140625 C 32.375 33.199219 32.671875 33.269531 32.882812 33.347656 C 33.09375 33.429688 33.195312 33.511719 33.195312 33.59375 Z M 33.195312 33.59375 " fill-opacity="1" fill-rule="nonzero"/><path fill="#e09700" d="M 32.261719 33.59375 C 32.261719 33.648438 32.179688 33.703125 32.019531 33.753906 C 31.855469 33.804688 31.625 33.847656 31.324219 33.886719 C 31.023438 33.925781 30.679688 33.957031 30.285156 33.976562 C 29.894531 33.996094 29.484375 34.007812 29.058594 34.007812 C 28.636719 34.007812 28.226562 33.996094 27.835938 33.976562 C 27.441406 33.957031 27.097656 33.925781 26.796875 33.886719 C 26.496094 33.847656 26.265625 33.804688 26.101562 33.753906 C 25.9375 33.703125 25.855469 33.648438 25.855469 33.59375 C 25.855469 33.539062 25.9375 33.488281 26.101562 33.4375 C 26.265625 33.386719 26.496094 33.34375 26.796875 33.304688 C 27.097656 33.265625 27.441406 33.234375 27.835938 33.214844 C 28.226562 33.195312 28.636719 33.183594 29.058594 33.183594 C 29.484375 33.183594 29.894531 33.195312 30.285156 33.214844 C 30.679688 33.234375 31.023438 33.265625 31.324219 33.304688 C 31.625 33.34375 31.855469 33.386719 32.019531 33.4375 C 32.179688 33.488281 32.261719 33.539062 32.261719 33.59375 Z M 32.261719 33.59375 " fill-opacity="1" fill-rule="nonzero"/><path fill="#ffac00" d="M 25.878906 33.640625 C 26.058594 33.4375 27.417969 33.277344 29.058594 33.277344 C 30.703125 33.277344 32.058594 33.4375 32.242188 33.640625 C 32.058594 33.847656 30.703125 34.007812 29.058594 34.007812 C 27.417969 34.007812 26.058594 33.847656 25.878906 33.640625 Z M 25.878906 33.640625 " fill-opacity="1" fill-rule="evenodd"/><path fill="#ffdb33" d="M 25.761719 33.472656 L 25.761719 32.425781 L 34.035156 32.425781 L 34.035156 33.472656 C 34.035156 33.476562 34.035156 33.476562 34.035156 33.480469 C 34.035156 33.835938 32.179688 34.125 29.898438 34.125 C 27.613281 34.125 25.761719 33.835938 25.761719 33.480469 C 25.761719 33.476562 25.761719 33.476562 25.761719 33.472656 Z M 25.761719 33.472656 " fill-opacity="1" fill-rule="evenodd"/><g clip-path="url(#e6a4385ac3)"><g clip-path="url(#c808cab4cf)"><path fill="#ffcd00" d="M 33.695312 33.734375 C 33.609375 33.765625 33.511719 33.796875 33.398438 33.824219 L 33.398438 32.425781 L 33.695312 32.425781 Z M 32.882812 33.925781 C 32.789062 33.941406 32.6875 33.953125 32.585938 33.96875 L 32.585938 32.425781 L 32.882812 32.425781 Z M 32.066406 34.027344 C 31.972656 34.035156 31.871094 34.046875 31.769531 34.054688 L 31.769531 32.425781 L 32.066406 32.425781 Z M 31.253906 34.085938 C 31.15625 34.09375 31.058594 34.097656 30.957031 34.101562 L 30.957031 32.425781 L 31.253906 32.425781 Z M 30.441406 34.117188 C 30.34375 34.121094 30.242188 34.121094 30.144531 34.121094 L 30.144531 32.425781 L 30.441406 32.425781 Z M 29.625 34.121094 C 29.527344 34.121094 29.425781 34.121094 29.328125 34.117188 L 29.328125 32.425781 L 29.625 32.425781 Z M 28.8125 34.101562 C 28.710938 34.097656 28.613281 34.089844 28.515625 34.085938 L 28.515625 32.425781 L 28.8125 32.425781 Z M 28 34.050781 C 27.898438 34.042969 27.796875 34.035156 27.703125 34.023438 L 27.703125 32.425781 L 28 32.425781 Z M 27.183594 33.964844 C 27.082031 33.953125 26.984375 33.9375 26.890625 33.921875 L 26.890625 32.425781 L 27.183594 32.425781 Z M 26.371094 33.816406 C 26.257812 33.789062 26.160156 33.757812 26.074219 33.726562 L 26.074219 32.425781 L 26.371094 32.425781 Z M 26.371094 33.816406 " fill-opacity="1" fill-rule="evenodd"/></g></g><path fill="#ffcd00" d="M 34.035156 32.425781 C 34.035156 32.511719 33.929688 32.59375 33.71875 32.671875 C 33.511719 32.75 33.210938 32.820312 32.824219 32.878906 C 32.433594 32.941406 31.988281 32.984375 31.480469 33.019531 C 30.972656 33.050781 30.445312 33.066406 29.898438 33.066406 C 29.347656 33.066406 28.820312 33.050781 28.316406 33.019531 C 27.808594 32.984375 27.359375 32.941406 26.972656 32.878906 C 26.585938 32.820312 26.285156 32.75 26.074219 32.671875 C 25.867188 32.59375 25.761719 32.511719 25.761719 32.425781 C 25.761719 32.339844 25.867188 32.257812 26.074219 32.179688 C 26.285156 32.101562 26.585938 32.03125 26.972656 31.96875 C 27.359375 31.910156 27.808594 31.863281 28.316406 31.832031 C 28.820312 31.796875 29.347656 31.78125 29.898438 31.78125 C 30.445312 31.78125 30.972656 31.796875 31.480469 31.832031 C 31.988281 31.863281 32.433594 31.910156 32.824219 31.96875 C 33.210938 32.03125 33.511719 32.101562 33.71875 32.179688 C 33.929688 32.257812 34.035156 32.339844 34.035156 32.425781 Z M 34.035156 32.425781 " fill-opacity="1" fill-rule="nonzero"/><path fill="#e09700" d="M 33.101562 32.425781 C 33.101562 32.480469 33.019531 32.53125 32.855469 32.582031 C 32.695312 32.632812 32.460938 32.679688 32.164062 32.714844 C 31.863281 32.753906 31.515625 32.785156 31.125 32.804688 C 30.730469 32.828125 30.324219 32.835938 29.898438 32.835938 C 29.472656 32.835938 29.066406 32.828125 28.671875 32.804688 C 28.28125 32.785156 27.933594 32.753906 27.632812 32.714844 C 27.332031 32.679688 27.101562 32.632812 26.9375 32.582031 C 26.777344 32.53125 26.695312 32.480469 26.695312 32.425781 C 26.695312 32.371094 26.777344 32.316406 26.9375 32.265625 C 27.101562 32.214844 27.332031 32.171875 27.632812 32.132812 C 27.933594 32.09375 28.28125 32.066406 28.671875 32.042969 C 29.066406 32.023438 29.472656 32.011719 29.898438 32.011719 C 30.324219 32.011719 30.730469 32.023438 31.125 32.042969 C 31.515625 32.066406 31.863281 32.09375 32.164062 32.132812 C 32.460938 32.171875 32.695312 32.214844 32.855469 32.265625 C 33.019531 32.316406 33.101562 32.371094 33.101562 32.425781 Z M 33.101562 32.425781 " fill-opacity="1" fill-rule="nonzero"/><path fill="#ffac00" d="M 26.714844 32.472656 C 26.898438 32.265625 28.253906 32.105469 29.898438 32.105469 C 31.542969 32.105469 32.898438 32.265625 33.078125 32.472656 C 32.898438 32.675781 31.542969 32.835938 29.898438 32.835938 C 28.253906 32.835938 26.898438 32.675781 26.714844 32.472656 Z M 26.714844 32.472656 " fill-opacity="1" fill-rule="evenodd"/><path fill="#ffdb33" d="M 26.871094 32.300781 L 26.871094 31.253906 L 35.144531 31.253906 L 35.144531 32.300781 C 35.144531 32.304688 35.144531 32.308594 35.144531 32.308594 C 35.144531 32.664062 33.292969 32.953125 31.007812 32.953125 C 28.726562 32.953125 26.871094 32.664062 26.871094 32.308594 C 26.871094 32.308594 26.871094 32.304688 26.871094 32.300781 Z M 26.871094 32.300781 " fill-opacity="1" fill-rule="evenodd"/><g clip-path="url(#5627bf771e)"><g clip-path="url(#639c36802e)"><path fill="#ffcd00" d="M 34.804688 32.566406 C 34.722656 32.59375 34.621094 32.625 34.507812 32.652344 L 34.507812 31.253906 L 34.804688 31.253906 Z M 33.992188 32.753906 C 33.898438 32.769531 33.800781 32.785156 33.695312 32.796875 L 33.695312 31.253906 L 33.992188 31.253906 Z M 33.179688 32.855469 C 33.082031 32.867188 32.984375 32.875 32.882812 32.882812 L 32.882812 31.253906 L 33.179688 31.253906 Z M 32.363281 32.917969 C 32.269531 32.921875 32.167969 32.925781 32.066406 32.929688 L 32.066406 31.253906 L 32.363281 31.253906 Z M 31.550781 32.945312 C 31.453125 32.949219 31.355469 32.949219 31.253906 32.953125 L 31.253906 31.253906 L 31.550781 31.253906 Z M 30.738281 32.953125 C 30.636719 32.949219 30.539062 32.949219 30.441406 32.945312 L 30.441406 31.253906 L 30.738281 31.253906 Z M 29.925781 32.929688 C 29.824219 32.925781 29.726562 32.921875 29.628906 32.914062 L 29.628906 31.253906 L 29.925781 31.253906 Z M 29.109375 32.878906 C 29.007812 32.871094 28.910156 32.863281 28.8125 32.855469 L 28.8125 31.253906 L 29.109375 31.253906 Z M 28.296875 32.796875 C 28.191406 32.78125 28.09375 32.765625 28 32.75 L 28 31.253906 L 28.296875 31.253906 Z M 27.484375 32.644531 C 27.371094 32.617188 27.269531 32.585938 27.1875 32.554688 L 27.1875 31.253906 L 27.484375 31.253906 Z M 27.484375 32.644531 " fill-opacity="1" fill-rule="evenodd"/></g></g><path fill="#ffcd00" d="M 35.144531 31.253906 C 35.144531 31.339844 35.039062 31.421875 34.832031 31.5 C 34.621094 31.578125 34.320312 31.648438 33.933594 31.707031 C 33.546875 31.769531 33.097656 31.816406 32.59375 31.847656 C 32.085938 31.882812 31.558594 31.898438 31.007812 31.898438 C 30.460938 31.898438 29.933594 31.882812 29.425781 31.847656 C 28.917969 31.816406 28.472656 31.769531 28.082031 31.707031 C 27.695312 31.648438 27.398438 31.578125 27.1875 31.5 C 26.976562 31.421875 26.871094 31.339844 26.871094 31.253906 C 26.871094 31.167969 26.976562 31.085938 27.1875 31.007812 C 27.398438 30.929688 27.695312 30.859375 28.082031 30.800781 C 28.472656 30.738281 28.917969 30.691406 29.425781 30.660156 C 29.933594 30.628906 30.460938 30.613281 31.007812 30.613281 C 31.558594 30.613281 32.085938 30.628906 32.59375 30.660156 C 33.097656 30.691406 33.546875 30.738281 33.933594 30.800781 C 34.320312 30.859375 34.621094 30.929688 34.832031 31.007812 C 35.039062 31.085938 35.144531 31.167969 35.144531 31.253906 Z M 35.144531 31.253906 " fill-opacity="1" fill-rule="nonzero"/><path fill="#e09700" d="M 34.210938 31.253906 C 34.210938 31.308594 34.128906 31.363281 33.96875 31.414062 C 33.804688 31.460938 33.574219 31.507812 33.273438 31.546875 C 32.972656 31.585938 32.625 31.613281 32.234375 31.636719 C 31.84375 31.65625 31.433594 31.667969 31.007812 31.667969 C 30.585938 31.667969 30.175781 31.65625 29.785156 31.636719 C 29.390625 31.613281 29.042969 31.585938 28.746094 31.546875 C 28.445312 31.507812 28.210938 31.460938 28.050781 31.414062 C 27.886719 31.363281 27.804688 31.308594 27.804688 31.253906 C 27.804688 31.199219 27.886719 31.148438 28.050781 31.097656 C 28.210938 31.046875 28.445312 31 28.746094 30.960938 C 29.042969 30.925781 29.390625 30.894531 29.785156 30.875 C 30.175781 30.851562 30.585938 30.84375 31.007812 30.84375 C 31.433594 30.84375 31.84375 30.851562 32.234375 30.875 C 32.625 30.894531 32.972656 30.925781 33.273438 30.960938 C 33.574219 31 33.804688 31.046875 33.96875 31.097656 C 34.128906 31.148438 34.210938 31.199219 34.210938 31.253906 Z M 34.210938 31.253906 " fill-opacity="1" fill-rule="nonzero"/><path fill="#ffac00" d="M 27.828125 31.300781 C 28.007812 31.097656 29.367188 30.9375 31.007812 30.9375 C 32.652344 30.9375 34.007812 31.097656 34.191406 31.300781 C 34.007812 31.507812 32.652344 31.667969 31.007812 31.667969 C 29.367188 31.667969 28.007812 31.507812 27.828125 31.300781 Z M 27.828125 31.300781 " fill-opacity="1" fill-rule="evenodd"/><path fill="#ffdb33" d="M 24.921875 31.132812 L 24.921875 30.085938 L 33.195312 30.085938 L 33.195312 31.132812 C 33.195312 31.132812 33.195312 31.136719 33.195312 31.140625 C 33.195312 31.496094 31.34375 31.78125 29.058594 31.78125 C 26.777344 31.78125 24.921875 31.496094 24.921875 31.140625 C 24.921875 31.136719 24.921875 31.132812 24.921875 31.132812 Z M 24.921875 31.132812 " fill-opacity="1" fill-rule="evenodd"/><g clip-path="url(#6dda8664e0)"><g clip-path="url(#f985d387d6)"><path fill="#ffcd00" d="M 32.855469 31.394531 C 32.773438 31.425781 32.671875 31.453125 32.558594 31.480469 L 32.558594 30.085938 L 32.855469 30.085938 Z M 32.042969 31.585938 C 31.949219 31.601562 31.851562 31.613281 31.746094 31.628906 L 31.746094 30.085938 L 32.042969 30.085938 Z M 31.230469 31.6875 C 31.132812 31.695312 31.035156 31.703125 30.933594 31.710938 L 30.933594 30.085938 L 31.230469 30.085938 Z M 30.414062 31.746094 C 30.320312 31.753906 30.21875 31.757812 30.121094 31.761719 L 30.121094 30.085938 L 30.414062 30.085938 Z M 29.601562 31.777344 C 29.503906 31.777344 29.40625 31.78125 29.304688 31.78125 L 29.304688 30.085938 L 29.601562 30.085938 Z M 28.789062 31.78125 C 28.6875 31.78125 28.589844 31.777344 28.492188 31.777344 L 28.492188 30.085938 L 28.789062 30.085938 Z M 27.976562 31.761719 C 27.875 31.753906 27.777344 31.75 27.679688 31.746094 L 27.679688 30.085938 L 27.976562 30.085938 Z M 27.160156 31.710938 C 27.058594 31.703125 26.960938 31.695312 26.863281 31.683594 L 26.863281 30.085938 L 27.160156 30.085938 Z M 26.347656 31.625 C 26.246094 31.609375 26.144531 31.59375 26.050781 31.582031 L 26.050781 30.085938 L 26.347656 30.085938 Z M 25.535156 31.476562 C 25.421875 31.445312 25.320312 31.417969 25.238281 31.386719 L 25.238281 30.085938 L 25.535156 30.085938 Z M 25.535156 31.476562 " fill-opacity="1" fill-rule="evenodd"/></g></g><path fill="#ffcd00" d="M 33.195312 30.085938 C 33.195312 30.167969 33.09375 30.25 32.882812 30.328125 C 32.671875 30.410156 32.375 30.476562 31.984375 30.539062 C 31.597656 30.597656 31.148438 30.644531 30.644531 30.679688 C 30.136719 30.710938 29.609375 30.726562 29.058594 30.726562 C 28.511719 30.726562 27.984375 30.710938 27.476562 30.679688 C 26.96875 30.644531 26.523438 30.597656 26.132812 30.539062 C 25.746094 30.476562 25.449219 30.410156 25.238281 30.328125 C 25.027344 30.25 24.921875 30.167969 24.921875 30.085938 C 24.921875 30 25.027344 29.917969 25.238281 29.839844 C 25.449219 29.757812 25.746094 29.691406 26.132812 29.628906 C 26.523438 29.570312 26.96875 29.523438 27.476562 29.488281 C 27.984375 29.457031 28.511719 29.441406 29.058594 29.441406 C 29.609375 29.441406 30.136719 29.457031 30.644531 29.488281 C 31.148438 29.523438 31.597656 29.570312 31.984375 29.628906 C 32.375 29.691406 32.671875 29.757812 32.882812 29.839844 C 33.09375 29.917969 33.195312 30 33.195312 30.085938 Z M 33.195312 30.085938 " fill-opacity="1" fill-rule="nonzero"/><path fill="#e09700" d="M 32.261719 30.085938 C 32.261719 30.140625 32.179688 30.191406 32.019531 30.242188 C 31.855469 30.292969 31.625 30.335938 31.324219 30.375 C 31.023438 30.414062 30.679688 30.445312 30.285156 30.464844 C 29.894531 30.484375 29.484375 30.496094 29.058594 30.496094 C 28.636719 30.496094 28.226562 30.484375 27.835938 30.464844 C 27.441406 30.445312 27.097656 30.414062 26.796875 30.375 C 26.496094 30.335938 26.265625 30.292969 26.101562 30.242188 C 25.9375 30.191406 25.855469 30.140625 25.855469 30.085938 C 25.855469 30.03125 25.9375 29.976562 26.101562 29.925781 C 26.265625 29.875 26.496094 29.832031 26.796875 29.792969 C 27.097656 29.753906 27.441406 29.722656 27.835938 29.703125 C 28.226562 29.683594 28.636719 29.671875 29.058594 29.671875 C 29.484375 29.671875 29.894531 29.683594 30.285156 29.703125 C 30.679688 29.722656 31.023438 29.753906 31.324219 29.792969 C 31.625 29.832031 31.855469 29.875 32.019531 29.925781 C 32.179688 29.976562 32.261719 30.03125 32.261719 30.085938 Z M 32.261719 30.085938 " fill-opacity="1" fill-rule="nonzero"/><path fill="#ffac00" d="M 25.878906 30.132812 C 26.058594 29.925781 27.417969 29.765625 29.058594 29.765625 C 30.703125 29.765625 32.058594 29.925781 32.242188 30.132812 C 32.058594 30.335938 30.703125 30.496094 29.058594 30.496094 C 27.417969 30.496094 26.058594 30.335938 25.878906 30.132812 Z M 25.878906 30.132812 " fill-opacity="1" fill-rule="evenodd"/><path fill="#ffdb33" d="M 26.609375 30.144531 L 26.609375 29.097656 L 34.882812 29.097656 L 34.882812 30.144531 C 34.882812 30.148438 34.882812 30.152344 34.882812 30.152344 C 34.882812 30.507812 33.03125 30.796875 30.746094 30.796875 C 28.460938 30.796875 26.609375 30.507812 26.609375 30.152344 C 26.609375 30.152344 26.609375 30.148438 26.609375 30.144531 Z M 26.609375 30.144531 " fill-opacity="1" fill-rule="evenodd"/><g clip-path="url(#5258f47467)"><g clip-path="url(#008a2923d6)"><path fill="#ffcd00" d="M 34.542969 30.410156 C 34.457031 30.4375 34.359375 30.46875 34.246094 30.496094 L 34.246094 29.097656 L 34.542969 29.097656 Z M 33.730469 30.597656 C 33.636719 30.613281 33.535156 30.628906 33.433594 30.640625 L 33.433594 29.097656 L 33.730469 29.097656 Z M 32.914062 30.699219 C 32.820312 30.710938 32.722656 30.71875 32.617188 30.726562 L 32.617188 29.097656 L 32.914062 29.097656 Z M 32.101562 30.761719 C 32.003906 30.765625 31.90625 30.769531 31.804688 30.773438 L 31.804688 29.097656 L 32.101562 29.097656 Z M 31.289062 30.789062 C 31.191406 30.792969 31.089844 30.792969 30.992188 30.796875 L 30.992188 29.097656 L 31.289062 29.097656 Z M 30.476562 30.792969 C 30.375 30.792969 30.277344 30.792969 30.179688 30.789062 L 30.179688 29.097656 L 30.476562 29.097656 Z M 29.660156 30.773438 C 29.5625 30.769531 29.460938 30.765625 29.363281 30.757812 L 29.363281 29.097656 L 29.660156 29.097656 Z M 28.847656 30.722656 C 28.746094 30.714844 28.648438 30.707031 28.550781 30.699219 L 28.550781 29.097656 L 28.847656 29.097656 Z M 28.035156 30.636719 C 27.929688 30.625 27.832031 30.609375 27.738281 30.59375 L 27.738281 29.097656 L 28.035156 29.097656 Z M 27.21875 30.488281 C 27.105469 30.460938 27.007812 30.429688 26.921875 30.398438 L 26.921875 29.097656 L 27.21875 29.097656 Z M 27.21875 30.488281 " fill-opacity="1" fill-rule="evenodd"/></g></g><path fill="#ffcd00" d="M 34.882812 29.097656 C 34.882812 29.183594 34.777344 29.265625 34.566406 29.34375 C 34.359375 29.421875 34.058594 29.492188 33.671875 29.550781 C 33.285156 29.613281 32.835938 29.660156 32.328125 29.691406 C 31.824219 29.722656 31.292969 29.742188 30.746094 29.742188 C 30.199219 29.742188 29.667969 29.722656 29.164062 29.691406 C 28.65625 29.660156 28.207031 29.613281 27.820312 29.550781 C 27.433594 29.492188 27.132812 29.421875 26.925781 29.34375 C 26.714844 29.265625 26.609375 29.183594 26.609375 29.097656 C 26.609375 29.011719 26.714844 28.929688 26.925781 28.851562 C 27.132812 28.773438 27.433594 28.703125 27.820312 28.644531 C 28.207031 28.582031 28.65625 28.535156 29.164062 28.503906 C 29.667969 28.472656 30.199219 28.457031 30.746094 28.457031 C 31.292969 28.457031 31.824219 28.472656 32.328125 28.503906 C 32.835938 28.535156 33.285156 28.582031 33.671875 28.644531 C 34.058594 28.703125 34.359375 28.773438 34.566406 28.851562 C 34.777344 28.929688 34.882812 29.011719 34.882812 29.097656 Z M 34.882812 29.097656 " fill-opacity="1" fill-rule="nonzero"/><path fill="#e09700" d="M 33.949219 29.097656 C 33.949219 29.152344 33.867188 29.207031 33.703125 29.253906 C 33.542969 29.304688 33.3125 29.351562 33.011719 29.390625 C 32.710938 29.429688 32.363281 29.457031 31.972656 29.480469 C 31.578125 29.5 31.171875 29.511719 30.746094 29.511719 C 30.320312 29.511719 29.914062 29.5 29.519531 29.480469 C 29.128906 29.457031 28.78125 29.429688 28.480469 29.390625 C 28.179688 29.351562 27.949219 29.304688 27.789062 29.253906 C 27.625 29.207031 27.542969 29.152344 27.542969 29.097656 C 27.542969 29.042969 27.625 28.992188 27.789062 28.941406 C 27.949219 28.890625 28.179688 28.84375 28.480469 28.804688 C 28.78125 28.769531 29.128906 28.738281 29.519531 28.71875 C 29.914062 28.695312 30.320312 28.6875 30.746094 28.6875 C 31.171875 28.6875 31.578125 28.695312 31.972656 28.71875 C 32.363281 28.738281 32.710938 28.769531 33.011719 28.804688 C 33.3125 28.84375 33.542969 28.890625 33.703125 28.941406 C 33.867188 28.992188 33.949219 29.042969 33.949219 29.097656 Z M 33.949219 29.097656 " fill-opacity="1" fill-rule="nonzero"/><path fill="#ffac00" d="M 27.5625 29.144531 C 27.746094 28.941406 29.101562 28.78125 30.746094 28.78125 C 32.390625 28.78125 33.746094 28.941406 33.925781 29.144531 C 33.746094 29.351562 32.390625 29.511719 30.746094 29.511719 C 29.101562 29.511719 27.746094 29.351562 27.5625 29.144531 Z M 27.5625 29.144531 " fill-opacity="1" fill-rule="evenodd"/><path fill="#ffdb33" d="M 25.527344 28.976562 L 25.523438 28.976562 L 25.523438 27.929688 L 33.800781 27.929688 L 33.800781 28.976562 L 33.796875 28.976562 C 33.800781 28.976562 33.800781 28.980469 33.800781 28.984375 C 33.800781 29.335938 31.945312 29.625 29.660156 29.625 C 27.378906 29.625 25.523438 29.335938 25.523438 28.984375 C 25.523438 28.980469 25.527344 28.976562 25.527344 28.976562 Z M 25.527344 28.976562 " fill-opacity="1" fill-rule="evenodd"/><g clip-path="url(#a12cbe30e4)"><g clip-path="url(#024d76269e)"><path fill="#ffcd00" d="M 33.460938 29.238281 C 33.375 29.269531 33.277344 29.296875 33.164062 29.324219 L 33.164062 27.925781 L 33.460938 27.925781 Z M 32.644531 29.429688 C 32.550781 29.441406 32.453125 29.457031 32.347656 29.472656 L 32.347656 27.925781 L 32.644531 27.925781 Z M 31.832031 29.53125 C 31.734375 29.539062 31.636719 29.546875 31.535156 29.554688 L 31.535156 27.925781 L 31.832031 27.925781 Z M 31.019531 29.589844 C 30.921875 29.59375 30.820312 29.601562 30.722656 29.605469 L 30.722656 27.925781 L 31.019531 27.925781 Z M 30.203125 29.621094 C 30.105469 29.621094 30.007812 29.625 29.90625 29.625 L 29.90625 27.925781 L 30.203125 27.925781 Z M 29.390625 29.625 C 29.292969 29.625 29.191406 29.621094 29.09375 29.621094 L 29.09375 27.925781 L 29.390625 27.925781 Z M 28.578125 29.601562 C 28.476562 29.597656 28.378906 29.59375 28.28125 29.589844 L 28.28125 27.925781 L 28.578125 27.925781 Z M 27.765625 29.554688 C 27.664062 29.546875 27.5625 29.535156 27.46875 29.527344 L 27.46875 27.925781 L 27.765625 27.925781 Z M 26.949219 29.46875 C 26.847656 29.453125 26.746094 29.4375 26.652344 29.425781 L 26.652344 27.925781 L 26.949219 27.925781 Z M 26.136719 29.320312 C 26.023438 29.289062 25.921875 29.261719 25.839844 29.230469 L 25.839844 27.925781 L 26.136719 27.925781 Z M 26.136719 29.320312 " fill-opacity="1" fill-rule="evenodd"/></g></g><path fill="#ffcd00" d="M 33.800781 27.925781 C 33.800781 28.011719 33.695312 28.09375 33.484375 28.171875 C 33.273438 28.253906 32.976562 28.320312 32.585938 28.382812 C 32.199219 28.441406 31.753906 28.488281 31.246094 28.519531 C 30.738281 28.554688 30.210938 28.570312 29.664062 28.570312 C 29.113281 28.570312 28.585938 28.554688 28.078125 28.519531 C 27.574219 28.488281 27.125 28.441406 26.738281 28.382812 C 26.347656 28.320312 26.050781 28.253906 25.839844 28.171875 C 25.628906 28.09375 25.523438 28.011719 25.527344 27.925781 C 25.523438 27.84375 25.628906 27.761719 25.839844 27.679688 C 26.050781 27.601562 26.347656 27.535156 26.738281 27.472656 C 27.125 27.414062 27.574219 27.367188 28.078125 27.332031 C 28.585938 27.300781 29.113281 27.285156 29.664062 27.285156 C 30.210938 27.285156 30.738281 27.300781 31.246094 27.332031 C 31.753906 27.367188 32.199219 27.414062 32.585938 27.472656 C 32.976562 27.535156 33.273438 27.601562 33.484375 27.679688 C 33.695312 27.761719 33.800781 27.84375 33.800781 27.925781 Z M 33.800781 27.925781 " fill-opacity="1" fill-rule="nonzero"/><path fill="#e09700" d="M 32.863281 27.925781 C 32.863281 27.980469 32.785156 28.035156 32.621094 28.085938 C 32.457031 28.136719 32.226562 28.179688 31.925781 28.21875 C 31.625 28.257812 31.28125 28.289062 30.886719 28.308594 C 30.496094 28.328125 30.085938 28.339844 29.664062 28.339844 C 29.238281 28.339844 28.828125 28.328125 28.4375 28.308594 C 28.042969 28.289062 27.699219 28.257812 27.398438 28.21875 C 27.097656 28.179688 26.867188 28.136719 26.703125 28.085938 C 26.542969 28.035156 26.460938 27.980469 26.460938 27.925781 C 26.460938 27.871094 26.542969 27.820312 26.703125 27.769531 C 26.867188 27.71875 27.097656 27.675781 27.398438 27.636719 C 27.699219 27.597656 28.042969 27.566406 28.4375 27.546875 C 28.828125 27.527344 29.238281 27.515625 29.664062 27.515625 C 30.085938 27.515625 30.496094 27.527344 30.886719 27.546875 C 31.28125 27.566406 31.625 27.597656 31.925781 27.636719 C 32.226562 27.675781 32.457031 27.71875 32.621094 27.769531 C 32.785156 27.820312 32.863281 27.871094 32.863281 27.925781 Z M 32.863281 27.925781 " fill-opacity="1" fill-rule="nonzero"/><path fill="#ffac00" d="M 26.480469 27.976562 C 26.664062 27.769531 28.019531 27.609375 29.664062 27.609375 C 31.304688 27.609375 32.660156 27.769531 32.84375 27.976562 C 32.660156 28.179688 31.304688 28.339844 29.664062 28.339844 C 28.019531 28.339844 26.664062 28.179688 26.480469 27.976562 Z M 26.480469 27.976562 " fill-opacity="1" fill-rule="evenodd"/><path fill="#ffdb33" d="M 27.5 27.804688 L 27.5 26.757812 L 35.773438 26.757812 L 35.773438 27.804688 C 35.773438 27.808594 35.773438 27.808594 35.773438 27.8125 C 35.773438 28.167969 33.917969 28.457031 31.636719 28.457031 C 29.351562 28.457031 27.5 28.167969 27.5 27.8125 C 27.5 27.808594 27.5 27.808594 27.5 27.804688 Z M 27.5 27.804688 " fill-opacity="1" fill-rule="evenodd"/><g clip-path="url(#b58e03d0d0)"><g clip-path="url(#8a40a3e79f)"><path fill="#ffcd00" d="M 35.433594 28.066406 C 35.347656 28.097656 35.25 28.128906 35.136719 28.15625 L 35.136719 26.757812 L 35.433594 26.757812 Z M 34.621094 28.257812 C 34.527344 28.273438 34.425781 28.289062 34.324219 28.300781 L 34.324219 26.757812 L 34.621094 26.757812 Z M 33.804688 28.359375 C 33.710938 28.367188 33.609375 28.378906 33.507812 28.386719 L 33.507812 26.757812 L 33.804688 26.757812 Z M 32.992188 28.417969 C 32.894531 28.425781 32.796875 28.429688 32.695312 28.433594 L 32.695312 26.757812 L 32.992188 26.757812 Z M 32.179688 28.449219 C 32.082031 28.453125 31.980469 28.453125 31.882812 28.453125 L 31.882812 26.757812 L 32.179688 26.757812 Z M 31.363281 28.453125 C 31.265625 28.453125 31.164062 28.453125 31.066406 28.449219 L 31.066406 26.757812 L 31.363281 26.757812 Z M 30.550781 28.433594 C 30.449219 28.429688 30.351562 28.425781 30.253906 28.417969 L 30.253906 26.757812 L 30.550781 26.757812 Z M 29.738281 28.382812 C 29.636719 28.375 29.535156 28.367188 29.441406 28.355469 L 29.441406 26.757812 L 29.738281 26.757812 Z M 28.921875 28.296875 C 28.820312 28.285156 28.722656 28.269531 28.628906 28.253906 L 28.628906 26.757812 L 28.921875 26.757812 Z M 28.109375 28.148438 C 27.996094 28.121094 27.898438 28.089844 27.8125 28.058594 L 27.8125 26.757812 L 28.109375 26.757812 Z M 28.109375 28.148438 " fill-opacity="1" fill-rule="evenodd"/></g></g><path fill="#ffcd00" d="M 35.773438 26.757812 C 35.773438 26.84375 35.667969 26.925781 35.457031 27.003906 C 35.25 27.082031 34.949219 27.152344 34.5625 27.210938 C 34.171875 27.273438 33.726562 27.320312 33.21875 27.351562 C 32.710938 27.382812 32.183594 27.398438 31.636719 27.398438 C 31.085938 27.398438 30.558594 27.382812 30.054688 27.351562 C 29.546875 27.320312 29.097656 27.273438 28.710938 27.210938 C 28.324219 27.152344 28.023438 27.082031 27.8125 27.003906 C 27.605469 26.925781 27.5 26.84375 27.5 26.757812 C 27.5 26.671875 27.605469 26.589844 27.8125 26.511719 C 28.023438 26.433594 28.324219 26.363281 28.710938 26.300781 C 29.097656 26.242188 29.546875 26.195312 30.054688 26.164062 C 30.558594 26.128906 31.085938 26.113281 31.636719 26.113281 C 32.183594 26.113281 32.710938 26.128906 33.21875 26.164062 C 33.726562 26.195312 34.171875 26.242188 34.5625 26.300781 C 34.949219 26.363281 35.25 26.433594 35.457031 26.511719 C 35.667969 26.589844 35.773438 26.671875 35.773438 26.757812 Z M 35.773438 26.757812 " fill-opacity="1" fill-rule="nonzero"/><path fill="#e09700" d="M 34.839844 26.757812 C 34.839844 26.8125 34.757812 26.863281 34.59375 26.914062 C 34.433594 26.964844 34.199219 27.011719 33.902344 27.046875 C 33.601562 27.085938 33.253906 27.117188 32.863281 27.136719 C 32.46875 27.160156 32.0625 27.167969 31.636719 27.167969 C 31.210938 27.167969 30.804688 27.160156 30.410156 27.136719 C 30.019531 27.117188 29.671875 27.085938 29.371094 27.046875 C 29.070312 27.011719 28.839844 26.964844 28.675781 26.914062 C 28.515625 26.863281 28.433594 26.8125 28.433594 26.757812 C 28.433594 26.703125 28.515625 26.648438 28.675781 26.597656 C 28.839844 26.550781 29.070312 26.503906 29.371094 26.464844 C 29.671875 26.425781 30.019531 26.398438 30.410156 26.375 C 30.804688 26.355469 31.210938 26.34375 31.636719 26.34375 C 32.0625 26.34375 32.46875 26.355469 32.863281 26.375 C 33.253906 26.398438 33.601562 26.425781 33.902344 26.464844 C 34.199219 26.503906 34.433594 26.550781 34.59375 26.597656 C 34.757812 26.648438 34.839844 26.703125 34.839844 26.757812 Z M 34.839844 26.757812 " fill-opacity="1" fill-rule="nonzero"/><path fill="#ffac00" d="M 28.453125 26.804688 C 28.636719 26.597656 29.992188 26.4375 31.636719 26.4375 C 33.28125 26.4375 34.636719 26.597656 34.816406 26.804688 C 34.636719 27.011719 33.28125 27.167969 31.636719 27.167969 C 29.992188 27.167969 28.636719 27.011719 28.453125 26.804688 Z M 28.453125 26.804688 " fill-opacity="1" fill-rule="evenodd"/><path fill="#ffdb33" d="M 25.769531 26.632812 L 25.769531 25.585938 L 34.046875 25.585938 L 34.046875 26.632812 L 34.042969 26.632812 C 34.046875 26.636719 34.046875 26.640625 34.046875 26.640625 C 34.046875 26.996094 32.191406 27.285156 29.90625 27.285156 C 27.625 27.285156 25.769531 26.996094 25.769531 26.640625 C 25.769531 26.640625 25.769531 26.636719 25.769531 26.632812 Z M 25.769531 26.632812 " fill-opacity="1" fill-rule="evenodd"/><g clip-path="url(#ec2079ce9b)"><g clip-path="url(#99e15de22d)"><path fill="#ffcd00" d="M 33.703125 26.898438 C 33.621094 26.929688 33.519531 26.957031 33.410156 26.984375 L 33.410156 25.585938 L 33.703125 25.585938 Z M 32.890625 27.085938 C 32.796875 27.101562 32.699219 27.117188 32.59375 27.128906 L 32.59375 25.585938 L 32.890625 25.585938 Z M 32.078125 27.1875 C 31.980469 27.199219 31.882812 27.207031 31.78125 27.214844 L 31.78125 25.585938 L 32.078125 25.585938 Z M 31.265625 27.25 C 31.167969 27.253906 31.066406 27.257812 30.96875 27.261719 L 30.96875 25.585938 L 31.265625 25.585938 Z M 30.449219 27.28125 C 30.351562 27.28125 30.253906 27.28125 30.152344 27.285156 L 30.152344 25.585938 L 30.449219 25.585938 Z M 29.636719 27.285156 C 29.535156 27.28125 29.4375 27.28125 29.339844 27.277344 L 29.339844 25.585938 L 29.636719 25.585938 Z M 28.824219 27.261719 C 28.722656 27.257812 28.625 27.253906 28.527344 27.25 L 28.527344 25.585938 L 28.824219 25.585938 Z M 28.007812 27.214844 C 27.90625 27.207031 27.808594 27.195312 27.710938 27.1875 L 27.710938 25.585938 L 28.007812 25.585938 Z M 27.195312 27.128906 C 27.09375 27.113281 26.992188 27.097656 26.898438 27.082031 L 26.898438 25.585938 L 27.195312 25.585938 Z M 26.382812 26.976562 C 26.269531 26.949219 26.167969 26.917969 26.085938 26.886719 L 26.085938 25.585938 L 26.382812 25.585938 Z M 26.382812 26.976562 " fill-opacity="1" fill-rule="evenodd"/></g></g><path fill="#ffcd00" d="M 34.042969 25.585938 C 34.042969 25.671875 33.941406 25.753906 33.730469 25.832031 C 33.519531 25.910156 33.222656 25.980469 32.832031 26.042969 C 32.445312 26.101562 31.996094 26.148438 31.492188 26.179688 C 30.984375 26.214844 30.457031 26.230469 29.90625 26.230469 C 29.359375 26.230469 28.832031 26.214844 28.324219 26.179688 C 27.816406 26.148438 27.371094 26.101562 26.984375 26.042969 C 26.59375 25.980469 26.296875 25.910156 26.085938 25.832031 C 25.875 25.753906 25.769531 25.671875 25.769531 25.585938 C 25.769531 25.5 25.875 25.417969 26.085938 25.339844 C 26.296875 25.261719 26.59375 25.191406 26.984375 25.132812 C 27.371094 25.070312 27.816406 25.027344 28.324219 24.992188 C 28.832031 24.960938 29.359375 24.945312 29.90625 24.945312 C 30.457031 24.945312 30.984375 24.960938 31.492188 24.992188 C 31.996094 25.027344 32.445312 25.070312 32.832031 25.132812 C 33.222656 25.191406 33.519531 25.261719 33.730469 25.339844 C 33.941406 25.417969 34.042969 25.5 34.042969 25.585938 Z M 34.042969 25.585938 " fill-opacity="1" fill-rule="nonzero"/><path fill="#e09700" d="M 33.109375 25.585938 C 33.109375 25.640625 33.027344 25.695312 32.867188 25.746094 C 32.703125 25.796875 32.472656 25.839844 32.171875 25.878906 C 31.871094 25.917969 31.527344 25.945312 31.132812 25.96875 C 30.742188 25.988281 30.332031 26 29.90625 26 C 29.484375 26 29.074219 25.988281 28.683594 25.96875 C 28.289062 25.945312 27.945312 25.917969 27.644531 25.878906 C 27.34375 25.839844 27.113281 25.796875 26.949219 25.746094 C 26.785156 25.695312 26.707031 25.640625 26.707031 25.585938 C 26.707031 25.53125 26.785156 25.480469 26.949219 25.429688 C 27.113281 25.378906 27.34375 25.332031 27.644531 25.296875 C 27.945312 25.257812 28.289062 25.226562 28.683594 25.207031 C 29.074219 25.183594 29.484375 25.175781 29.90625 25.175781 C 30.332031 25.175781 30.742188 25.183594 31.132812 25.207031 C 31.527344 25.226562 31.871094 25.257812 32.171875 25.296875 C 32.472656 25.332031 32.703125 25.378906 32.867188 25.429688 C 33.027344 25.480469 33.109375 25.53125 33.109375 25.585938 Z M 33.109375 25.585938 " fill-opacity="1" fill-rule="nonzero"/><path fill="#ffac00" d="M 26.726562 25.632812 C 26.910156 25.429688 28.265625 25.269531 29.90625 25.269531 C 31.550781 25.269531 32.90625 25.429688 33.089844 25.632812 C 32.90625 25.839844 31.550781 26 29.90625 26 C 28.265625 26 26.910156 25.839844 26.726562 25.632812 Z M 26.726562 25.632812 " fill-opacity="1" fill-rule="evenodd"/><path fill="#8c4925" d="M 29.734375 25.785156 C 29.644531 25.777344 29.554688 25.773438 29.464844 25.757812 C 29.4375 25.753906 29.410156 25.742188 29.386719 25.730469 C 29.371094 25.722656 29.355469 25.710938 29.355469 25.695312 L 29.644531 14.21875 C 29.652344 14.199219 29.65625 14.171875 29.671875 14.15625 C 29.671875 14.15625 29.734375 14.132812 29.734375 14.132812 C 29.753906 14.140625 29.78125 14.140625 29.796875 14.15625 C 29.8125 14.171875 29.824219 14.195312 29.824219 14.21875 L 30.113281 25.695312 C 30.101562 25.707031 30.097656 25.722656 30.082031 25.730469 C 30.058594 25.742188 30.03125 25.753906 30 25.757812 Z M 29.734375 25.785156 " fill-opacity="1" fill-rule="evenodd"/><path fill="#ffcd00" d="M 32.382812 12.445312 C 32.382812 12.792969 32.316406 13.125 32.183594 13.445312 C 32.046875 13.765625 31.855469 14.050781 31.609375 14.296875 C 31.359375 14.542969 31.074219 14.730469 30.75 14.863281 C 30.421875 14.996094 30.085938 15.0625 29.734375 15.0625 C 29.382812 15.0625 29.042969 14.996094 28.71875 14.863281 C 28.394531 14.730469 28.109375 14.542969 27.859375 14.296875 C 27.613281 14.050781 27.421875 13.765625 27.285156 13.445312 C 27.152344 13.125 27.082031 12.792969 27.082031 12.445312 C 27.082031 12.097656 27.152344 11.765625 27.285156 11.441406 C 27.421875 11.121094 27.613281 10.839844 27.859375 10.59375 C 28.109375 10.347656 28.394531 10.160156 28.71875 10.027344 C 29.042969 9.894531 29.382812 9.828125 29.734375 9.828125 C 30.085938 9.828125 30.421875 9.894531 30.75 10.027344 C 31.074219 10.160156 31.359375 10.347656 31.609375 10.59375 C 31.855469 10.839844 32.046875 11.121094 32.183594 11.441406 C 32.316406 11.765625 32.382812 12.097656 32.382812 12.445312 Z M 32.382812 12.445312 " fill-opacity="1" fill-rule="nonzero"/><path fill="#e09700" d="M 32.035156 12.445312 C 32.035156 12.746094 31.976562 13.035156 31.859375 13.3125 C 31.742188 13.59375 31.578125 13.839844 31.359375 14.050781 C 31.144531 14.265625 30.894531 14.429688 30.613281 14.542969 C 30.332031 14.660156 30.039062 14.714844 29.734375 14.714844 C 29.429688 14.714844 29.136719 14.660156 28.855469 14.542969 C 28.574219 14.429688 28.324219 14.265625 28.109375 14.050781 C 27.890625 13.839844 27.726562 13.59375 27.609375 13.3125 C 27.492188 13.035156 27.433594 12.746094 27.433594 12.445312 C 27.433594 12.144531 27.492188 11.855469 27.609375 11.574219 C 27.726562 11.296875 27.890625 11.050781 28.109375 10.839844 C 28.324219 10.625 28.574219 10.460938 28.855469 10.347656 C 29.136719 10.230469 29.429688 10.171875 29.734375 10.171875 C 30.039062 10.171875 30.332031 10.230469 30.613281 10.347656 C 30.894531 10.460938 31.144531 10.625 31.359375 10.839844 C 31.578125 11.050781 31.742188 11.296875 31.859375 11.574219 C 31.976562 11.855469 32.035156 12.144531 32.035156 12.445312 Z M 32.035156 12.445312 " fill-opacity="1" fill-rule="nonzero"/><path fill="#ffac00" d="M 32.035156 12.574219 C 32.035156 12.875 31.976562 13.164062 31.859375 13.441406 C 31.742188 13.722656 31.578125 13.96875 31.359375 14.179688 C 31.144531 14.394531 30.894531 14.558594 30.613281 14.671875 C 30.332031 14.789062 30.039062 14.84375 29.734375 14.84375 C 29.429688 14.84375 29.136719 14.789062 28.855469 14.671875 C 28.574219 14.558594 28.324219 14.394531 28.109375 14.179688 C 27.890625 13.96875 27.726562 13.722656 27.609375 13.441406 C 27.492188 13.164062 27.433594 12.875 27.433594 12.574219 C 27.433594 12.273438 27.492188 11.984375 27.609375 11.703125 C 27.726562 11.425781 27.890625 11.179688 28.109375 10.96875 C 28.324219 10.753906 28.574219 10.589844 28.855469 10.476562 C 29.136719 10.359375 29.429688 10.304688 29.734375 10.304688 C 30.039062 10.304688 30.332031 10.359375 30.613281 10.476562 C 30.894531 10.589844 31.144531 10.753906 31.359375 10.96875 C 31.578125 11.179688 31.742188 11.425781 31.859375 11.703125 C 31.976562 11.984375 32.035156 12.273438 32.035156 12.574219 Z M 32.035156 12.574219 " fill-opacity="1" fill-rule="nonzero"/><path fill="#e09700" d="M 29.503906 13.921875 C 29.414062 13.910156 29.332031 13.890625 29.25 13.867188 C 29.105469 13.824219 28.964844 13.742188 28.832031 13.628906 C 28.796875 13.601562 28.773438 13.570312 28.753906 13.53125 C 28.734375 13.496094 28.726562 13.460938 28.726562 13.425781 C 28.726562 13.363281 28.746094 13.3125 28.792969 13.269531 C 28.835938 13.222656 28.886719 13.199219 28.953125 13.199219 C 29.003906 13.199219 29.046875 13.214844 29.085938 13.246094 C 29.1875 13.328125 29.285156 13.386719 29.382812 13.429688 C 29.421875 13.445312 29.460938 13.457031 29.503906 13.464844 C 29.578125 13.484375 29.65625 13.492188 29.746094 13.492188 C 29.828125 13.492188 29.902344 13.480469 29.972656 13.457031 C 29.988281 13.453125 30 13.449219 30.011719 13.445312 C 30.09375 13.417969 30.160156 13.375 30.207031 13.324219 C 30.257812 13.277344 30.28125 13.21875 30.28125 13.152344 C 30.28125 13.078125 30.257812 13.011719 30.210938 12.957031 C 30.164062 12.902344 30.09375 12.855469 29.996094 12.820312 C 29.988281 12.816406 29.980469 12.8125 29.972656 12.8125 C 29.882812 12.777344 29.765625 12.75 29.628906 12.730469 C 29.585938 12.726562 29.542969 12.71875 29.503906 12.710938 C 29.414062 12.691406 29.332031 12.667969 29.253906 12.636719 C 29.148438 12.59375 29.058594 12.539062 28.988281 12.472656 C 28.914062 12.410156 28.859375 12.332031 28.824219 12.242188 C 28.789062 12.152344 28.769531 12.054688 28.769531 11.941406 C 28.769531 11.773438 28.8125 11.632812 28.902344 11.511719 C 28.988281 11.394531 29.105469 11.304688 29.253906 11.242188 C 29.335938 11.207031 29.417969 11.183594 29.503906 11.167969 L 29.503906 11.015625 C 29.503906 10.886719 29.609375 10.785156 29.738281 10.785156 C 29.867188 10.785156 29.972656 10.886719 29.972656 11.015625 L 29.972656 11.164062 C 30.058594 11.175781 30.144531 11.195312 30.222656 11.222656 C 30.367188 11.273438 30.484375 11.339844 30.574219 11.414062 C 30.652344 11.476562 30.691406 11.542969 30.691406 11.621094 C 30.691406 11.675781 30.667969 11.730469 30.625 11.777344 C 30.578125 11.820312 30.527344 11.84375 30.464844 11.84375 C 30.425781 11.84375 30.390625 11.832031 30.359375 11.8125 C 30.320312 11.773438 30.261719 11.742188 30.191406 11.707031 C 30.125 11.675781 30.050781 11.648438 29.972656 11.628906 C 29.972656 11.628906 29.972656 11.628906 29.96875 11.625 C 29.890625 11.605469 29.816406 11.59375 29.75 11.59375 C 29.65625 11.59375 29.574219 11.605469 29.503906 11.625 C 29.492188 11.628906 29.476562 11.632812 29.464844 11.636719 C 29.386719 11.664062 29.328125 11.703125 29.289062 11.753906 C 29.25 11.800781 29.230469 11.859375 29.230469 11.921875 C 29.230469 12 29.253906 12.0625 29.300781 12.113281 C 29.347656 12.164062 29.410156 12.203125 29.5 12.234375 C 29.5 12.234375 29.503906 12.234375 29.503906 12.238281 C 29.589844 12.265625 29.691406 12.292969 29.808594 12.3125 C 29.867188 12.324219 29.921875 12.335938 29.972656 12.347656 C 30.0625 12.367188 30.148438 12.390625 30.222656 12.414062 C 30.339844 12.453125 30.4375 12.503906 30.515625 12.5625 C 30.597656 12.625 30.65625 12.699219 30.695312 12.792969 C 30.734375 12.882812 30.753906 12.996094 30.753906 13.125 C 30.753906 13.292969 30.707031 13.4375 30.613281 13.558594 C 30.515625 13.679688 30.394531 13.773438 30.242188 13.839844 C 30.15625 13.875 30.066406 13.902344 29.972656 13.917969 L 29.972656 14.132812 C 29.972656 14.261719 29.867188 14.363281 29.738281 14.363281 C 29.609375 14.363281 29.503906 14.261719 29.503906 14.132812 Z M 29.503906 13.921875 " fill-opacity="1" fill-rule="evenodd"/><path fill="#ffcd00" d="M 29.5 13.824219 C 29.410156 13.8125 29.324219 13.796875 29.246094 13.769531 C 29.101562 13.726562 28.960938 13.644531 28.828125 13.53125 C 28.792969 13.503906 28.765625 13.472656 28.75 13.4375 C 28.730469 13.398438 28.722656 13.363281 28.722656 13.328125 C 28.722656 13.269531 28.742188 13.214844 28.785156 13.171875 C 28.828125 13.125 28.882812 13.101562 28.949219 13.101562 C 28.996094 13.101562 29.042969 13.117188 29.082031 13.148438 C 29.179688 13.230469 29.28125 13.289062 29.378906 13.332031 C 29.414062 13.347656 29.453125 13.359375 29.5 13.371094 C 29.570312 13.386719 29.652344 13.394531 29.738281 13.394531 C 29.820312 13.394531 29.898438 13.382812 29.96875 13.359375 C 29.980469 13.359375 29.996094 13.351562 30.007812 13.347656 C 30.085938 13.320312 30.152344 13.277344 30.203125 13.230469 C 30.253906 13.179688 30.277344 13.121094 30.277344 13.054688 C 30.277344 12.980469 30.253906 12.914062 30.207031 12.859375 C 30.160156 12.804688 30.085938 12.757812 29.992188 12.722656 C 29.984375 12.71875 29.976562 12.714844 29.96875 12.714844 C 29.875 12.679688 29.761719 12.652344 29.621094 12.632812 C 29.578125 12.628906 29.539062 12.621094 29.5 12.613281 C 29.40625 12.59375 29.324219 12.570312 29.25 12.539062 C 29.144531 12.496094 29.054688 12.441406 28.980469 12.378906 C 28.910156 12.3125 28.855469 12.234375 28.820312 12.144531 C 28.78125 12.054688 28.765625 11.957031 28.765625 11.84375 C 28.765625 11.675781 28.808594 11.535156 28.894531 11.414062 C 28.984375 11.296875 29.101562 11.207031 29.25 11.144531 C 29.328125 11.113281 29.410156 11.085938 29.5 11.070312 L 29.5 10.917969 C 29.5 10.789062 29.605469 10.6875 29.734375 10.6875 C 29.863281 10.6875 29.96875 10.789062 29.96875 10.917969 L 29.96875 11.066406 C 30.054688 11.078125 30.136719 11.101562 30.214844 11.128906 C 30.359375 11.175781 30.480469 11.242188 30.570312 11.320312 C 30.648438 11.378906 30.683594 11.445312 30.683594 11.523438 C 30.683594 11.582031 30.664062 11.632812 30.617188 11.679688 C 30.574219 11.726562 30.519531 11.75 30.460938 11.75 C 30.421875 11.75 30.386719 11.738281 30.355469 11.714844 C 30.3125 11.675781 30.257812 11.644531 30.1875 11.609375 C 30.117188 11.578125 30.046875 11.554688 29.96875 11.53125 C 29.96875 11.53125 29.964844 11.53125 29.964844 11.53125 C 29.882812 11.507812 29.8125 11.496094 29.742188 11.496094 C 29.648438 11.496094 29.570312 11.507812 29.5 11.527344 C 29.484375 11.53125 29.472656 11.535156 29.460938 11.539062 C 29.382812 11.566406 29.324219 11.605469 29.285156 11.65625 C 29.246094 11.703125 29.226562 11.761719 29.226562 11.824219 C 29.226562 11.902344 29.25 11.96875 29.296875 12.015625 C 29.339844 12.066406 29.40625 12.109375 29.492188 12.136719 C 29.496094 12.136719 29.496094 12.140625 29.5 12.140625 C 29.585938 12.167969 29.683594 12.195312 29.800781 12.214844 C 29.859375 12.226562 29.914062 12.238281 29.96875 12.25 C 30.058594 12.269531 30.140625 12.292969 30.214844 12.316406 C 30.335938 12.355469 30.433594 12.40625 30.511719 12.464844 C 30.589844 12.527344 30.648438 12.601562 30.6875 12.695312 C 30.726562 12.785156 30.746094 12.898438 30.746094 13.03125 C 30.746094 13.195312 30.699219 13.339844 30.605469 13.460938 C 30.511719 13.585938 30.390625 13.675781 30.234375 13.742188 C 30.148438 13.777344 30.0625 13.804688 29.96875 13.820312 L 29.96875 14.035156 C 29.96875 14.164062 29.863281 14.265625 29.734375 14.265625 C 29.605469 14.265625 29.5 14.164062 29.5 14.035156 Z M 29.5 13.824219 " fill-opacity="1" fill-rule="evenodd"/><path fill="#8c4925" d="M 29.796875 19.835938 C 29.785156 19.839844 29.714844 19.863281 29.636719 19.824219 C 29.613281 19.8125 29.59375 19.792969 29.574219 19.773438 C 29.535156 19.726562 29.539062 19.722656 29.523438 19.664062 C 28.984375 17.824219 27.941406 16.972656 27.027344 16.507812 C 26.980469 16.484375 26.992188 16.472656 26.992188 16.417969 C 26.996094 16.371094 27.078125 16.382812 27.082031 16.386719 C 27.09375 16.386719 27.21875 16.445312 27.230469 16.449219 C 28.753906 17.15625 29.511719 18.40625 29.933594 19.574219 C 29.964844 19.652344 29.925781 19.722656 29.921875 19.734375 C 29.882812 19.808594 29.8125 19.832031 29.796875 19.835938 Z M 29.796875 19.835938 " fill-opacity="1" fill-rule="evenodd"/><path fill="#8c4925" d="M 29.664062 21.523438 C 29.652344 21.519531 29.582031 21.492188 29.542969 21.414062 C 29.53125 21.390625 29.527344 21.363281 29.523438 21.339844 C 29.519531 21.285156 29.523438 21.285156 29.542969 21.234375 C 30.199219 19.527344 31.402344 17.9375 32.722656 17.0625 C 32.742188 17.046875 32.746094 17.046875 32.773438 17.054688 C 32.773438 17.054688 32.816406 17.078125 32.816406 17.078125 C 32.820312 17.097656 32.828125 17.113281 32.828125 17.128906 C 32.820312 17.164062 32.8125 17.160156 32.785156 17.183594 C 31.679688 18.007812 30.53125 19.539062 29.933594 21.394531 C 29.90625 21.472656 29.835938 21.507812 29.824219 21.511719 C 29.746094 21.550781 29.675781 21.527344 29.664062 21.523438 Z M 29.664062 21.523438 " fill-opacity="1" fill-rule="evenodd"/><g clip-path="url(#afa65eec51)"><path fill="#ffdb33" d="M 15.265625 35.8125 L 15.265625 34.765625 L 23.539062 34.765625 L 23.539062 35.8125 C 23.539062 35.816406 23.539062 35.820312 23.539062 35.820312 C 23.539062 36.175781 21.683594 36.464844 19.402344 36.464844 C 17.117188 36.464844 15.265625 36.175781 15.265625 35.820312 C 15.265625 35.820312 15.265625 35.816406 15.265625 35.8125 Z M 15.265625 35.8125 " fill-opacity="1" fill-rule="evenodd"/></g><g clip-path="url(#fd1edc7955)"><g clip-path="url(#50351cb9d0)"><path fill="#ffcd00" d="M 23.199219 36.078125 C 23.113281 36.105469 23.015625 36.136719 22.902344 36.164062 L 22.902344 34.765625 L 23.199219 34.765625 Z M 22.386719 36.265625 C 22.292969 36.28125 22.191406 36.296875 22.089844 36.308594 L 22.089844 34.765625 L 22.386719 34.765625 Z M 21.570312 36.367188 C 21.476562 36.378906 21.375 36.386719 21.273438 36.394531 L 21.273438 34.765625 L 21.570312 34.765625 Z M 20.757812 36.429688 C 20.660156 36.433594 20.5625 36.4375 20.460938 36.441406 L 20.460938 34.765625 L 20.757812 34.765625 Z M 19.945312 36.457031 C 19.847656 36.460938 19.746094 36.460938 19.648438 36.460938 L 19.648438 34.765625 L 19.945312 34.765625 Z M 19.128906 36.460938 C 19.03125 36.460938 18.929688 36.460938 18.832031 36.457031 L 18.832031 34.765625 L 19.128906 34.765625 Z M 18.316406 36.441406 C 18.214844 36.4375 18.117188 36.433594 18.019531 36.425781 L 18.019531 34.765625 L 18.316406 34.765625 Z M 17.503906 36.390625 C 17.402344 36.382812 17.300781 36.375 17.207031 36.367188 L 17.207031 34.765625 L 17.503906 34.765625 Z M 16.6875 36.304688 C 16.585938 36.292969 16.488281 36.277344 16.394531 36.261719 L 16.394531 34.765625 L 16.6875 34.765625 Z M 15.875 36.15625 C 15.761719 36.128906 15.664062 36.097656 15.578125 36.066406 L 15.578125 34.765625 L 15.875 34.765625 Z M 15.875 36.15625 " fill-opacity="1" fill-rule="evenodd"/></g></g><path fill="#ffcd00" d="M 23.539062 34.765625 C 23.539062 34.851562 23.433594 34.933594 23.222656 35.011719 C 23.015625 35.089844 22.714844 35.160156 22.328125 35.21875 C 21.9375 35.28125 21.492188 35.328125 20.984375 35.359375 C 20.476562 35.390625 19.949219 35.410156 19.402344 35.410156 C 18.851562 35.410156 18.324219 35.390625 17.820312 35.359375 C 17.3125 35.328125 16.863281 35.28125 16.476562 35.21875 C 16.089844 35.160156 15.789062 35.089844 15.578125 35.011719 C 15.371094 34.933594 15.265625 34.851562 15.265625 34.765625 C 15.265625 34.679688 15.371094 34.597656 15.578125 34.519531 C 15.789062 34.441406 16.089844 34.371094 16.476562 34.3125 C 16.863281 34.25 17.3125 34.203125 17.820312 34.171875 C 18.324219 34.140625 18.851562 34.121094 19.402344 34.121094 C 19.949219 34.121094 20.476562 34.140625 20.984375 34.171875 C 21.492188 34.203125 21.9375 34.25 22.328125 34.3125 C 22.714844 34.371094 23.015625 34.441406 23.222656 34.519531 C 23.433594 34.597656 23.539062 34.679688 23.539062 34.765625 Z M 23.539062 34.765625 " fill-opacity="1" fill-rule="nonzero"/><path fill="#e09700" d="M 22.605469 34.765625 C 22.605469 34.820312 22.523438 34.871094 22.359375 34.921875 C 22.199219 34.972656 21.964844 35.019531 21.667969 35.058594 C 21.367188 35.097656 21.019531 35.125 20.628906 35.148438 C 20.234375 35.167969 19.828125 35.179688 19.402344 35.179688 C 18.976562 35.179688 18.570312 35.167969 18.175781 35.148438 C 17.785156 35.125 17.4375 35.097656 17.136719 35.058594 C 16.835938 35.019531 16.605469 34.972656 16.441406 34.921875 C 16.28125 34.871094 16.199219 34.820312 16.199219 34.765625 C 16.199219 34.710938 16.28125 34.660156 16.441406 34.609375 C 16.605469 34.558594 16.835938 34.511719 17.136719 34.472656 C 17.4375 34.433594 17.785156 34.40625 18.175781 34.386719 C 18.570312 34.363281 18.976562 34.351562 19.402344 34.351562 C 19.828125 34.351562 20.234375 34.363281 20.628906 34.386719 C 21.019531 34.40625 21.367188 34.433594 21.667969 34.472656 C 21.964844 34.511719 22.199219 34.558594 22.359375 34.609375 C 22.523438 34.660156 22.605469 34.710938 22.605469 34.765625 Z M 22.605469 34.765625 " fill-opacity="1" fill-rule="nonzero"/><path fill="#ffac00" d="M 16.21875 34.8125 C 16.402344 34.609375 17.757812 34.449219 19.402344 34.449219 C 21.046875 34.449219 22.402344 34.609375 22.582031 34.8125 C 22.402344 35.019531 21.046875 35.179688 19.402344 35.179688 C 17.757812 35.179688 16.402344 35.019531 16.21875 34.8125 Z M 16.21875 34.8125 " fill-opacity="1" fill-rule="evenodd"/><path fill="#ffdb33" d="M 13.535156 34.644531 L 13.535156 33.59375 L 21.8125 33.59375 L 21.8125 34.644531 L 21.808594 34.644531 C 21.8125 34.644531 21.8125 34.648438 21.8125 34.652344 C 21.8125 35.003906 19.957031 35.292969 17.671875 35.292969 C 15.390625 35.292969 13.535156 35.003906 13.535156 34.652344 C 13.535156 34.648438 13.535156 34.644531 13.535156 34.644531 Z M 13.535156 34.644531 " fill-opacity="1" fill-rule="evenodd"/><g clip-path="url(#8685de7824)"><g clip-path="url(#ef690e4973)"><path fill="#ffcd00" d="M 21.46875 34.90625 C 21.386719 34.9375 21.285156 34.964844 21.175781 34.992188 L 21.175781 33.59375 L 21.46875 33.59375 Z M 20.65625 35.097656 C 20.5625 35.109375 20.464844 35.125 20.359375 35.140625 L 20.359375 33.59375 L 20.65625 33.59375 Z M 19.84375 35.199219 C 19.746094 35.207031 19.648438 35.214844 19.546875 35.222656 L 19.546875 33.59375 L 19.84375 33.59375 Z M 19.03125 35.257812 C 18.933594 35.261719 18.832031 35.269531 18.734375 35.273438 L 18.734375 33.59375 L 19.03125 33.59375 Z M 18.214844 35.289062 C 18.117188 35.289062 18.019531 35.292969 17.917969 35.292969 L 17.917969 33.59375 L 18.214844 33.59375 Z M 17.402344 35.292969 C 17.300781 35.292969 17.203125 35.289062 17.105469 35.289062 L 17.105469 33.59375 L 17.402344 33.59375 Z M 16.589844 35.269531 C 16.488281 35.265625 16.390625 35.261719 16.292969 35.257812 L 16.292969 33.59375 L 16.589844 33.59375 Z M 15.773438 35.222656 C 15.671875 35.214844 15.574219 35.203125 15.476562 35.195312 L 15.476562 33.59375 L 15.773438 33.59375 Z M 14.960938 35.136719 C 14.859375 35.121094 14.757812 35.105469 14.664062 35.089844 L 14.664062 33.59375 L 14.960938 33.59375 Z M 14.148438 34.988281 C 14.035156 34.957031 13.933594 34.929688 13.851562 34.898438 L 13.851562 33.59375 L 14.148438 33.59375 Z M 14.148438 34.988281 " fill-opacity="1" fill-rule="evenodd"/></g></g><path fill="#ffcd00" d="M 21.808594 33.59375 C 21.808594 33.679688 21.707031 33.761719 21.496094 33.839844 C 21.285156 33.921875 20.988281 33.988281 20.597656 34.050781 C 20.210938 34.109375 19.761719 34.15625 19.257812 34.1875 C 18.75 34.222656 18.222656 34.238281 17.671875 34.238281 C 17.125 34.238281 16.597656 34.222656 16.089844 34.1875 C 15.582031 34.15625 15.136719 34.109375 14.75 34.050781 C 14.359375 33.988281 14.0625 33.921875 13.851562 33.839844 C 13.640625 33.761719 13.535156 33.679688 13.535156 33.59375 C 13.535156 33.511719 13.640625 33.429688 13.851562 33.347656 C 14.0625 33.269531 14.359375 33.199219 14.75 33.140625 C 15.136719 33.082031 15.582031 33.035156 16.089844 33 C 16.597656 32.96875 17.125 32.953125 17.671875 32.953125 C 18.222656 32.953125 18.75 32.96875 19.257812 33 C 19.761719 33.035156 20.210938 33.082031 20.597656 33.140625 C 20.988281 33.199219 21.285156 33.269531 21.496094 33.347656 C 21.707031 33.429688 21.808594 33.511719 21.808594 33.59375 Z M 21.808594 33.59375 " fill-opacity="1" fill-rule="nonzero"/><path fill="#e09700" d="M 20.875 33.59375 C 20.875 33.648438 20.792969 33.703125 20.632812 33.753906 C 20.46875 33.804688 20.238281 33.847656 19.9375 33.886719 C 19.636719 33.925781 19.292969 33.957031 18.898438 33.976562 C 18.507812 33.996094 18.097656 34.007812 17.671875 34.007812 C 17.25 34.007812 16.839844 33.996094 16.449219 33.976562 C 16.054688 33.957031 15.710938 33.925781 15.410156 33.886719 C 15.109375 33.847656 14.878906 33.804688 14.714844 33.753906 C 14.550781 33.703125 14.472656 33.648438 14.472656 33.59375 C 14.472656 33.539062 14.550781 33.488281 14.714844 33.4375 C 14.878906 33.386719 15.109375 33.34375 15.410156 33.304688 C 15.710938 33.265625 16.054688 33.234375 16.449219 33.214844 C 16.839844 33.195312 17.25 33.183594 17.671875 33.183594 C 18.097656 33.183594 18.507812 33.195312 18.898438 33.214844 C 19.292969 33.234375 19.636719 33.265625 19.9375 33.304688 C 20.238281 33.34375 20.46875 33.386719 20.632812 33.4375 C 20.792969 33.488281 20.875 33.539062 20.875 33.59375 Z M 20.875 33.59375 " fill-opacity="1" fill-rule="nonzero"/><path fill="#ffac00" d="M 14.492188 33.640625 C 14.675781 33.4375 16.03125 33.277344 17.671875 33.277344 C 19.316406 33.277344 20.671875 33.4375 20.855469 33.640625 C 20.671875 33.847656 19.316406 34.007812 17.671875 34.007812 C 16.03125 34.007812 14.675781 33.847656 14.492188 33.640625 Z M 14.492188 33.640625 " fill-opacity="1" fill-rule="evenodd"/><path fill="#ffdb33" d="M 14.375 33.472656 L 14.375 32.425781 L 22.648438 32.425781 L 22.648438 33.472656 C 22.648438 33.476562 22.648438 33.476562 22.648438 33.480469 C 22.648438 33.835938 20.796875 34.125 18.511719 34.125 C 16.226562 34.125 14.375 33.835938 14.375 33.480469 C 14.375 33.476562 14.375 33.476562 14.375 33.472656 Z M 14.375 33.472656 " fill-opacity="1" fill-rule="evenodd"/><g clip-path="url(#c13b546a1c)"><g clip-path="url(#d5b61e54c0)"><path fill="#ffcd00" d="M 22.308594 33.734375 C 22.222656 33.765625 22.125 33.796875 22.011719 33.824219 L 22.011719 32.425781 L 22.308594 32.425781 Z M 21.496094 33.925781 C 21.402344 33.941406 21.300781 33.953125 21.199219 33.96875 L 21.199219 32.425781 L 21.496094 32.425781 Z M 20.679688 34.027344 C 20.585938 34.035156 20.484375 34.046875 20.382812 34.054688 L 20.382812 32.425781 L 20.679688 32.425781 Z M 19.867188 34.085938 C 19.769531 34.09375 19.671875 34.097656 19.570312 34.101562 L 19.570312 32.425781 L 19.867188 32.425781 Z M 19.054688 34.117188 C 18.957031 34.121094 18.855469 34.121094 18.757812 34.121094 L 18.757812 32.425781 L 19.054688 32.425781 Z M 18.238281 34.121094 C 18.140625 34.121094 18.042969 34.121094 17.945312 34.117188 L 17.945312 32.425781 L 18.238281 32.425781 Z M 17.425781 34.101562 C 17.324219 34.097656 17.226562 34.089844 17.128906 34.085938 L 17.128906 32.425781 L 17.425781 32.425781 Z M 16.613281 34.050781 C 16.511719 34.042969 16.414062 34.035156 16.316406 34.023438 L 16.316406 32.425781 L 16.613281 32.425781 Z M 15.800781 33.964844 C 15.695312 33.953125 15.597656 33.9375 15.503906 33.921875 L 15.503906 32.425781 L 15.800781 32.425781 Z M 14.984375 33.816406 C 14.871094 33.789062 14.773438 33.757812 14.6875 33.726562 L 14.6875 32.425781 L 14.984375 32.425781 Z M 14.984375 33.816406 " fill-opacity="1" fill-rule="evenodd"/></g></g><path fill="#ffcd00" d="M 22.648438 32.425781 C 22.648438 32.511719 22.542969 32.59375 22.332031 32.671875 C 22.125 32.75 21.824219 32.820312 21.4375 32.878906 C 21.046875 32.941406 20.601562 32.984375 20.09375 33.019531 C 19.585938 33.050781 19.058594 33.066406 18.511719 33.066406 C 17.960938 33.066406 17.433594 33.050781 16.929688 33.019531 C 16.421875 32.984375 15.972656 32.941406 15.585938 32.878906 C 15.199219 32.820312 14.898438 32.75 14.6875 32.671875 C 14.480469 32.59375 14.375 32.511719 14.375 32.425781 C 14.375 32.339844 14.480469 32.257812 14.6875 32.179688 C 14.898438 32.101562 15.199219 32.03125 15.585938 31.96875 C 15.972656 31.910156 16.421875 31.863281 16.929688 31.832031 C 17.433594 31.796875 17.960938 31.78125 18.511719 31.78125 C 19.058594 31.78125 19.585938 31.796875 20.09375 31.832031 C 20.601562 31.863281 21.046875 31.910156 21.4375 31.96875 C 21.824219 32.03125 22.125 32.101562 22.332031 32.179688 C 22.542969 32.257812 22.648438 32.339844 22.648438 32.425781 Z M 22.648438 32.425781 " fill-opacity="1" fill-rule="nonzero"/><path fill="#e09700" d="M 21.714844 32.425781 C 21.714844 32.480469 21.632812 32.53125 21.46875 32.582031 C 21.308594 32.632812 21.078125 32.679688 20.777344 32.714844 C 20.476562 32.753906 20.128906 32.785156 19.738281 32.804688 C 19.34375 32.828125 18.9375 32.835938 18.511719 32.835938 C 18.085938 32.835938 17.679688 32.828125 17.285156 32.804688 C 16.894531 32.785156 16.546875 32.753906 16.246094 32.714844 C 15.945312 32.679688 15.714844 32.632812 15.550781 32.582031 C 15.390625 32.53125 15.308594 32.480469 15.308594 32.425781 C 15.308594 32.371094 15.390625 32.316406 15.550781 32.265625 C 15.714844 32.214844 15.945312 32.171875 16.246094 32.132812 C 16.546875 32.09375 16.894531 32.066406 17.285156 32.042969 C 17.679688 32.023438 18.085938 32.011719 18.511719 32.011719 C 18.9375 32.011719 19.34375 32.023438 19.738281 32.042969 C 20.128906 32.066406 20.476562 32.09375 20.777344 32.132812 C 21.078125 32.171875 21.308594 32.214844 21.46875 32.265625 C 21.632812 32.316406 21.714844 32.371094 21.714844 32.425781 Z M 21.714844 32.425781 " fill-opacity="1" fill-rule="nonzero"/><path fill="#ffac00" d="M 15.328125 32.472656 C 15.511719 32.265625 16.867188 32.105469 18.511719 32.105469 C 20.15625 32.105469 21.511719 32.265625 21.691406 32.472656 C 21.511719 32.675781 20.15625 32.835938 18.511719 32.835938 C 16.867188 32.835938 15.511719 32.675781 15.328125 32.472656 Z M 15.328125 32.472656 " fill-opacity="1" fill-rule="evenodd"/><path fill="#ffdb33" d="M 15.484375 32.300781 L 15.484375 31.253906 L 23.761719 31.253906 L 23.761719 32.300781 L 23.757812 32.300781 C 23.761719 32.304688 23.761719 32.308594 23.761719 32.308594 C 23.761719 32.664062 21.90625 32.953125 19.621094 32.953125 C 17.339844 32.953125 15.484375 32.664062 15.484375 32.308594 C 15.484375 32.308594 15.484375 32.304688 15.484375 32.300781 Z M 15.484375 32.300781 " fill-opacity="1" fill-rule="evenodd"/><g clip-path="url(#c45d6543fb)"><g clip-path="url(#6c02081a77)"><path fill="#ffcd00" d="M 23.421875 32.566406 C 23.335938 32.59375 23.234375 32.625 23.125 32.652344 L 23.125 31.253906 L 23.421875 31.253906 Z M 22.605469 32.753906 C 22.511719 32.769531 22.414062 32.785156 22.308594 32.796875 L 22.308594 31.253906 L 22.605469 31.253906 Z M 21.792969 32.855469 C 21.695312 32.867188 21.597656 32.875 21.496094 32.882812 L 21.496094 31.253906 L 21.792969 31.253906 Z M 20.980469 32.917969 C 20.882812 32.921875 20.78125 32.925781 20.683594 32.929688 L 20.683594 31.253906 L 20.980469 31.253906 Z M 20.164062 32.945312 C 20.066406 32.949219 19.96875 32.949219 19.867188 32.953125 L 19.867188 31.253906 L 20.164062 31.253906 Z M 19.351562 32.953125 C 19.25 32.949219 19.152344 32.949219 19.054688 32.945312 L 19.054688 31.253906 L 19.351562 31.253906 Z M 18.539062 32.929688 C 18.4375 32.925781 18.339844 32.921875 18.242188 32.914062 L 18.242188 31.253906 L 18.539062 31.253906 Z M 17.722656 32.878906 C 17.621094 32.871094 17.523438 32.863281 17.425781 32.855469 L 17.425781 31.253906 L 17.722656 31.253906 Z M 16.910156 32.796875 C 16.808594 32.78125 16.707031 32.765625 16.613281 32.75 L 16.613281 31.253906 L 16.910156 31.253906 Z M 16.097656 32.644531 C 15.984375 32.617188 15.882812 32.585938 15.800781 32.554688 L 15.800781 31.253906 L 16.097656 31.253906 Z M 16.097656 32.644531 " fill-opacity="1" fill-rule="evenodd"/></g></g><path fill="#ffcd00" d="M 23.761719 31.253906 C 23.757812 31.339844 23.65625 31.421875 23.445312 31.5 C 23.234375 31.578125 22.9375 31.648438 22.546875 31.707031 C 22.160156 31.769531 21.710938 31.816406 21.207031 31.847656 C 20.699219 31.882812 20.171875 31.898438 19.621094 31.898438 C 19.074219 31.898438 18.546875 31.882812 18.039062 31.847656 C 17.53125 31.816406 17.085938 31.769531 16.699219 31.707031 C 16.308594 31.648438 16.011719 31.578125 15.800781 31.5 C 15.589844 31.421875 15.484375 31.339844 15.484375 31.253906 C 15.484375 31.167969 15.589844 31.085938 15.800781 31.007812 C 16.011719 30.929688 16.308594 30.859375 16.699219 30.800781 C 17.085938 30.738281 17.53125 30.691406 18.039062 30.660156 C 18.546875 30.628906 19.074219 30.613281 19.621094 30.613281 C 20.171875 30.613281 20.699219 30.628906 21.207031 30.660156 C 21.710938 30.691406 22.160156 30.738281 22.546875 30.800781 C 22.9375 30.859375 23.234375 30.929688 23.445312 31.007812 C 23.65625 31.085938 23.757812 31.167969 23.761719 31.253906 Z M 23.761719 31.253906 " fill-opacity="1" fill-rule="nonzero"/><path fill="#e09700" d="M 22.824219 31.253906 C 22.824219 31.308594 22.742188 31.363281 22.582031 31.414062 C 22.417969 31.460938 22.1875 31.507812 21.886719 31.546875 C 21.585938 31.585938 21.242188 31.613281 20.847656 31.636719 C 20.457031 31.65625 20.046875 31.667969 19.621094 31.667969 C 19.199219 31.667969 18.789062 31.65625 18.398438 31.636719 C 18.003906 31.613281 17.660156 31.585938 17.359375 31.546875 C 17.058594 31.507812 16.828125 31.460938 16.664062 31.414062 C 16.5 31.363281 16.421875 31.308594 16.421875 31.253906 C 16.421875 31.199219 16.5 31.148438 16.664062 31.097656 C 16.828125 31.046875 17.058594 31 17.359375 30.960938 C 17.660156 30.925781 18.003906 30.894531 18.398438 30.875 C 18.789062 30.851562 19.199219 30.84375 19.621094 30.84375 C 20.046875 30.84375 20.457031 30.851562 20.847656 30.875 C 21.242188 30.894531 21.585938 30.925781 21.886719 30.960938 C 22.1875 31 22.417969 31.046875 22.582031 31.097656 C 22.742188 31.148438 22.824219 31.199219 22.824219 31.253906 Z M 22.824219 31.253906 " fill-opacity="1" fill-rule="nonzero"/><path fill="#ffac00" d="M 16.441406 31.300781 C 16.625 31.097656 17.980469 30.9375 19.621094 30.9375 C 21.265625 30.9375 22.621094 31.097656 22.804688 31.300781 C 22.621094 31.507812 21.265625 31.667969 19.621094 31.667969 C 17.980469 31.667969 16.625 31.507812 16.441406 31.300781 Z M 16.441406 31.300781 " fill-opacity="1" fill-rule="evenodd"/><path fill="#ffdb33" d="M 13.535156 31.132812 L 13.535156 30.085938 L 21.8125 30.085938 L 21.8125 31.132812 L 21.808594 31.132812 C 21.8125 31.132812 21.8125 31.136719 21.8125 31.140625 C 21.8125 31.496094 19.957031 31.78125 17.671875 31.78125 C 15.390625 31.78125 13.535156 31.496094 13.535156 31.140625 C 13.535156 31.136719 13.535156 31.132812 13.535156 31.132812 Z M 13.535156 31.132812 " fill-opacity="1" fill-rule="evenodd"/><g clip-path="url(#85fb170d63)"><g clip-path="url(#76161cab50)"><path fill="#ffcd00" d="M 21.46875 31.394531 C 21.386719 31.425781 21.285156 31.453125 21.175781 31.480469 L 21.175781 30.085938 L 21.46875 30.085938 Z M 20.65625 31.585938 C 20.5625 31.601562 20.464844 31.613281 20.359375 31.628906 L 20.359375 30.085938 L 20.65625 30.085938 Z M 19.84375 31.6875 C 19.746094 31.695312 19.648438 31.703125 19.546875 31.710938 L 19.546875 30.085938 L 19.84375 30.085938 Z M 19.03125 31.746094 C 18.933594 31.753906 18.832031 31.757812 18.734375 31.761719 L 18.734375 30.085938 L 19.03125 30.085938 Z M 18.214844 31.777344 C 18.117188 31.777344 18.019531 31.78125 17.917969 31.78125 L 17.917969 30.085938 L 18.214844 30.085938 Z M 17.402344 31.78125 C 17.300781 31.78125 17.203125 31.777344 17.105469 31.777344 L 17.105469 30.085938 L 17.402344 30.085938 Z M 16.589844 31.761719 C 16.488281 31.753906 16.390625 31.75 16.292969 31.746094 L 16.292969 30.085938 L 16.589844 30.085938 Z M 15.773438 31.710938 C 15.671875 31.703125 15.574219 31.695312 15.476562 31.683594 L 15.476562 30.085938 L 15.773438 30.085938 Z M 14.960938 31.625 C 14.859375 31.609375 14.757812 31.59375 14.664062 31.582031 L 14.664062 30.085938 L 14.960938 30.085938 Z M 14.148438 31.476562 C 14.035156 31.445312 13.933594 31.417969 13.851562 31.386719 L 13.851562 30.085938 L 14.148438 30.085938 Z M 14.148438 31.476562 " fill-opacity="1" fill-rule="evenodd"/></g></g><path fill="#ffcd00" d="M 21.808594 30.085938 C 21.808594 30.167969 21.707031 30.25 21.496094 30.328125 C 21.285156 30.410156 20.988281 30.476562 20.597656 30.539062 C 20.210938 30.597656 19.761719 30.644531 19.257812 30.679688 C 18.75 30.710938 18.222656 30.726562 17.671875 30.726562 C 17.125 30.726562 16.597656 30.710938 16.089844 30.679688 C 15.582031 30.644531 15.136719 30.597656 14.75 30.539062 C 14.359375 30.476562 14.0625 30.410156 13.851562 30.328125 C 13.640625 30.25 13.535156 30.167969 13.535156 30.085938 C 13.535156 30 13.640625 29.917969 13.851562 29.839844 C 14.0625 29.757812 14.359375 29.691406 14.75 29.628906 C 15.136719 29.570312 15.582031 29.523438 16.089844 29.488281 C 16.597656 29.457031 17.125 29.441406 17.671875 29.441406 C 18.222656 29.441406 18.75 29.457031 19.257812 29.488281 C 19.761719 29.523438 20.210938 29.570312 20.597656 29.628906 C 20.988281 29.691406 21.285156 29.757812 21.496094 29.839844 C 21.707031 29.917969 21.808594 30 21.808594 30.085938 Z M 21.808594 30.085938 " fill-opacity="1" fill-rule="nonzero"/><path fill="#e09700" d="M 20.875 30.085938 C 20.875 30.140625 20.792969 30.191406 20.632812 30.242188 C 20.46875 30.292969 20.238281 30.335938 19.9375 30.375 C 19.636719 30.414062 19.292969 30.445312 18.898438 30.464844 C 18.507812 30.484375 18.097656 30.496094 17.671875 30.496094 C 17.25 30.496094 16.839844 30.484375 16.449219 30.464844 C 16.054688 30.445312 15.710938 30.414062 15.410156 30.375 C 15.109375 30.335938 14.878906 30.292969 14.714844 30.242188 C 14.550781 30.191406 14.472656 30.140625 14.472656 30.085938 C 14.472656 30.03125 14.550781 29.976562 14.714844 29.925781 C 14.878906 29.875 15.109375 29.832031 15.410156 29.792969 C 15.710938 29.753906 16.054688 29.722656 16.449219 29.703125 C 16.839844 29.683594 17.25 29.671875 17.671875 29.671875 C 18.097656 29.671875 18.507812 29.683594 18.898438 29.703125 C 19.292969 29.722656 19.636719 29.753906 19.9375 29.792969 C 20.238281 29.832031 20.46875 29.875 20.632812 29.925781 C 20.792969 29.976562 20.875 30.03125 20.875 30.085938 Z M 20.875 30.085938 " fill-opacity="1" fill-rule="nonzero"/><path fill="#ffac00" d="M 14.492188 30.132812 C 14.675781 29.925781 16.03125 29.765625 17.671875 29.765625 C 19.316406 29.765625 20.671875 29.925781 20.855469 30.132812 C 20.671875 30.335938 19.316406 30.496094 17.671875 30.496094 C 16.03125 30.496094 14.675781 30.335938 14.492188 30.132812 Z M 14.492188 30.132812 " fill-opacity="1" fill-rule="evenodd"/><g clip-path="url(#a3e0b7e353)"><path fill="#ffdb33" d="M 3.878906 35.8125 L 3.878906 34.765625 L 12.152344 34.765625 L 12.152344 35.8125 C 12.152344 35.816406 12.152344 35.820312 12.152344 35.820312 C 12.152344 36.175781 10.300781 36.464844 8.015625 36.464844 C 5.730469 36.464844 3.878906 36.175781 3.878906 35.820312 C 3.878906 35.820312 3.878906 35.816406 3.878906 35.8125 Z M 3.878906 35.8125 " fill-opacity="1" fill-rule="evenodd"/></g><g clip-path="url(#bb1c93b654)"><g clip-path="url(#c7551b639d)"><path fill="#ffcd00" d="M 11.8125 36.078125 C 11.726562 36.105469 11.628906 36.136719 11.515625 36.164062 L 11.515625 34.765625 L 11.8125 34.765625 Z M 11 36.265625 C 10.90625 36.28125 10.804688 36.296875 10.703125 36.308594 L 10.703125 34.765625 L 11 34.765625 Z M 10.183594 36.367188 C 10.089844 36.378906 9.992188 36.386719 9.886719 36.394531 L 9.886719 34.765625 L 10.183594 34.765625 Z M 9.371094 36.429688 C 9.273438 36.433594 9.175781 36.4375 9.074219 36.441406 L 9.074219 34.765625 L 9.371094 34.765625 Z M 8.558594 36.457031 C 8.460938 36.460938 8.359375 36.460938 8.261719 36.460938 L 8.261719 34.765625 L 8.558594 34.765625 Z M 7.746094 36.460938 C 7.644531 36.460938 7.546875 36.460938 7.449219 36.457031 L 7.449219 34.765625 L 7.746094 34.765625 Z M 6.929688 36.441406 C 6.832031 36.4375 6.730469 36.433594 6.632812 36.425781 L 6.632812 34.765625 L 6.929688 34.765625 Z M 6.117188 36.390625 C 6.015625 36.382812 5.917969 36.375 5.820312 36.367188 L 5.820312 34.765625 L 6.117188 34.765625 Z M 5.304688 36.304688 C 5.199219 36.292969 5.101562 36.277344 5.007812 36.261719 L 5.007812 34.765625 L 5.304688 34.765625 Z M 4.488281 36.15625 C 4.375 36.128906 4.277344 36.097656 4.191406 36.066406 L 4.191406 34.765625 L 4.488281 34.765625 Z M 4.488281 36.15625 " fill-opacity="1" fill-rule="evenodd"/></g></g><path fill="#ffcd00" d="M 12.152344 34.765625 C 12.152344 34.851562 12.046875 34.933594 11.835938 35.011719 C 11.628906 35.089844 11.328125 35.160156 10.941406 35.21875 C 10.554688 35.28125 10.105469 35.328125 9.597656 35.359375 C 9.09375 35.390625 8.5625 35.410156 8.015625 35.410156 C 7.46875 35.410156 6.9375 35.390625 6.433594 35.359375 C 5.925781 35.328125 5.476562 35.28125 5.089844 35.21875 C 4.703125 35.160156 4.402344 35.089844 4.195312 35.011719 C 3.984375 34.933594 3.878906 34.851562 3.878906 34.765625 C 3.878906 34.679688 3.984375 34.597656 4.195312 34.519531 C 4.402344 34.441406 4.703125 34.371094 5.089844 34.3125 C 5.476562 34.25 5.925781 34.203125 6.433594 34.171875 C 6.9375 34.140625 7.46875 34.121094 8.015625 34.121094 C 8.5625 34.121094 9.09375 34.140625 9.597656 34.171875 C 10.105469 34.203125 10.554688 34.25 10.941406 34.3125 C 11.328125 34.371094 11.628906 34.441406 11.835938 34.519531 C 12.046875 34.597656 12.152344 34.679688 12.152344 34.765625 Z M 12.152344 34.765625 " fill-opacity="1" fill-rule="nonzero"/><path fill="#e09700" d="M 11.21875 34.765625 C 11.21875 34.820312 11.136719 34.871094 10.972656 34.921875 C 10.8125 34.972656 10.582031 35.019531 10.28125 35.058594 C 9.980469 35.097656 9.632812 35.125 9.242188 35.148438 C 8.847656 35.167969 8.441406 35.179688 8.015625 35.179688 C 7.589844 35.179688 7.183594 35.167969 6.789062 35.148438 C 6.398438 35.125 6.050781 35.097656 5.75 35.058594 C 5.449219 35.019531 5.21875 34.972656 5.058594 34.921875 C 4.894531 34.871094 4.8125 34.820312 4.8125 34.765625 C 4.8125 34.710938 4.894531 34.660156 5.058594 34.609375 C 5.21875 34.558594 5.449219 34.511719 5.75 34.472656 C 6.050781 34.433594 6.398438 34.40625 6.789062 34.386719 C 7.183594 34.363281 7.589844 34.351562 8.015625 34.351562 C 8.441406 34.351562 8.847656 34.363281 9.242188 34.386719 C 9.632812 34.40625 9.980469 34.433594 10.28125 34.472656 C 10.582031 34.511719 10.8125 34.558594 10.972656 34.609375 C 11.136719 34.660156 11.21875 34.710938 11.21875 34.765625 Z M 11.21875 34.765625 " fill-opacity="1" fill-rule="nonzero"/><path fill="#ffac00" d="M 4.832031 34.8125 C 5.015625 34.609375 6.371094 34.449219 8.015625 34.449219 C 9.660156 34.449219 11.015625 34.609375 11.195312 34.8125 C 11.015625 35.019531 9.660156 35.179688 8.015625 35.179688 C 6.371094 35.179688 5.015625 35.019531 4.832031 34.8125 Z M 4.832031 34.8125 " fill-opacity="1" fill-rule="evenodd"/><path fill="#ffdb33" d="M 2.152344 34.644531 L 2.152344 33.59375 L 10.425781 33.59375 L 10.425781 34.644531 L 10.421875 34.644531 C 10.425781 34.644531 10.425781 34.648438 10.425781 34.652344 C 10.425781 35.003906 8.570312 35.292969 6.285156 35.292969 C 4.003906 35.292969 2.152344 35.003906 2.152344 34.652344 C 2.152344 34.648438 2.152344 34.644531 2.152344 34.644531 Z M 2.152344 34.644531 " fill-opacity="1" fill-rule="evenodd"/><g clip-path="url(#cd44a1b791)"><g clip-path="url(#cb87937740)"><path fill="#ffcd00" d="M 10.085938 34.90625 C 10 34.9375 9.902344 34.964844 9.789062 34.992188 L 9.789062 33.59375 L 10.085938 33.59375 Z M 9.269531 35.097656 C 9.175781 35.109375 9.078125 35.125 8.972656 35.140625 L 8.972656 33.59375 L 9.269531 33.59375 Z M 8.457031 35.199219 C 8.359375 35.207031 8.261719 35.214844 8.160156 35.222656 L 8.160156 33.59375 L 8.457031 33.59375 Z M 7.644531 35.257812 C 7.546875 35.261719 7.445312 35.269531 7.347656 35.273438 L 7.347656 33.59375 L 7.644531 33.59375 Z M 6.828125 35.289062 C 6.730469 35.289062 6.632812 35.292969 6.53125 35.292969 L 6.53125 33.59375 L 6.828125 33.59375 Z M 6.015625 35.292969 C 5.917969 35.292969 5.816406 35.289062 5.71875 35.289062 L 5.71875 33.59375 L 6.015625 33.59375 Z M 5.203125 35.269531 C 5.101562 35.265625 5.003906 35.261719 4.90625 35.257812 L 4.90625 33.59375 L 5.203125 33.59375 Z M 4.390625 35.222656 C 4.289062 35.214844 4.1875 35.203125 4.09375 35.195312 L 4.09375 33.59375 L 4.390625 33.59375 Z M 3.574219 35.136719 C 3.472656 35.121094 3.371094 35.105469 3.277344 35.089844 L 3.277344 33.59375 L 3.574219 33.59375 Z M 2.761719 34.988281 C 2.648438 34.957031 2.546875 34.929688 2.464844 34.898438 L 2.464844 33.59375 L 2.761719 33.59375 Z M 2.761719 34.988281 " fill-opacity="1" fill-rule="evenodd"/></g></g><path fill="#ffcd00" d="M 10.425781 33.59375 C 10.425781 33.679688 10.320312 33.761719 10.109375 33.839844 C 9.898438 33.921875 9.601562 33.988281 9.210938 34.050781 C 8.824219 34.109375 8.378906 34.15625 7.871094 34.1875 C 7.363281 34.222656 6.835938 34.238281 6.289062 34.238281 C 5.738281 34.238281 5.210938 34.222656 4.703125 34.1875 C 4.199219 34.15625 3.75 34.109375 3.363281 34.050781 C 2.972656 33.988281 2.675781 33.921875 2.464844 33.839844 C 2.253906 33.761719 2.152344 33.679688 2.152344 33.59375 C 2.152344 33.511719 2.253906 33.429688 2.464844 33.347656 C 2.675781 33.269531 2.972656 33.199219 3.363281 33.140625 C 3.75 33.082031 4.199219 33.035156 4.703125 33 C 5.210938 32.96875 5.738281 32.953125 6.289062 32.953125 C 6.835938 32.953125 7.363281 32.96875 7.871094 33 C 8.378906 33.035156 8.824219 33.082031 9.210938 33.140625 C 9.601562 33.199219 9.898438 33.269531 10.109375 33.347656 C 10.320312 33.429688 10.425781 33.511719 10.425781 33.59375 Z M 10.425781 33.59375 " fill-opacity="1" fill-rule="nonzero"/><path fill="#e09700" d="M 9.488281 33.59375 C 9.488281 33.648438 9.410156 33.703125 9.246094 33.753906 C 9.082031 33.804688 8.851562 33.847656 8.550781 33.886719 C 8.25 33.925781 7.90625 33.957031 7.511719 33.976562 C 7.121094 33.996094 6.710938 34.007812 6.289062 34.007812 C 5.863281 34.007812 5.453125 33.996094 5.0625 33.976562 C 4.667969 33.957031 4.324219 33.925781 4.023438 33.886719 C 3.722656 33.847656 3.492188 33.804688 3.328125 33.753906 C 3.167969 33.703125 3.085938 33.648438 3.085938 33.59375 C 3.085938 33.539062 3.167969 33.488281 3.328125 33.4375 C 3.492188 33.386719 3.722656 33.34375 4.023438 33.304688 C 4.324219 33.265625 4.667969 33.234375 5.0625 33.214844 C 5.453125 33.195312 5.863281 33.183594 6.289062 33.183594 C 6.710938 33.183594 7.121094 33.195312 7.511719 33.214844 C 7.90625 33.234375 8.25 33.265625 8.550781 33.304688 C 8.851562 33.34375 9.082031 33.386719 9.246094 33.4375 C 9.410156 33.488281 9.488281 33.539062 9.488281 33.59375 Z M 9.488281 33.59375 " fill-opacity="1" fill-rule="nonzero"/><path fill="#ffac00" d="M 3.105469 33.640625 C 3.289062 33.4375 4.644531 33.277344 6.289062 33.277344 C 7.929688 33.277344 9.285156 33.4375 9.46875 33.640625 C 9.285156 33.847656 7.929688 34.007812 6.289062 34.007812 C 4.644531 34.007812 3.289062 33.847656 3.105469 33.640625 Z M 3.105469 33.640625 " fill-opacity="1" fill-rule="evenodd"/><path fill="#6eb01b" d="M 5.304688 29.023438 C 3.667969 29.441406 3.167969 27.90625 3.289062 26.070312 C 5.09375 26.355469 6.410156 27.804688 5.304688 29.023438 Z M 5.304688 29.023438 " fill-opacity="1" fill-rule="evenodd"/><path fill="#6eb01b" d="M 7.101562 29.691406 C 8.636719 30.394531 9.40625 28.972656 9.617188 27.144531 C 7.792969 27.105469 6.234375 28.292969 7.101562 29.691406 Z M 7.101562 29.691406 " fill-opacity="1" fill-rule="evenodd"/><path fill="#8c4925" d="M 6.378906 31.882812 C 6.511719 32.769531 6.519531 32.492188 6.542969 33.386719 C 6.546875 33.496094 6.476562 33.566406 6.464844 33.578125 C 6.382812 33.660156 6.285156 33.660156 6.269531 33.660156 C 6.253906 33.660156 6.15625 33.660156 6.078125 33.578125 C 6.050781 33.554688 6.03125 33.523438 6.015625 33.492188 C 6.003906 33.460938 6 33.421875 5.992188 33.386719 C 5.988281 33.359375 6.074219 33.445312 6 32.355469 C 5.867188 30.34375 5.363281 28.828125 4.277344 27.640625 C 4.253906 27.617188 4.253906 27.613281 4.253906 27.578125 C 4.253906 27.578125 4.28125 27.515625 4.28125 27.515625 C 4.300781 27.507812 4.320312 27.492188 4.34375 27.492188 C 4.367188 27.492188 4.386719 27.507812 4.40625 27.519531 C 4.414062 27.523438 4.503906 27.617188 4.511719 27.628906 C 5.441406 28.59375 5.949219 29.78125 6.230469 31.054688 C 6.507812 30.246094 6.933594 29.660156 7.75 29.023438 C 7.777344 29.003906 7.777344 29 7.8125 29.003906 C 7.816406 29.003906 7.875 29.035156 7.875 29.035156 C 7.882812 29.058594 7.898438 29.078125 7.894531 29.101562 C 7.890625 29.125 7.875 29.140625 7.863281 29.160156 C 7.851562 29.171875 7.425781 29.515625 7.082031 29.992188 C 6.660156 30.578125 6.496094 31.175781 6.378906 31.882812 Z M 6.378906 31.882812 " fill-opacity="1" fill-rule="evenodd"/><path fill="#6eb01b" d="M 16.957031 22.472656 C 14.53125 23.09375 13.792969 20.820312 13.972656 18.097656 C 16.644531 18.523438 18.59375 20.664062 16.957031 22.472656 Z M 16.957031 22.472656 " fill-opacity="1" fill-rule="evenodd"/><path fill="#6eb01b" d="M 18.527344 23.085938 C 20.75 24.105469 21.867188 22.042969 22.171875 19.394531 C 19.527344 19.339844 17.269531 21.0625 18.527344 23.085938 Z M 18.527344 23.085938 " fill-opacity="1" fill-rule="evenodd"/><path fill="#8c4925" d="M 17.902344 25.808594 C 18.035156 26.699219 17.960938 29.042969 17.984375 29.9375 C 17.988281 30.050781 17.914062 30.121094 17.902344 30.132812 C 17.824219 30.210938 17.726562 30.210938 17.710938 30.210938 C 17.691406 30.210938 17.597656 30.210938 17.515625 30.132812 C 17.492188 30.109375 17.472656 30.078125 17.457031 30.046875 C 17.441406 30.011719 17.4375 29.976562 17.433594 29.941406 C 17.429688 29.914062 17.589844 27.054688 17.515625 25.96875 C 17.382812 23.957031 16.84375 22.140625 15.761719 20.953125 C 15.738281 20.925781 15.738281 20.925781 15.738281 20.890625 C 15.738281 20.890625 15.765625 20.828125 15.765625 20.828125 C 15.785156 20.820312 15.804688 20.804688 15.828125 20.804688 C 15.851562 20.804688 15.871094 20.820312 15.890625 20.832031 C 15.894531 20.835938 15.988281 20.929688 15.996094 20.9375 C 16.925781 21.90625 17.433594 23.09375 17.710938 24.363281 C 17.988281 23.558594 18.414062 22.972656 19.234375 22.335938 C 19.261719 22.3125 19.261719 22.3125 19.296875 22.316406 C 19.296875 22.316406 19.359375 22.347656 19.359375 22.347656 C 19.363281 22.371094 19.378906 22.390625 19.378906 22.414062 C 19.375 22.433594 19.359375 22.453125 19.347656 22.472656 C 19.335938 22.484375 18.910156 22.828125 18.566406 23.300781 C 18.144531 23.890625 18.019531 25.105469 17.902344 25.808594 Z M 17.902344 25.808594 " fill-opacity="1" fill-rule="evenodd"/><g clip-path="url(#ca59190475)"><path fill="#f03b2e" d="M 31.527344 3.949219 L 19.9375 15.746094 C 19.484375 16.207031 18.746094 16.226562 18.269531 15.796875 L 15.777344 13.550781 L 4.960938 24.15625 L 3.273438 22.464844 L 14.898438 11.0625 C 15.351562 10.617188 16.078125 10.601562 16.550781 11.03125 L 19.027344 13.261719 L 29.835938 2.261719 L 28.753906 1.179688 L 33.398438 0.617188 L 32.792969 5.214844 Z M 31.527344 3.949219 " fill-opacity="1" fill-rule="evenodd"/></g></svg>